SplineFontDB: 3.0
FontName: OtherLetter
FullName: Other Letter
FamilyName: OtherLetter
Weight: Regular
Copyright: Copyright (c) 2013 Pathum Egodawatta, .Copyright (c) 2014 moonaik <http://moonaik.com> \n\n Licensed under the SIL Open Font License 1.1 (see file OFL.txt)
Version: 0.1
ItalicAngle: 0
UnderlinePosition: -368
UnderlineWidth: 24
Ascent: 819
Descent: 205
InvalidEm: 0
sfntRevision: 0x0000199a
LayerCount: 2
Layer: 0 1 "Back" 1
Layer: 1 1 "Fore" 0
XUID: [1021 792 -450466945 14250590]
FSType: 0
OS2Version: 3
OS2_WeightWidthSlopeOnly: 0
OS2_UseTypoMetrics: 1
CreationTime: 1316601550
ModificationTime: 1426966458
PfmFamily: 17
TTFWeight: 400
TTFWidth: 5
LineGap: 0
VLineGap: 0
Panose: 2 0 6 0 0 0 0 0 0 0
OS2TypoAscent: 1400
OS2TypoAOffset: 0
OS2TypoDescent: -648
OS2TypoDOffset: 0
OS2TypoLinegap: 20
OS2WinAscent: 866
OS2WinAOffset: 0
OS2WinDescent: 363
OS2WinDOffset: 0
HheadAscent: 866
HheadAOffset: 0
HheadDescent: -380
HheadDOffset: 0
OS2SubXSize: 861
OS2SubYSize: 799
OS2SubXOff: 0
OS2SubYOff: 246
OS2SupXSize: 861
OS2SupYSize: 799
OS2SupXOff: 0
OS2SupYOff: 615
OS2StrikeYSize: 61
OS2StrikeYPos: 307
OS2CapHeight: 0
OS2XHeight: 0
OS2Vendor: 'ACE '
OS2CodePages: 00000001.00000000
OS2UnicodeRanges: 80108003.00002042.00000000.00000000
Lookup: 4 0 0 "'abvs' Above Base Substitutions in Tamil lookup 0" { "'abvs' Above Base Substitutions in Tamil lookup 0 subtable"  } ['abvs' ('taml' <'dflt' > ) ]
Lookup: 4 0 0 "'akhn' Akhand in Tamil lookup 1" { "'akhn' Akhand in Tamil lookup 1 subtable"  } ['akhn' ('taml' <'dflt' > ) ]
Lookup: 4 0 0 "'blws' Below Base Substitutions in Tamil lookup 2" { "'blws' Below Base Substitutions in Tamil lookup 2 subtable"  } ['blws' ('taml' <'dflt' > ) ]
Lookup: 4 0 0 "'half' Half Forms in Tamil lookup 3" { "'half' Half Forms in Tamil lookup 3 subtable"  } ['half' ('taml' <'dflt' > ) ]
Lookup: 4 0 0 "'haln' Halant Forms in Tamil lookup 4" { "'haln' Halant Forms in Tamil lookup 4 subtable"  } ['haln' ('taml' <'dflt' > ) ]

StartChar: .notdef
Encoding: 65536 -1 0
Width: 614
Flags: W
LayerCount: 2
Back
Fore
SplineSet
96 731 m 1,0,-1
 517 731 l 1,1,-1
 517 0 l 1,2,-1
 96 0 l 1,3,-1
 96 731 l 1,0,-1
148 52 m 1,4,-1
 465 52 l 1,5,-1
 465 679 l 1,6,-1
 148 679 l 1,7,-1
 148 52 l 1,4,-1
EndSplineSet
EndChar

StartChar: .notdef#1
Encoding: 65537 -1 1
Width: 614
Flags: W
LayerCount: 2
Back
Fore
SplineSet
96 731 m 1,0,-1
 517 731 l 1,1,-1
 517 0 l 1,2,-1
 96 0 l 1,3,-1
 96 731 l 1,0,-1
148 52 m 1,4,-1
 465 52 l 1,5,-1
 465 679 l 1,6,-1
 148 679 l 1,7,-1
 148 52 l 1,4,-1
EndSplineSet
EndChar

StartChar: exclam
Encoding: 33 33 8
Width: 291
Flags: W
LayerCount: 2
Back
Fore
SplineSet
89 259 m 1,0,-1
 89 734 l 1,1,-1
 202 734 l 1,2,-1
 202 259 l 1,3,-1
 89 259 l 1,0,-1
89 0 m 1,4,-1
 89 140 l 1,5,-1
 202 140 l 1,6,-1
 202 0 l 1,7,-1
 89 0 l 1,4,-1
EndSplineSet
EndChar

StartChar: quotedbl
Encoding: 34 34 9
Width: 366
Flags: W
LayerCount: 2
Back
Fore
SplineSet
66 513 m 1,0,-1
 66 738 l 1,1,-1
 162 738 l 1,2,-1
 162 513 l 1,3,-1
 66 513 l 1,0,-1
204 513 m 1,4,-1
 204 738 l 1,5,-1
 300 738 l 1,6,-1
 300 513 l 1,7,-1
 204 513 l 1,4,-1
EndSplineSet
EndChar

StartChar: numbersign
Encoding: 35 35 10
Width: 723
Flags: W
LayerCount: 2
Back
Fore
SplineSet
685 446 m 1,0,-1
 543 446 l 1,1,-1
 504 285 l 1,2,-1
 639 285 l 1,3,-1
 639 199 l 1,4,-1
 483 199 l 1,5,-1
 435 0 l 1,6,-1
 343 0 l 1,7,-1
 392 199 l 1,8,-1
 244 199 l 1,9,-1
 196 0 l 1,10,-1
 103 0 l 1,11,-1
 154 199 l 1,12,-1
 38 199 l 1,13,-1
 38 285 l 1,14,-1
 173 285 l 1,15,-1
 212 446 l 1,16,-1
 84 446 l 1,17,-1
 84 526 l 1,18,-1
 232 526 l 1,19,-1
 281 727 l 1,20,-1
 373 727 l 1,21,-1
 324 526 l 1,22,-1
 471 526 l 1,23,-1
 520 727 l 1,24,-1
 612 727 l 1,25,-1
 562 526 l 1,26,-1
 685 526 l 1,27,-1
 685 446 l 1,0,-1
413 285 m 1,28,-1
 452 446 l 1,29,-1
 303 446 l 1,30,-1
 264 285 l 1,31,-1
 413 285 l 1,28,-1
EndSplineSet
EndChar

StartChar: dollar
Encoding: 36 36 11
Width: 643
Flags: W
LayerCount: 2
Back
Fore
SplineSet
521 556 m 1,0,1
 486.211538462 594.653846154 486.211538462 594.653846154 401 619 c 0,2,3
 373 627 373 627 343 629 c 1,4,-1
 343 417 l 1,5,-1
 362 413 l 1,6,7
 488.839694656 381.290076336 488.839694656 381.290076336 537.5 343 c 0,8,9
 602 292.245901639 602 292.245901639 602 202 c 0,10,11
 602 100.823529412 602 100.823529412 529 45 c 0,12,13
 463.837632777 -4.83004552352 463.837632777 -4.83004552352 351 -7 c 1,14,-1
 351 -115 l 1,15,-1
 298 -115 l 1,16,-1
 298 -5 l 1,17,18
 145.621603027 5.2958376333 145.621603027 5.2958376333 36 91 c 1,19,-1
 88 189 l 1,20,21
 129.442735043 143.78974359 129.442735043 143.78974359 234 111.5 c 0,22,23
 268 101 268 101 305 97 c 1,24,-1
 305 309 l 1,25,26
 299 311 299 311 292.5 312.5 c 128,-1,27
 286 314 286 314 255.5 322.5 c 128,-1,28
 225 331 225 331 184.5 346.5 c 128,-1,29
 144 362 144 362 117.5 385 c 0,30,31
 63 432.301886792 63 432.301886792 63 511 c 0,32,33
 63 608.375 63 608.375 130 667 c 0,34,35
 193.803076923 722.827692308 193.803076923 722.827692308 298 731 c 1,36,-1
 298 835 l 1,37,-1
 351 835 l 1,38,-1
 351 731 l 1,39,40
 474.025862069 723.655172414 474.025862069 723.655172414 573 650 c 1,41,-1
 521 556 l 1,0,1
343 96 m 1,42,43
 479 98.0606060606 479 98.0606060606 479 189 c 256,44,45
 479 234 479 234 443.5 257.5 c 128,-1,46
 408 281 408 281 343 299 c 1,47,-1
 343 96 l 1,42,43
213 599.5 m 128,-1,49
 183 573 183 573 183 529.5 c 128,-1,50
 183 486 183 486 213.5 464.5 c 128,-1,51
 244 443 244 443 305 427 c 1,52,-1
 305 629 l 1,53,48
 243 626 243 626 213 599.5 c 128,-1,49
EndSplineSet
EndChar

StartChar: percent
Encoding: 37 37 12
Width: 851
Flags: W
LayerCount: 2
Back
Fore
SplineSet
353 513 m 0,0,1
 353 282 353 282 199 282 c 0,2,3
 126 282 126 282 88 342.5 c 128,-1,4
 50 403 50 403 50 513 c 0,5,6
 50 741 50 741 199 741 c 0,7,8
 274 741 274 741 313.5 683 c 128,-1,9
 353 625 353 625 353 513 c 0,0,1
199 347 m 0,10,11
 281 347 281 347 281 512.5 c 128,-1,12
 281 678 281 678 199 678 c 0,13,14
 158 678 158 678 140 636.5 c 128,-1,15
 122 595 122 595 122 512.5 c 128,-1,16
 122 430 122 430 140 388.5 c 128,-1,17
 158 347 158 347 199 347 c 0,10,11
667 731 m 1,18,-1
 262 0 l 1,19,-1
 183 0 l 1,20,-1
 589 731 l 1,21,-1
 667 731 l 1,18,-1
801 220 m 0,22,23
 801 -10 801 -10 647 -10 c 0,24,25
 575 -10 575 -10 536 50 c 128,-1,26
 497 110 497 110 497 220 c 0,27,28
 497 448 497 448 647 448 c 0,29,30
 721 448 721 448 761 389 c 128,-1,31
 801 330 801 330 801 220 c 0,22,23
647 54 m 0,32,33
 729 54 729 54 729 219 c 128,-1,34
 729 384 729 384 647 384 c 0,35,36
 606 384 606 384 587.5 343 c 128,-1,37
 569 302 569 302 569 219 c 128,-1,38
 569 136 569 136 587.5 95 c 128,-1,39
 606 54 606 54 647 54 c 0,32,33
EndSplineSet
EndChar

StartChar: ampersand
Encoding: 38 38 13
Width: 713
Flags: W
LayerCount: 2
Back
Fore
SplineSet
628 386 m 1,0,1
 626.045786654 249.205065757 626.045786654 249.205065757 564 152 c 1,2,-1
 710 0 l 1,3,-1
 561 0 l 1,4,-1
 495 70 l 1,5,6
 402.692307692 -10 402.692307692 -10 284 -10 c 0,7,8
 179.125 -10 179.125 -10 110.5 51 c 0,9,10
 44 110.111111111 44 110.111111111 44 199 c 0,11,12
 44 294.12 44 294.12 127 365.5 c 0,13,14
 152 387 152 387 178 406 c 1,15,16
 111.402985075 478.388059701 111.402985075 478.388059701 98.5 530 c 0,17,18
 94 548 94 548 94 576 c 128,-1,19
 94 604 94 604 109 635.5 c 128,-1,20
 124 667 124 667 149.5 689.5 c 0,21,22
 202.2 736 202.2 736 287 736 c 0,23,24
 364.846153846 736 364.846153846 736 416.5 696.5 c 0,25,26
 472 654.058823529 472 654.058823529 472 582 c 0,27,28
 472 502.72 472 502.72 389 433 c 0,29,30
 364 412 364 412 335 392 c 1,31,-1
 499 220 l 1,32,33
 536 298.352941176 536 298.352941176 536 386 c 1,34,-1
 628 386 l 1,0,1
434 134 m 1,35,-1
 246 334 l 1,36,37
 204 304 204 304 178.5 271.5 c 128,-1,38
 153 239 153 239 153 205 c 128,-1,39
 153 171 153 171 164 149 c 128,-1,40
 175 127 175 127 195 111.5 c 0,41,42
 236.935483871 79 236.935483871 79 303.736972705 79 c 128,-1,43
 370.538461538 79 370.538461538 79 434 134 c 1,35,-1
233 500.5 m 0,44,45
 247 485 247 485 267 463 c 1,46,47
 314 493 314 493 341.5 520 c 128,-1,48
 369 547 369 547 369 579.5 c 128,-1,49
 369 612 369 612 346 632 c 128,-1,50
 323 652 323 652 285.5 652 c 128,-1,51
 248 652 248 652 223 628 c 128,-1,52
 198 604 198 604 198 571.625 c 128,-1,53
 198 539.25 198 539.25 233 500.5 c 0,44,45
EndSplineSet
EndChar

StartChar: quotesingle
Encoding: 39 39 14
Width: 227
Flags: W
LayerCount: 2
Back
Fore
SplineSet
66 512 m 1,0,-1
 66 738 l 1,1,-1
 162 738 l 1,2,-1
 162 512 l 1,3,-1
 66 512 l 1,0,-1
EndSplineSet
EndChar

StartChar: parenleft
Encoding: 40 40 15
Width: 303
Flags: W
LayerCount: 2
Back
Fore
SplineSet
189 -48 m 1,0,1
 39 177 39 177 39 354 c 0,2,3
 39 492.872727273 39 492.872727273 129.5 664 c 0,4,5
 157 716 157 716 187 768 c 1,6,-1
 274 731 l 1,7,8
 231.343980344 669.385749386 231.343980344 669.385749386 201.171990172 591.692874693 c 0,9,10
 144 444.475 144 444.475 144 351 c 0,11,12
 144 199.827586207 144 199.827586207 271 -6 c 1,13,-1
 189 -48 l 1,0,1
EndSplineSet
EndChar

StartChar: parenright
Encoding: 41 41 16
Width: 303
Flags: W
LayerCount: 2
Back
Fore
SplineSet
31 -6 m 1,0,1
 159 201.448275862 159 201.448275862 159 351 c 0,2,3
 159 441.9 159 441.9 111 565.5 c 0,4,5
 72.6596343179 664.226441632 72.6596343179 664.226441632 29 731 c 1,6,-1
 115 768 l 1,7,8
 189.702970297 638.514851485 189.702970297 638.514851485 214.851485149 573.757425743 c 0,9,10
 263 449.775 263 449.775 263 350.8875 c 0,11,12
 263 175.5 263 175.5 114 -48 c 1,13,-1
 31 -6 l 1,0,1
EndSplineSet
EndChar

StartChar: asterisk
Encoding: 42 42 17
Width: 345
Flags: W
LayerCount: 2
Back
Fore
SplineSet
82 543 m 1,0,-1
 128 611 l 1,1,-1
 56 634 l 1,2,-1
 73 685 l 1,3,-1
 145 655 l 1,4,-1
 141 733 l 1,5,-1
 204 733 l 1,6,-1
 200 655 l 1,7,-1
 272 685 l 1,8,-1
 288 634 l 1,9,-1
 217 611 l 1,10,-1
 263 543 l 1,11,-1
 218 512 l 1,12,-1
 173 585 l 1,13,-1
 127 512 l 1,14,-1
 82 543 l 1,0,-1
EndSplineSet
EndChar

StartChar: plus
Encoding: 43 43 18
Width: 585
Flags: W
LayerCount: 2
Back
Fore
SplineSet
328 397 m 1,0,-1
 532 397 l 1,1,-1
 532 324 l 1,2,-1
 328 324 l 1,3,-1
 328 113 l 1,4,-1
 255 113 l 1,5,-1
 255 324 l 1,6,-1
 51 324 l 1,7,-1
 51 397 l 1,8,-1
 255 397 l 1,9,-1
 255 609 l 1,10,-1
 328 609 l 1,11,-1
 328 397 l 1,0,-1
EndSplineSet
EndChar

StartChar: comma
Encoding: 44 44 19
Width: 226
Flags: W
LayerCount: 2
Back
Fore
SplineSet
75 -99 m 1,0,-1
 99 6 l 1,1,-1
 62 6 l 1,2,-1
 62 131 l 1,3,-1
 164 131 l 1,4,-1
 164 6 l 1,5,-1
 128 -99 l 1,6,-1
 75 -99 l 1,0,-1
EndSplineSet
EndChar

StartChar: hyphen
Encoding: 45 45 20
Width: 431
Flags: W
LayerCount: 2
Back
Fore
SplineSet
62 229 m 1,0,-1
 62 331 l 1,1,-1
 369 331 l 1,2,-1
 369 229 l 1,3,-1
 62 229 l 1,0,-1
EndSplineSet
EndChar

StartChar: period
Encoding: 46 46 21
Width: 218
Flags: W
LayerCount: 2
Back
Fore
SplineSet
62 0 m 1,0,-1
 62 131 l 1,1,-1
 156 131 l 1,2,-1
 156 0 l 1,3,-1
 62 0 l 1,0,-1
EndSplineSet
EndChar

StartChar: slash
Encoding: 47 47 22
Width: 680
Flags: W
LayerCount: 2
Back
Fore
SplineSet
651 727 m 1,0,-1
 153 0 l 1,1,-1
 28 0 l 1,2,-1
 526 727 l 1,3,-1
 651 727 l 1,0,-1
EndSplineSet
EndChar

StartChar: zero
Encoding: 48 48 23
Width: 629
Flags: W
LayerCount: 2
Back
Fore
SplineSet
577 300 m 256,0,1
 577 165.76056338 577 165.76056338 501.5 77.5 c 0,2,3
 426.65060241 -10 426.65060241 -10 314 -10 c 0,4,5
 200.795180723 -10 200.795180723 -10 127 77.5 c 0,6,7
 52 166.428571429 52 166.428571429 52 300 c 256,8,9
 52 433.571428571 52 433.571428571 127 522.5 c 0,10,11
 201.638554217 611 201.638554217 611 314 611 c 0,12,13
 425.795180723 611 425.795180723 611 501.5 522.5 c 0,14,15
 577 434.23943662 577 434.23943662 577 300 c 256,0,1
462 300 m 256,16,17
 462 391.75 462 391.75 420 449.5 c 0,18,19
 378.181818182 507 378.181818182 507 314 507 c 0,20,21
 247.818181818 507 247.818181818 507 206 449.5 c 0,22,23
 165 393.125 165 393.125 165 300 c 256,24,25
 165 206.35 165 206.35 206 151 c 0,26,27
 248.222222222 94 248.222222222 94 314 94 c 0,28,29
 377.777777778 94 377.777777778 94 420 151 c 0,30,31
 462 207.7 462 207.7 462 300 c 256,16,17
EndSplineSet
EndChar

StartChar: one
Encoding: 49 49 24
Width: 482
Flags: W
LayerCount: 2
Back
Fore
SplineSet
458 101 m 1,0,-1
 458 0 l 1,1,-1
 67 0 l 1,2,-1
 67 101 l 1,3,-1
 212 101 l 1,4,-1
 212 459 l 1,5,6
 195.75990099 435.542079208 195.75990099 435.542079208 156.379950495 416.271039604 c 0,7,8
 86.347826087 382 86.347826087 382 46 382 c 1,9,-1
 46 487 l 1,10,11
 83.1212121212 487 83.1212121212 487 146 528.5 c 0,12,13
 171 545 171 545 190 561.5 c 128,-1,14
 209 578 209 578 212 585 c 1,15,-1
 328 585 l 1,16,-1
 328 101 l 1,17,-1
 458 101 l 1,0,-1
EndSplineSet
EndChar

StartChar: two
Encoding: 50 50 25
Width: 562
Flags: W
LayerCount: 2
Back
Fore
SplineSet
272 496 m 0,0,1
 189.538461538 496 189.538461538 496 121 415 c 1,2,-1
 49 498 l 1,3,4
 100.909090909 555.1 100.909090909 555.1 206 584 c 0,5,6
 246 595 246 595 294 595 c 128,-1,7
 342 595 342 595 381.5 582 c 128,-1,8
 421 569 421 569 448 546.5 c 0,9,10
 504 499.833333333 504 499.833333333 504 426 c 0,11,12
 504 360 504 360 450.5 306.5 c 0,13,14
 415.25 271.25 415.25 271.25 352 241 c 0,15,16
 331 230 331 230 303.5 216.5 c 128,-1,17
 276 203 276 203 250.5 185 c 0,18,19
 188.984802432 141.577507599 188.984802432 141.577507599 176 101 c 1,20,-1
 515 101 l 1,21,-1
 515 0 l 1,22,-1
 41 0 l 1,23,24
 41 92.7837837838 41 92.7837837838 73.5 149 c 0,25,26
 112.542480691 216.532939573 112.542480691 216.532939573 206 267 c 0,27,28
 242 287 242 287 273.5 303 c 128,-1,29
 305 319 305 319 329 335 c 0,30,31
 382 370.333333333 382 370.333333333 382 406.666666667 c 128,-1,32
 382 443 382 443 354 469.5 c 128,-1,33
 326 496 326 496 272 496 c 0,0,1
EndSplineSet
EndChar

StartChar: three
Encoding: 51 51 26
Width: 562
Flags: W
LayerCount: 2
Back
Fore
SplineSet
269 490 m 0,0,1
 161.642857143 490 161.642857143 490 114 403 c 1,2,-1
 43 480 l 1,3,4
 70.1616766467 528.502994012 70.1616766467 528.502994012 137.5 559.5 c 0,5,6
 203.75862069 590 203.75862069 590 267.379310345 590 c 128,-1,7
 331 590 331 590 372.5 576.5 c 128,-1,8
 414 563 414 563 444 539.5 c 0,9,10
 507 490.15 507 490.15 507 408 c 0,11,12
 507 348.484848485 507 348.484848485 471.5 299 c 0,13,14
 437.75308642 251.958847737 437.75308642 251.958847737 378 242 c 1,15,16
 442.624024961 229.88299532 442.624024961 229.88299532 481.5 180.5 c 0,17,18
 520 131.594594595 520 131.594594595 520 59 c 0,19,20
 520 -36 520 -36 451 -93.5 c 128,-1,21
 382 -151 382 -151 265 -151 c 0,22,23
 107.823529412 -151 107.823529412 -151 33 -45 c 1,24,-1
 101 33 l 1,25,26
 154.289473684 -48 154.289473684 -48 263 -48 c 0,27,28
 403 -48 403 -48 403 67 c 0,29,30
 403 126 403 126 362.5 160 c 128,-1,31
 322 194 322 194 242 194 c 2,32,-1
 214 194 l 1,33,-1
 214 282 l 1,34,-1
 245 282 l 2,35,36
 313 282 313 282 350 314 c 128,-1,37
 387 346 387 346 387 395 c 256,38,39
 387 444 387 444 354.5 467 c 128,-1,40
 322 490 322 490 269 490 c 0,0,1
EndSplineSet
EndChar

StartChar: four
Encoding: 52 52 27
Width: 578
Flags: W
LayerCount: 2
Back
Fore
SplineSet
337 -130 m 1,0,-1
 337 33 l 1,1,-1
 23 33 l 1,2,-1
 23 133 l 1,3,-1
 373 585 l 1,4,-1
 450 585 l 1,5,-1
 450 135 l 1,6,-1
 540 135 l 1,7,-1
 540 33 l 1,8,-1
 450 33 l 1,9,-1
 450 -130 l 1,10,-1
 337 -130 l 1,0,-1
137 135 m 1,11,-1
 349 135 l 1,12,-1
 349 413 l 1,13,-1
 137 135 l 1,11,-1
EndSplineSet
EndChar

StartChar: five
Encoding: 53 53 28
Width: 564
Flags: W
LayerCount: 2
Back
Fore
SplineSet
177 283 m 1,0,1
 216.789473684 325 216.789473684 325 292 325 c 0,2,3
 393.306451613 325 393.306451613 325 462.5 259 c 0,4,5
 530 194.615384615 530 194.615384615 530 91 c 0,6,7
 530 -15.8571428571 530 -15.8571428571 455 -85.5 c 0,8,9
 382.307692308 -153 382.307692308 -153 268 -153 c 0,10,11
 189 -153 189 -153 127 -117.5 c 128,-1,12
 65 -82 65 -82 32 -22 c 1,13,-1
 99 43 l 1,14,15
 128 0 128 0 173 -26.5 c 128,-1,16
 218 -53 218 -53 275.5 -53 c 128,-1,17
 333 -53 333 -53 374 -14 c 128,-1,18
 415 25 415 25 415 89 c 0,19,20
 415 148.594594595 415 148.594594595 374.5 188 c 0,21,22
 335.444444444 226 335.444444444 226 276 226 c 0,23,24
 192 226 192 226 148 160 c 1,25,-1
 49 160 l 1,26,27
 50 164 50 164 53.5 184.5 c 128,-1,28
 57 205 57 205 63.5 235.5 c 128,-1,29
 70 266 70 266 77 304 c 128,-1,30
 84 342 84 342 97.5 407 c 128,-1,31
 111 472 111 472 132 585 c 1,32,-1
 487 585 l 1,33,-1
 487 481 l 1,34,-1
 214 481 l 1,35,-1
 177 283 l 1,0,1
EndSplineSet
EndChar

StartChar: six
Encoding: 54 54 29
Width: 622
Flags: W
LayerCount: 2
Back
Fore
SplineSet
558.5 337.5 m 128,-1,1
 578 293 578 293 578 241 c 128,-1,2
 578 189 578 189 558 143 c 128,-1,3
 538 97 538 97 502.5 63 c 0,4,5
 426.279411765 -10 426.279411765 -10 315 -10 c 0,6,7
 194.108433735 -10 194.108433735 -10 122 75.5 c 0,8,9
 49 162.057142857 49 162.057142857 49 312 c 0,10,11
 49 514.111111111 49 514.111111111 125 626 c 0,12,13
 197 732 197 732 327 732 c 0,14,15
 396 732 396 732 454 700.5 c 128,-1,16
 512 669 512 669 548 610 c 1,17,-1
 481 541 l 1,18,19
 458 584 458 584 416.5 609 c 128,-1,20
 375 634 375 634 325 634 c 0,21,22
 248 634 248 634 202.5 569 c 128,-1,23
 157 504 157 504 155 386 c 1,24,25
 177 432 177 432 222 458.5 c 128,-1,26
 267 485 267 485 323 485 c 128,-1,27
 379 485 379 485 425 466 c 128,-1,28
 471 447 471 447 505 414.5 c 128,-1,0
 539 382 539 382 558.5 337.5 c 128,-1,1
315.5 86 m 0,29,30
 347 86 347 86 375 98.5 c 128,-1,31
 403 111 403 111 424 132.5 c 0,32,33
 470 179.595238095 470 179.595238095 470 242 c 0,34,35
 470 304 470 304 424 350 c 0,36,37
 379 395 379 395 315 395 c 128,-1,38
 251 395 251 395 206 350 c 128,-1,39
 161 305 161 305 161 242 c 0,40,41
 161 178.571428571 161 178.571428571 206 132.5 c 0,42,43
 251.418604651 86 251.418604651 86 315.5 86 c 0,29,30
EndSplineSet
EndChar

StartChar: seven
Encoding: 55 55 30
Width: 561
Flags: W
LayerCount: 2
Back
Fore
SplineSet
381 494 m 1,0,-1
 29 494 l 1,1,-1
 29 597 l 1,2,-1
 559 597 l 1,3,-1
 196 -130 l 1,4,-1
 68 -130 l 1,5,-1
 381 494 l 1,0,-1
EndSplineSet
EndChar

StartChar: eight
Encoding: 56 56 31
Width: 615
Flags: W
LayerCount: 2
Back
Fore
SplineSet
567 202 m 0,0,1
 567 161 567 161 546 120.5 c 128,-1,2
 525 80 525 80 489.5 51.5 c 0,3,4
 415.385964912 -8 415.385964912 -8 306 -8 c 0,5,6
 197.338983051 -8 197.338983051 -8 122 55.5 c 0,7,8
 47 118.714285714 47 118.714285714 47 215 c 0,9,10
 47 273.085714286 47 273.085714286 87.5 324 c 0,11,12
 120.064724919 364.938511327 120.064724919 364.938511327 173 389 c 1,13,14
 131 408 131 408 101.5 445.5 c 128,-1,15
 72 483 72 483 72 531 c 256,16,17
 72 618.910447761 72 618.910447761 148.5 676 c 0,18,19
 216.84 727 216.84 727 307 727 c 256,20,21
 396.387755102 727 396.387755102 727 467.5 676.5 c 0,22,23
 545 621.463768116 545 621.463768116 545 532 c 256,24,25
 545 484 545 484 514.5 446 c 128,-1,26
 484 408 484 408 441 389 c 1,27,28
 567 333.56 567 333.56 567 202 c 0,0,1
454 218 m 0,29,30
 454 247 454 247 441 270 c 128,-1,31
 428 293 428 293 407 309.5 c 0,32,33
 365.636363636 342 365.636363636 342 307 342 c 256,34,35
 247.606060606 342 247.606060606 342 207 308.5 c 0,36,37
 163 272.2 163 272.2 163 217 c 256,38,39
 163 160.902439024 163 160.902439024 208.5 126.5 c 0,40,41
 252.806451613 93 252.806451613 93 308 93 c 0,42,43
 363.65625 93 363.65625 93 408.5 128 c 0,44,45
 454 163.512195122 454 163.512195122 454 218 c 0,29,30
185 526.5 m 0,46,47
 185 503 185 503 196.5 484.5 c 128,-1,48
 208 466 208 466 225.5 453.5 c 0,49,50
 261.2 428 261.2 428 307 428 c 0,51,52
 355.5 428 355.5 428 390.5 454 c 0,53,54
 430 483.342857143 430 483.342857143 430 529 c 0,55,56
 430 573.294117647 430 573.294117647 393 600.5 c 0,57,58
 356.96 627 356.96 627 307 627 c 0,59,60
 259.4 627 259.4 627 222 599.5 c 0,61,62
 185 572.294117647 185 572.294117647 185 526.5 c 0,46,47
EndSplineSet
EndChar

StartChar: nine
Encoding: 57 57 32
Width: 603
Flags: W
LayerCount: 2
Back
Fore
SplineSet
54.5 237.5 m 128,-1,1
 35 282 35 282 35 333.5 c 128,-1,2
 35 385 35 385 55.5 431 c 128,-1,3
 76 477 76 477 111 511.5 c 0,4,5
 185.565217391 585 185.565217391 585 298 585 c 0,6,7
 419.421686747 585 419.421686747 585 490.5 499.5 c 0,8,9
 563 412.289855072 563 412.289855072 563 262 c 0,10,11
 563 60.1549295775 563 60.1549295775 487.5 -51.5 c 0,12,13
 415.485714286 -158 415.485714286 -158 286 -158 c 0,14,15
 216 -158 216 -158 158 -126 c 128,-1,16
 100 -94 100 -94 65 -36 c 1,17,-1
 131 34 l 1,18,19
 155 -9 155 -9 196.5 -34 c 128,-1,20
 238 -59 238 -59 288 -59 c 0,21,22
 365 -59 365 -59 410.5 6 c 128,-1,23
 456 71 456 71 458 188 c 1,24,25
 436 142 436 142 390.5 115.5 c 128,-1,26
 345 89 345 89 289 89 c 128,-1,27
 233 89 233 89 187 108 c 128,-1,28
 141 127 141 127 107.5 160 c 128,-1,0
 74 193 74 193 54.5 237.5 c 128,-1,1
297 488 m 256,29,30
 232.441860465 488 232.441860465 488 188 442.5 c 0,31,32
 142 395.404761905 142 395.404761905 142 333 c 256,33,34
 142 271 142 271 188 225 c 128,-1,35
 234 179 234 179 297 179 c 256,36,37
 360 179 360 179 406 225 c 128,-1,38
 452 271 452 271 452 333 c 256,39,40
 452 395.404761905 452 395.404761905 406 442.5 c 0,41,42
 361.558139535 488 361.558139535 488 297 488 c 256,29,30
EndSplineSet
EndChar

StartChar: colon
Encoding: 58 58 33
Width: 228
Flags: W
LayerCount: 2
Back
Fore
SplineSet
68 400 m 1,0,-1
 68 530 l 1,1,-1
 161 530 l 1,2,-1
 161 400 l 1,3,-1
 68 400 l 1,0,-1
68 0 m 1,4,-1
 68 131 l 1,5,-1
 161 131 l 1,6,-1
 161 0 l 1,7,-1
 68 0 l 1,4,-1
EndSplineSet
EndChar

StartChar: semicolon
Encoding: 59 59 34
Width: 245
Flags: W
LayerCount: 2
Back
Fore
SplineSet
73 400 m 1,0,-1
 73 530 l 1,1,-1
 165 530 l 1,2,-1
 165 400 l 1,3,-1
 73 400 l 1,0,-1
84 -99 m 1,4,-1
 109 6 l 1,5,-1
 72 6 l 1,6,-1
 72 131 l 1,7,-1
 173 131 l 1,8,-1
 173 6 l 1,9,-1
 137 -99 l 1,10,-1
 84 -99 l 1,4,-1
EndSplineSet
EndChar

StartChar: less
Encoding: 60 60 35
Width: 585
Flags: W
LayerCount: 2
Back
Fore
SplineSet
533 119 m 1,0,-1
 51 331 l 1,1,-1
 51 382 l 1,2,-1
 533 622 l 1,3,-1
 533 542 l 1,4,-1
 147 360 l 1,5,-1
 533 198 l 1,6,-1
 533 119 l 1,0,-1
EndSplineSet
EndChar

StartChar: equal
Encoding: 61 61 36
Width: 449
Flags: W
LayerCount: 2
Back
Fore
SplineSet
66 166 m 1,0,-1
 66 241 l 1,1,-1
 382 241 l 1,2,-1
 382 166 l 1,3,-1
 66 166 l 1,0,-1
66 325 m 1,4,-1
 66 399 l 1,5,-1
 382 399 l 1,6,-1
 382 325 l 1,7,-1
 66 325 l 1,4,-1
EndSplineSet
EndChar

StartChar: greater
Encoding: 62 62 37
Width: 585
Flags: W
LayerCount: 2
Back
Fore
SplineSet
51 198 m 1,0,-1
 437 359 l 1,1,-1
 51 542 l 1,2,-1
 51 622 l 1,3,-1
 533 382 l 1,4,-1
 533 331 l 1,5,-1
 51 119 l 1,6,-1
 51 198 l 1,0,-1
EndSplineSet
EndChar

StartChar: question
Encoding: 63 63 38
Width: 494
Flags: W
LayerCount: 2
Back
Fore
SplineSet
136 226 m 1,0,1
 136 280 136 280 154 320.5 c 128,-1,2
 172 361 172 361 221 391 c 0,3,4
 239 401 239 401 262.5 414 c 128,-1,5
 286 427 286 427 307.5 444.5 c 0,6,7
 358 485.604651163 358 485.604651163 358 541 c 0,8,9
 358 587.451612903 358 587.451612903 323.5 617.5 c 0,10,11
 293.074074074 644 293.074074074 644 246 644 c 0,12,13
 159.625 644 159.625 644 109 554 c 1,14,-1
 35 604 l 1,15,16
 62 668 62 668 120.5 702 c 128,-1,17
 179 736 179 736 249 736 c 0,18,19
 332.25 736 332.25 736 391 689 c 0,20,21
 457 636.2 457 636.2 457 537 c 0,22,23
 457 442.555555556 457 442.555555556 384.5 391 c 0,24,25
 362 375 362 375 339.5 362.5 c 128,-1,26
 317 350 317 350 298 338.5 c 128,-1,27
 279 327 279 327 264 311.5 c 0,28,29
 230 276.366666667 230 276.366666667 230 226 c 1,30,-1
 136 226 l 1,0,1
136 0 m 1,31,-1
 136 129 l 1,32,-1
 230 129 l 1,33,-1
 230 0 l 1,34,-1
 136 0 l 1,31,-1
EndSplineSet
EndChar

StartChar: at
Encoding: 64 64 39
Width: 863
Flags: W
LayerCount: 2
Back
Fore
SplineSet
593 -109 m 1,0,1
 504.85 -150 504.85 -150 422.425 -150 c 128,-1,2
 340 -150 340 -150 272.5 -121.5 c 128,-1,3
 205 -93 205 -93 154 -42 c 128,-1,4
 103 9 103 9 74 80 c 128,-1,5
 45 151 45 151 45 238 c 128,-1,6
 45 325 45 325 77 396 c 128,-1,7
 109 467 109 467 162 516 c 128,-1,8
 215 565 215 565 284.5 591 c 128,-1,9
 354 617 354 617 430 617 c 256,10,11
 586.787878788 617 586.787878788 617 695.5 514.5 c 0,12,13
 748 465 748 465 779 392 c 128,-1,14
 810 319 810 319 810 227 c 0,15,16
 810 99.7142857143 810 99.7142857143 758.5 33.5 c 0,17,18
 720 -16 720 -16 654 -16 c 0,19,20
 583.612903226 -16 583.612903226 -16 567.5 39.5 c 0,21,22
 563 55 563 55 561 72 c 1,23,24
 531 40 531 40 485.5 20 c 128,-1,25
 440 0 440 0 387 0 c 0,26,27
 311 0 311 0 271 40 c 128,-1,28
 231 80 231 80 231 141 c 0,29,30
 231 218.222222222 231 218.222222222 292 255.5 c 0,31,32
 343.545454545 287 343.545454545 287 413.106060606 287 c 128,-1,33
 482.666666667 287 482.666666667 287 544 264 c 1,34,35
 544 332.785714286 544 332.785714286 520 364.5 c 0,36,37
 490.864864865 403 490.864864865 403 414.614250614 403 c 128,-1,38
 338.363636364 403 338.363636364 403 284 357 c 1,39,-1
 261 419 l 1,40,41
 341.75 470 341.75 470 433 470 c 0,42,43
 544.393442623 470 544.393442623 470 586 399.5 c 0,44,45
 613 353.75 613 353.75 613 258 c 2,46,-1
 613 147 l 2,47,48
 613 93.4545454545 613 93.4545454545 620 73.7272727273 c 128,-1,49
 627 54 627 54 637 45.5 c 128,-1,50
 647 37 647 37 670 37 c 128,-1,51
 693 37 693 37 712 58 c 128,-1,52
 731 79 731 79 741.5 109 c 0,53,54
 760 161.857142857 760 161.857142857 760 231.928571429 c 128,-1,55
 760 302 760 302 735.5 364.5 c 128,-1,56
 711 427 711 427 667 472.5 c 128,-1,57
 623 518 623 518 561.5 544 c 128,-1,58
 500 570 500 570 427.5 570 c 128,-1,59
 355 570 355 570 294.5 545 c 128,-1,60
 234 520 234 520 189.5 475.5 c 0,61,62
 95 381 95 381 95 236 c 0,63,64
 95 93.8705882353 95 93.8705882353 184.5 -3 c 0,65,66
 275.967391304 -102 275.967391304 -102 418 -102 c 0,67,68
 494.666666667 -102 494.666666667 -102 577 -63 c 1,69,-1
 593 -109 l 1,0,1
393 61 m 128,-1,71
 436.111111111 61 436.111111111 61 477.555555556 80 c 128,-1,72
 519 99 519 99 531 122 c 128,-1,73
 543 145 543 145 543 170 c 2,74,-1
 543 209 l 1,75,76
 528 212 528 212 496.5 221 c 128,-1,77
 465 230 465 230 418.5 230 c 128,-1,78
 372 230 372 230 336.5 210.5 c 128,-1,79
 301 191 301 191 301 150 c 128,-1,80
 301 109 301 109 325.5 85 c 128,-1,70
 350 61 350 61 393 61 c 128,-1,71
EndSplineSet
EndChar

StartChar: A
Encoding: 65 65 40
Width: 691
Flags: W
LayerCount: 2
Back
Fore
SplineSet
296 727 m 1,0,-1
 396 727 l 1,1,-1
 683 0 l 1,2,-1
 562 0 l 1,3,-1
 485 198 l 1,4,-1
 205 198 l 1,5,-1
 129 0 l 1,6,-1
 7 0 l 1,7,-1
 296 727 l 1,0,-1
463 283 m 1,8,-1
 346 595 l 1,9,-1
 225 283 l 1,10,-1
 463 283 l 1,8,-1
EndSplineSet
EndChar

StartChar: B
Encoding: 66 66 41
Width: 691
Flags: W
LayerCount: 2
Back
Fore
SplineSet
429 0 m 2,0,-1
 82 0 l 1,1,-1
 82 727 l 1,2,-1
 457 727 l 2,3,4
 528.711538462 727 528.711538462 727 577.5 668 c 0,5,6
 623 612.976744186 623 612.976744186 623 550.488372093 c 128,-1,7
 623 488 623 488 595.5 441.5 c 128,-1,8
 568 395 568 395 518 373 c 1,9,10
 581 354 581 354 617 305.5 c 128,-1,11
 653 257 653 257 653 179.9 c 128,-1,12
 653 102.8 653 102.8 588.75 51.4 c 128,-1,13
 524.5 0 524.5 0 429 0 c 2,0,-1
536 208.5 m 0,14,15
 536 231 536 231 528 251.5 c 128,-1,16
 520 272 520 272 507.5 287.5 c 0,17,18
 479.677419355 322 479.677419355 322 436 322 c 2,19,-1
 197 322 l 1,20,-1
 197 99 l 1,21,-1
 429 99 l 2,22,23
 472 99 472 99 504.5 131.5 c 0,24,25
 536 163 536 163 536 208.5 c 0,14,15
197 628 m 1,26,-1
 197 414 l 1,27,-1
 408 414 l 2,28,29
 449 414 449 414 479 444 c 0,30,31
 508 473 508 473 508 520 c 128,-1,32
 508 567 508 567 481.5 597.5 c 128,-1,33
 455 628 455 628 414 628 c 2,34,-1
 197 628 l 1,26,-1
EndSplineSet
EndChar

StartChar: C
Encoding: 67 67 42
Width: 700
Flags: W
LayerCount: 2
Back
Fore
SplineSet
61.5 232 m 128,-1,1
 36 299 36 299 36 366.5 c 128,-1,2
 36 434 36 434 59.5 499 c 128,-1,3
 83 564 83 564 128.5 616 c 128,-1,4
 174 668 174 668 239.5 699.5 c 128,-1,5
 305 731 305 731 396 731 c 128,-1,6
 487 731 487 731 558 687 c 128,-1,7
 629 643 629 643 665 572 c 1,8,-1
 574 512 l 1,9,10
 533.52293578 601.049541284 533.52293578 601.049541284 437.5 622 c 0,11,12
 410 628 410 628 384 628 c 0,13,14
 276.710526316 628 276.710526316 628 211.5 544 c 0,15,16
 153 468.644067797 153 468.644067797 153 365 c 0,17,18
 153 254.936507937 153 254.936507937 218.5 178 c 0,19,20
 287.459459459 97 287.459459459 97 387 97 c 0,21,22
 479.955555556 97 479.955555556 97 544 162.5 c 0,23,24
 566 185 566 185 581 217 c 1,25,-1
 676 163 l 1,26,27
 641.25698324 83.8631284916 641.25698324 83.8631284916 555 37.5 c 0,28,29
 474.069767442 -6 474.069767442 -6 390.034883721 -6 c 128,-1,30
 306 -6 306 -6 242.5 26.5 c 128,-1,31
 179 59 179 59 133 112 c 128,-1,0
 87 165 87 165 61.5 232 c 128,-1,1
EndSplineSet
EndChar

StartChar: D
Encoding: 68 68 43
Width: 733
Flags: W
LayerCount: 2
Back
Fore
SplineSet
82 0 m 1,0,-1
 82 727 l 1,1,-1
 340 727 l 2,2,3
 508.757575758 727 508.757575758 727 604.5 620.5 c 0,4,5
 694 520.943820225 694 520.943820225 694 365 c 0,6,7
 694 198.630434783 694 198.630434783 598 99.5 c 0,8,9
 501.642105263 4.26325641456e-14 501.642105263 4.26325641456e-14 340 0 c 2,10,-1
 82 0 l 1,0,-1
578 365 m 256,11,12
 578 482.387096774 578 482.387096774 515 552.5 c 0,13,14
 448.956521739 626 448.956521739 626 340 626 c 2,15,-1
 197 626 l 1,16,-1
 197 101 l 1,17,-1
 340 101 l 2,18,19
 451.633802817 101 451.633802817 101 516.5 176.5 c 0,20,21
 578 248.081967213 578 248.081967213 578 365 c 256,11,12
EndSplineSet
EndChar

StartChar: E
Encoding: 69 69 44
Width: 617
Flags: W
LayerCount: 2
Back
Fore
SplineSet
581 101 m 1,0,-1
 581 0 l 1,1,-1
 82 0 l 1,2,-1
 82 727 l 1,3,-1
 571 727 l 1,4,-1
 571 626 l 1,5,-1
 197 626 l 1,6,-1
 197 419 l 1,7,-1
 521 419 l 1,8,-1
 521 324 l 1,9,-1
 197 324 l 1,10,-1
 197 101 l 1,11,-1
 581 101 l 1,0,-1
EndSplineSet
EndChar

StartChar: F
Encoding: 70 70 45
Width: 593
Flags: W
LayerCount: 2
Back
Fore
SplineSet
82 0 m 1,0,-1
 82 727 l 1,1,-1
 566 727 l 1,2,-1
 566 626 l 1,3,-1
 197 626 l 1,4,-1
 197 409 l 1,5,-1
 506 409 l 1,6,-1
 506 313 l 1,7,-1
 197 313 l 1,8,-1
 197 0 l 1,9,-1
 82 0 l 1,0,-1
EndSplineSet
EndChar

StartChar: G
Encoding: 71 71 46
Width: 736
Flags: W
LayerCount: 2
Back
Fore
SplineSet
388 98 m 0,0,1
 501.509090909 98 501.509090909 98 591 205 c 1,2,-1
 591 283 l 1,3,-1
 438 283 l 1,4,-1
 438 368 l 1,5,-1
 687 368 l 1,6,-1
 687 0 l 1,7,-1
 591 0 l 1,8,-1
 591 90 l 1,9,10
 499 -5 499 -5 379 -5 c 0,11,12
 306 -5 306 -5 243.5 25 c 128,-1,13
 181 55 181 55 135 106.5 c 128,-1,14
 89 158 89 158 63 225.5 c 128,-1,15
 37 293 37 293 37 366.5 c 128,-1,16
 37 440 37 440 63 506.5 c 128,-1,17
 89 573 89 573 135 623.5 c 128,-1,18
 181 674 181 674 244.5 703 c 128,-1,19
 308 732 308 732 383 732 c 0,20,21
 487 732 487 732 558 688.5 c 128,-1,22
 629 645 629 645 665 573 c 1,23,-1
 577 510 l 1,24,25
 547 569 547 569 494.5 599 c 128,-1,26
 442 629 442 629 385.5 629 c 128,-1,27
 329 629 329 629 287 607 c 128,-1,28
 245 585 245 585 215 548.5 c 0,29,30
 154 474.283333333 154 474.283333333 154 364 c 0,31,32
 154 252 154 252 220.5 176 c 0,33,34
 288.75 98 288.75 98 388 98 c 0,0,1
EndSplineSet
EndChar

StartChar: H
Encoding: 72 72 47
Width: 761
Flags: W
LayerCount: 2
Back
Fore
SplineSet
679 727 m 1,0,-1
 679 0 l 1,1,-1
 563 0 l 1,2,-1
 563 321 l 1,3,-1
 197 321 l 1,4,-1
 197 0 l 1,5,-1
 82 0 l 1,6,-1
 82 727 l 1,7,-1
 197 727 l 1,8,-1
 197 423 l 1,9,-1
 563 423 l 1,10,-1
 563 727 l 1,11,-1
 679 727 l 1,0,-1
EndSplineSet
EndChar

StartChar: I
Encoding: 73 73 48
Width: 279
Flags: W
LayerCount: 2
Back
Fore
SplineSet
82 0 m 1,0,-1
 82 727 l 1,1,-1
 197 727 l 1,2,-1
 197 0 l 1,3,-1
 82 0 l 1,0,-1
EndSplineSet
EndChar

StartChar: J
Encoding: 74 74 49
Width: 500
Flags: W
LayerCount: 2
Back
Fore
SplineSet
38 128 m 1,0,1
 55 116 55 116 89.5 104 c 128,-1,2
 124 92 124 92 169.5 92 c 128,-1,3
 215 92 215 92 243 109 c 128,-1,4
 271 126 271 126 286 159.5 c 0,5,6
 310 213.1 310 213.1 310 357 c 2,7,-1
 310 727 l 1,8,-1
 426 727 l 1,9,-1
 426 357 l 2,10,11
 426 274 426 274 418 206 c 128,-1,12
 410 138 410 138 383 90 c 0,13,14
 326.1875 -11 326.1875 -11 168 -11 c 0,15,16
 76 -11 76 -11 10 34 c 1,17,-1
 38 128 l 1,0,1
EndSplineSet
EndChar

StartChar: K
Encoding: 75 75 50
Width: 676
Flags: W
LayerCount: 2
Back
Fore
SplineSet
82 0 m 1,0,-1
 82 726 l 1,1,-1
 197 726 l 1,2,-1
 197 352 l 1,3,-1
 539 727 l 1,4,-1
 666 727 l 1,5,-1
 379 406 l 1,6,-1
 682 0 l 1,7,-1
 554 0 l 1,8,-1
 308 335 l 1,9,-1
 197 219 l 1,10,-1
 197 0 l 1,11,-1
 82 0 l 1,0,-1
EndSplineSet
EndChar

StartChar: L
Encoding: 76 76 51
Width: 598
Flags: W
LayerCount: 2
Back
Fore
SplineSet
82 0 m 1,0,-1
 82 727 l 1,1,-1
 197 727 l 1,2,-1
 197 101 l 1,3,-1
 587 101 l 1,4,-1
 587 0 l 1,5,-1
 82 0 l 1,0,-1
EndSplineSet
EndChar

StartChar: M
Encoding: 77 77 52
Width: 891
Flags: W
LayerCount: 2
Back
Fore
SplineSet
693 0 m 1,0,-1
 693 523 l 1,1,-1
 477 127 l 1,2,-1
 414 127 l 1,3,-1
 197 523 l 1,4,-1
 197 0 l 1,5,-1
 82 0 l 1,6,-1
 82 727 l 1,7,-1
 205 727 l 1,8,-1
 445 283 l 1,9,-1
 686 727 l 1,10,-1
 809 727 l 1,11,-1
 809 0 l 1,12,-1
 693 0 l 1,0,-1
EndSplineSet
EndChar

StartChar: N
Encoding: 78 78 53
Width: 785
Flags: W
LayerCount: 2
Back
Fore
SplineSet
197 512 m 1,0,-1
 197 0 l 1,1,-1
 82 0 l 1,2,-1
 82 727 l 1,3,-1
 172 727 l 1,4,-1
 588 203 l 1,5,-1
 588 726 l 1,6,-1
 703 726 l 1,7,-1
 703 0 l 1,8,-1
 608 0 l 1,9,-1
 197 512 l 1,0,-1
EndSplineSet
EndChar

StartChar: O
Encoding: 79 79 54
Width: 770
Flags: W
LayerCount: 2
Back
Fore
SplineSet
523 25 m 128,-1,1
 459 -5 459 -5 382.5 -5 c 128,-1,2
 306 -5 306 -5 242 26 c 128,-1,3
 178 57 178 57 132 109 c 128,-1,4
 86 161 86 161 61 227.5 c 128,-1,5
 36 294 36 294 36 365 c 128,-1,6
 36 436 36 436 62.5 502.5 c 128,-1,7
 89 569 89 569 135.5 620.5 c 128,-1,8
 182 672 182 672 246 702 c 128,-1,9
 310 732 310 732 387 732 c 128,-1,10
 464 732 464 732 528 700 c 128,-1,11
 592 668 592 668 637.5 615.5 c 128,-1,12
 683 563 683 563 708 497 c 128,-1,13
 733 431 733 431 733 360.5 c 128,-1,14
 733 290 733 290 707 223.5 c 128,-1,15
 681 157 681 157 634 106 c 128,-1,0
 587 55 587 55 523 25 c 128,-1,1
153 362.5 m 0,16,17
 153 312 153 312 169 264 c 128,-1,18
 185 216 185 216 215.5 179 c 0,19,20
 282.27027027 98 282.27027027 98 385 98 c 0,21,22
 488.684210526 98 488.684210526 98 555 182 c 0,23,24
 615 258 615 258 615 364 c 0,25,26
 615 472.704918033 615 472.704918033 552.5 547.5 c 0,27,28
 485.232876712 628 485.232876712 628 385 628 c 0,29,30
 281.297297297 628 281.297297297 628 214 545 c 0,31,32
 153 469.766666667 153 469.766666667 153 362.5 c 0,16,17
EndSplineSet
EndChar

StartChar: P
Encoding: 80 80 55
Width: 638
Flags: W
LayerCount: 2
Back
Fore
SplineSet
82 0 m 1,0,-1
 82 727 l 1,1,-1
 387 727 l 2,2,3
 481.727272727 727 481.727272727 727 549 653 c 0,4,5
 612 583.7 612 583.7 612 490 c 0,6,7
 612 394.275862069 612 394.275862069 552 326 c 0,8,9
 487.848484848 253 487.848484848 253 393 253 c 2,10,-1
 197 253 l 1,11,-1
 197 0 l 1,12,-1
 82 0 l 1,0,-1
197 354 m 1,13,-1
 386 354 l 2,14,15
 458.87755102 354 458.87755102 354 487.5 436.5 c 0,16,17
 496 461 496 461 496 491 c 128,-1,18
 496 521 496 521 486.5 545.5 c 128,-1,19
 477 570 477 570 460.5 588 c 0,20,21
 425.666666667 626 425.666666667 626 380 626 c 2,22,-1
 197 626 l 1,23,-1
 197 354 l 1,13,-1
EndSplineSet
EndChar

StartChar: Q
Encoding: 81 81 56
Width: 768
Flags: W
LayerCount: 2
Back
Fore
SplineSet
733 362 m 0,0,1
 733 216.543478261 733 216.543478261 636 109 c 1,2,-1
 731 0 l 1,3,-1
 621 0 l 1,4,-1
 573 53 l 1,5,6
 484.925925926 -5 484.925925926 -5 384 -5 c 0,7,8
 306 -5 306 -5 242 26.5 c 128,-1,9
 178 58 178 58 132 109.5 c 128,-1,10
 86 161 86 161 61 227.5 c 128,-1,11
 36 294 36 294 36 365 c 128,-1,12
 36 436 36 436 62.5 502.5 c 128,-1,13
 89 569 89 569 135.5 620.5 c 128,-1,14
 182 672 182 672 246 702 c 128,-1,15
 310 732 310 732 387 732 c 128,-1,16
 464 732 464 732 528 700 c 128,-1,17
 592 668 592 668 637.5 615.5 c 128,-1,18
 683 563 683 563 708 497 c 128,-1,19
 733 431 733 431 733 362 c 0,0,1
562 193 m 1,20,21
 615 261.703703704 615 261.703703704 615 364 c 0,22,23
 615 472.180327869 615 472.180327869 552.5 548 c 0,24,25
 485.72972973 629 485.72972973 629 385 629 c 0,26,27
 280.8 629 280.8 629 214 545.5 c 0,28,29
 153 469.25 153 469.25 153 364 c 0,30,31
 153 254.819672131 153 254.819672131 215.5 179 c 0,32,33
 282.27027027 98 282.27027027 98 385 98 c 0,34,35
 448.3125 98 448.3125 98 503 133 c 1,36,-1
 399 253 l 1,37,-1
 510 253 l 1,38,-1
 562 193 l 1,20,21
EndSplineSet
EndChar

StartChar: R
Encoding: 82 82 57
Width: 677
Flags: W
LayerCount: 2
Back
Fore
SplineSet
82 0 m 1,0,-1
 82 727 l 1,1,-1
 398 727 l 2,2,3
 492.727272727 727 492.727272727 727 560 653 c 0,4,5
 624 582.6 624 582.6 624 490 c 0,6,7
 624 418.351351351 624 418.351351351 584.5 357.5 c 0,8,9
 546.129146083 298.388143966 546.129146083 298.388143966 481 276 c 1,10,-1
 652 0 l 1,11,-1
 522 0 l 1,12,-1
 365 253 l 1,13,-1
 197 253 l 1,14,-1
 197 0 l 1,15,-1
 82 0 l 1,0,-1
197 354 m 1,16,-1
 397 354 l 2,17,18
 445.789473684 354 445.789473684 354 476 395 c 0,19,20
 507 437.071428571 507 437.071428571 507 490 c 0,21,22
 507 543.129032258 507 543.129032258 471.5 585.5 c 0,23,24
 437.567567568 626 437.567567568 626 391 626 c 2,25,-1
 197 626 l 1,26,-1
 197 354 l 1,16,-1
EndSplineSet
EndChar

StartChar: S
Encoding: 83 83 58
Width: 626
Flags: W
LayerCount: 2
Back
Fore
SplineSet
512 556 m 1,0,1
 471.447513812 600.607734807 471.447513812 600.607734807 379.5 622.5 c 0,2,3
 348 630 348 630 315 630 c 0,4,5
 243 630 243 630 208.5 603.5 c 128,-1,6
 174 577 174 577 174 529 c 0,7,8
 174 481.711111111 174 481.711111111 218.5 456 c 0,9,10
 248.866666667 438.454814815 248.866666667 438.454814815 328.933333333 418.727407407 c 128,-1,11
 409 399 409 399 453.5 383 c 128,-1,12
 498 367 498 367 528.5 343 c 0,13,14
 593 292.245901639 593 292.245901639 593 202 c 0,15,16
 593 96.3424657534 593 96.3424657534 514.5 41.5 c 0,17,18
 445.078431373 -7 445.078431373 -7 327 -7 c 0,19,20
 153.583333333 -7 153.583333333 -7 27 91 c 1,21,-1
 79 189 l 1,22,23
 132.344827586 135.655172414 132.344827586 135.655172414 248 106 c 0,24,25
 287 96 287 96 341.5 96 c 128,-1,26
 396 96 396 96 433 119.5 c 128,-1,27
 470 143 470 143 470 189 c 0,28,29
 470 238.62745098 470 238.62745098 416.5 268 c 0,30,31
 380.423295455 287.806818182 380.423295455 287.806818182 298.211647727 309.403409091 c 128,-1,32
 216 331 216 331 175.5 346.5 c 128,-1,33
 135 362 135 362 108.5 385 c 0,34,35
 54 432.301886792 54 432.301886792 54 511 c 0,36,37
 54 614.661971831 54 614.661971831 130.5 675 c 0,38,39
 202.767857143 732 202.767857143 732 318 732 c 0,40,41
 453.885714286 732 453.885714286 732 564 650 c 1,42,-1
 512 556 l 1,0,1
EndSplineSet
EndChar

StartChar: T
Encoding: 84 84 59
Width: 631
Flags: W
LayerCount: 2
Back
Fore
SplineSet
615 626 m 1,0,-1
 374 626 l 1,1,-1
 374 0 l 1,2,-1
 258 0 l 1,3,-1
 258 626 l 1,4,-1
 15 626 l 1,5,-1
 15 727 l 1,6,-1
 615 727 l 1,7,-1
 615 626 l 1,0,-1
EndSplineSet
EndChar

StartChar: U
Encoding: 85 85 60
Width: 770
Flags: W
LayerCount: 2
Back
Fore
SplineSet
290.5 120 m 0,0,1
 329 98 329 98 385.5 98 c 128,-1,2
 442 98 442 98 480 120.5 c 128,-1,3
 518 143 518 143 541 179.5 c 0,4,5
 584 247.739130435 584 247.739130435 584 358 c 2,6,-1
 584 727 l 1,7,-1
 699 727 l 1,8,-1
 699 358 l 2,9,10
 699 104.25 699 104.25 529 23.5 c 0,11,12
 469 -5 469 -5 383.5 -5 c 128,-1,13
 298 -5 298 -5 238 25 c 128,-1,14
 178 55 178 55 141 106 c 0,15,16
 72 201.108108108 72 201.108108108 72 358 c 2,17,-1
 72 727 l 1,18,-1
 186 727 l 1,19,-1
 186 358 l 2,20,21
 186 179.714285714 186 179.714285714 290.5 120 c 0,0,1
EndSplineSet
EndChar

StartChar: V
Encoding: 86 86 61
Width: 694
Flags: W
LayerCount: 2
Back
Fore
SplineSet
128 727 m 1,0,-1
 347 144 l 1,1,-1
 565 727 l 1,2,-1
 687 727 l 1,3,-1
 396 0 l 1,4,-1
 298 0 l 1,5,-1
 6 727 l 1,6,-1
 128 727 l 1,0,-1
EndSplineSet
EndChar

StartChar: W
Encoding: 87 87 62
Width: 1076
Flags: W
LayerCount: 2
Back
Fore
SplineSet
340 724 m 1,0,-1
 449 724 l 1,1,-1
 538 477 l 1,2,-1
 628 724 l 1,3,-1
 735 724 l 1,4,-1
 611 400 l 1,5,-1
 720 133 l 1,6,-1
 946 727 l 1,7,-1
 1072 727 l 1,8,-1
 772 0 l 1,9,-1
 674 0 l 1,10,-1
 539 326 l 1,11,-1
 402 0 l 1,12,-1
 304 0 l 1,13,-1
 4 727 l 1,14,-1
 129 727 l 1,15,-1
 356 133 l 1,16,-1
 465 400 l 1,17,-1
 340 724 l 1,0,-1
EndSplineSet
EndChar

StartChar: X
Encoding: 88 88 63
Width: 656
Flags: W
LayerCount: 2
Back
Fore
SplineSet
127 727 m 1,0,-1
 329 440 l 1,1,-1
 530 727 l 1,2,-1
 656 727 l 1,3,-1
 390 358 l 1,4,-1
 648 0 l 1,5,-1
 522 0 l 1,6,-1
 329 276 l 1,7,-1
 135 0 l 1,8,-1
 8 0 l 1,9,-1
 267 358 l 1,10,-1
 0 727 l 1,11,-1
 127 727 l 1,0,-1
EndSplineSet
EndChar

StartChar: Y
Encoding: 89 89 64
Width: 673
Flags: W
LayerCount: 2
Back
Fore
SplineSet
135 727 m 1,0,-1
 336 362 l 1,1,-1
 539 727 l 1,2,-1
 665 727 l 1,3,-1
 393 260 l 1,4,-1
 393 0 l 1,5,-1
 279 0 l 1,6,-1
 279 262 l 1,7,-1
 9 727 l 1,8,-1
 135 727 l 1,0,-1
EndSplineSet
EndChar

StartChar: Z
Encoding: 90 90 65
Width: 644
Flags: W
LayerCount: 2
Back
Fore
SplineSet
32 88 m 1,0,-1
 473 626 l 1,1,-1
 42 626 l 1,2,-1
 42 727 l 1,3,-1
 607 727 l 1,4,-1
 607 639 l 1,5,-1
 176 101 l 1,6,-1
 608 101 l 1,7,-1
 608 0 l 1,8,-1
 32 0 l 1,9,-1
 32 88 l 1,0,-1
EndSplineSet
EndChar

StartChar: bracketleft
Encoding: 91 91 66
Width: 299
Flags: W
LayerCount: 2
Back
Fore
SplineSet
85 -41 m 1,0,-1
 85 758 l 1,1,-1
 252 758 l 1,2,-1
 252 667 l 1,3,-1
 189 667 l 1,4,-1
 189 50 l 1,5,-1
 252 50 l 1,6,-1
 252 -41 l 1,7,-1
 85 -41 l 1,0,-1
EndSplineSet
EndChar

StartChar: backslash
Encoding: 92 92 67
Width: 627
Flags: W
LayerCount: 2
Back
Fore
SplineSet
154 727 m 1,0,-1
 599 0 l 1,1,-1
 474 0 l 1,2,-1
 28 727 l 1,3,-1
 154 727 l 1,0,-1
EndSplineSet
EndChar

StartChar: bracketright
Encoding: 93 93 68
Width: 299
Flags: W
LayerCount: 2
Back
Fore
SplineSet
47 -41 m 1,0,-1
 47 50 l 1,1,-1
 110 50 l 1,2,-1
 110 667 l 1,3,-1
 47 667 l 1,4,-1
 47 758 l 1,5,-1
 214 758 l 1,6,-1
 214 -41 l 1,7,-1
 47 -41 l 1,0,-1
EndSplineSet
EndChar

StartChar: asciicircum
Encoding: 94 94 69
Width: 583
Flags: W
LayerCount: 2
Back
Fore
SplineSet
42 310 m 1,0,-1
 245 727 l 1,1,-1
 339 727 l 1,2,-1
 541 310 l 1,3,-1
 446 310 l 1,4,-1
 292 630 l 1,5,-1
 134 310 l 1,6,-1
 42 310 l 1,0,-1
EndSplineSet
EndChar

StartChar: underscore
Encoding: 95 95 70
Width: 502
Flags: W
LayerCount: 2
Back
Fore
SplineSet
60 -101 m 1,0,-1
 60 0 l 1,1,-1
 441 0 l 1,2,-1
 441 -101 l 1,3,-1
 60 -101 l 1,0,-1
EndSplineSet
EndChar

StartChar: grave
Encoding: 96 96 71
Width: 249
Flags: W
LayerCount: 2
Back
Fore
SplineSet
48 748 m 1,0,-1
 156 748 l 1,1,-1
 214 635 l 1,2,-1
 142 612 l 1,3,-1
 48 748 l 1,0,-1
EndSplineSet
EndChar

StartChar: a
Encoding: 97 97 72
Width: 578
Flags: W
LayerCount: 2
Back
Fore
SplineSet
539 0 m 1,0,1
 510.666666667 -5 510.666666667 -5 482.833333333 -5 c 128,-1,2
 455 -5 455 -5 437 11.5 c 128,-1,3
 419 28 419 28 415 53 c 1,4,-1
 412 87 l 1,5,6
 376 40 376 40 323 15 c 128,-1,7
 270 -10 270 -10 220.5 -10 c 128,-1,8
 171 -10 171 -10 137.5 2.5 c 128,-1,9
 104 15 104 15 80 37.5 c 0,10,11
 29 85.3125 29 85.3125 29 158 c 0,12,13
 29 233.393442623 29 233.393442623 91.5 279.5 c 0,14,15
 155.888888889 327 155.888888889 327 242.98989899 327 c 128,-1,16
 330.090909091 327 330.090909091 327 396 302 c 1,17,-1
 396 339 l 2,18,19
 396 398 396 398 362.5 431.5 c 128,-1,20
 329 465 329 465 257.466666667 465 c 128,-1,21
 185.933333333 465 185.933333333 465 95 403 c 1,22,-1
 60 475 l 1,23,24
 164 545 164 545 275 545 c 256,25,26
 386 545 386 545 447.5 488.5 c 128,-1,27
 509 432 509 432 509 327 c 2,28,-1
 509 133 l 2,29,30
 509 97 509 97 539 96 c 1,31,-1
 539 0 l 1,0,1
396 239 m 1,32,33
 337.454545455 262 337.454545455 262 274.727272727 262 c 128,-1,34
 212 262 212 262 173.5 236 c 128,-1,35
 135 210 135 210 135 168.5 c 128,-1,36
 135 127 135 127 165 100 c 128,-1,37
 195 73 195 73 238.5 73 c 0,38,39
 331.444444444 73 331.444444444 73 375 129 c 1,40,41
 396 147 396 147 396 168 c 2,42,-1
 396 239 l 1,32,33
EndSplineSet
EndChar

StartChar: b
Encoding: 98 98 73
Width: 643
Flags: W
LayerCount: 2
Back
Fore
SplineSet
180 434 m 1,0,1
 249.647058824 545 249.647058824 545 372 545 c 0,2,3
 475.961038961 545 475.961038961 545 544 460.5 c 0,4,5
 609 379.774193548 609 379.774193548 609 265 c 0,6,7
 609 151.656716418 609 151.656716418 536.5 70.5 c 0,8,9
 464.586666667 -10 464.586666667 -10 356 -10 c 0,10,11
 295 -10 295 -10 245.5 19 c 128,-1,12
 196 48 196 48 167 97 c 1,13,-1
 167 0 l 1,14,-1
 68 0 l 1,15,-1
 68 748 l 1,16,-1
 180 748 l 1,17,-1
 180 434 l 1,0,1
334.5 86 m 0,18,19
 364 86 364 86 394.5 101 c 128,-1,20
 425 116 425 116 447 140.5 c 0,21,22
 494 192.840909091 494 192.840909091 494 265 c 256,23,24
 494 339.428571429 494 339.428571429 449 393 c 0,25,26
 401.96 449 401.96 449 335 449 c 0,27,28
 283 449 283 449 242.5 415 c 128,-1,29
 202 381 202 381 180 333 c 1,30,-1
 180 191 l 1,31,32
 191.141742523 148.289986996 191.141742523 148.289986996 237.5 115.5 c 0,33,34
 279.206896552 86 279.206896552 86 334.5 86 c 0,18,19
EndSplineSet
EndChar

StartChar: c
Encoding: 99 99 74
Width: 572
Flags: W
LayerCount: 2
Back
Fore
SplineSet
53 162 m 128,-1,1
 33 212 33 212 33 268.5 c 128,-1,2
 33 325 33 325 52.5 375 c 128,-1,3
 72 425 72 425 108 463 c 0,4,5
 185.684210526 545 185.684210526 545 310 545 c 0,6,7
 393 545 393 545 453 508.5 c 128,-1,8
 513 472 513 472 543 412 c 1,9,-1
 433 377 l 1,10,11
 414 411 414 411 381 430 c 128,-1,12
 348 449 348 449 311 449 c 128,-1,13
 274 449 274 449 245 435.5 c 128,-1,14
 216 422 216 422 194.5 398 c 0,15,16
 148 346.093023256 148 346.093023256 148 268 c 0,17,18
 148 191.954545455 148 191.954545455 196 138.5 c 0,19,20
 243.142857143 86 243.142857143 86 309 86 c 0,21,22
 372 86 372 86 417 131 c 0,23,24
 430 144 430 144 436 160 c 1,25,-1
 547 127 l 1,26,27
 520 67 520 67 457.5 28.5 c 128,-1,28
 395 -10 395 -10 321.5 -10 c 128,-1,29
 248 -10 248 -10 196.5 12.5 c 128,-1,30
 145 35 145 35 109 73.5 c 128,-1,0
 73 112 73 112 53 162 c 128,-1,1
EndSplineSet
EndChar

StartChar: d
Encoding: 100 100 75
Width: 652
Flags: W
LayerCount: 2
Back
Fore
SplineSet
607 0 m 1,0,1
 578.666666667 -5 578.666666667 -5 552.833333333 -5 c 128,-1,2
 527 -5 527 -5 505.5 12.5 c 128,-1,3
 484 30 484 30 482 57 c 2,4,-1
 480 97 l 1,5,6
 451 47 451 47 399.5 18.5 c 128,-1,7
 348 -10 348 -10 289.5 -10 c 128,-1,8
 231 -10 231 -10 185 12 c 128,-1,9
 139 34 139 34 105.5 72 c 0,10,11
 34 153.104477612 34 153.104477612 34 269 c 0,12,13
 34 382.25 34 382.25 102 463 c 0,14,15
 171.052631579 545 171.052631579 545 273 545 c 0,16,17
 338 545 338 545 387 513.5 c 128,-1,18
 436 482 436 482 464 434 c 1,19,-1
 464 748 l 1,20,-1
 577 748 l 1,21,-1
 577 133 l 2,22,23
 577 114 577 114 583.5 105.5 c 128,-1,24
 590 97 590 97 607 96 c 1,25,-1
 607 0 l 1,0,1
250.5 100.5 m 128,-1,27
 280 86 280 86 309 86 c 128,-1,28
 338 86 338 86 362.5 94 c 128,-1,29
 387 102 387 102 407.5 116.5 c 0,30,31
 452.312093628 148.196358908 452.312093628 148.196358908 464 193 c 1,32,-1
 464 333 l 1,33,34
 446.011306533 382.968592965 446.011306533 382.968592965 399.5 416.5 c 0,35,36
 354.419354839 449 354.419354839 449 312.709677419 449 c 128,-1,37
 271 449 271 449 243 433.5 c 128,-1,38
 215 418 215 418 194.5 392.5 c 0,39,40
 151 338.390243902 151 338.390243902 151 266 c 0,41,42
 151 191.222222222 151 191.222222222 198.5 139.5 c 0,43,26
 221 115 221 115 250.5 100.5 c 128,-1,27
EndSplineSet
EndChar

StartChar: e
Encoding: 101 101 76
Width: 609
Flags: W
LayerCount: 2
Back
Fore
SplineSet
585 271 m 0,0,1
 585 254 585 254 582 230 c 1,2,-1
 153 230 l 1,3,4
 159.008486563 159.900990099 159.008486563 159.900990099 205 116 c 0,5,6
 250.047619048 73 250.047619048 73 314 73 c 0,7,8
 389.096774194 73 389.096774194 73 432 120.5 c 0,9,10
 446 136 446 136 455 155 c 1,11,-1
 551 127 l 1,12,13
 523 67 523 67 459 28.5 c 128,-1,14
 395 -10 395 -10 321.5 -10 c 128,-1,15
 248 -10 248 -10 196.5 12 c 128,-1,16
 145 34 145 34 109 72 c 0,17,18
 33 152.222222222 33 152.222222222 33 266 c 0,19,20
 33 381.222222222 33 381.222222222 109 462.5 c 0,21,22
 186.142857143 545 186.142857143 545 311 545 c 256,23,24
 431.8 545 431.8 545 511 462.5 c 0,25,26
 585 385.416666667 585 385.416666667 585 271 c 0,0,1
473 308 m 1,27,28
 467.024590164 375.721311475 467.024590164 375.721311475 420.5 419 c 0,29,30
 374.275 462 374.275 462 310 462 c 0,31,32
 246.725 462 246.725 462 200.5 419 c 0,33,34
 156.154247392 377.748137109 156.154247392 377.748137109 150 308 c 1,35,-1
 473 308 l 1,27,28
EndSplineSet
EndChar

StartChar: f
Encoding: 102 102 77
Width: 365
Flags: W
LayerCount: 2
Back
Fore
SplineSet
370 641 m 1,0,1
 330.888888889 663 330.888888889 663 291.944444444 663 c 128,-1,2
 253 663 253 663 232 633 c 128,-1,3
 211 603 211 603 211 547 c 2,4,-1
 211 522 l 1,5,-1
 348 522 l 1,6,-1
 348 435 l 1,7,-1
 211 435 l 1,8,-1
 211 0 l 1,9,-1
 98 0 l 1,10,-1
 98 435 l 1,11,-1
 27 435 l 1,12,-1
 27 522 l 1,13,-1
 98 522 l 1,14,-1
 98 544 l 2,15,16
 98 643 98 643 144 700.5 c 128,-1,17
 190 758 190 758 269 758 c 0,18,19
 332.4 758 332.4 758 394 725 c 1,20,-1
 370 641 l 1,0,1
EndSplineSet
EndChar

StartChar: g
Encoding: 103 103 78
Width: 644
Flags: W
LayerCount: 2
Back
Fore
SplineSet
280 -5 m 256,0,1
 172.052631579 -5 172.052631579 -5 103 77 c 0,2,3
 35 157.75 35 157.75 35 267 c 0,4,5
 35 383.307692308 35 383.307692308 104.5 463.5 c 0,6,7
 175.133333333 545 175.133333333 545 284 545 c 0,8,9
 348 545 348 545 396.5 514 c 128,-1,10
 445 483 445 483 477 434 c 1,11,-1
 477 536 l 1,12,-1
 577 536 l 1,13,-1
 577 15 l 2,14,15
 577 -97.8181818182 577 -97.8181818182 495.5 -164.5 c 0,16,17
 417.888888889 -228 417.888888889 -228 292 -228 c 0,18,19
 203 -228 203 -228 144 -198 c 128,-1,20
 85 -168 85 -168 45 -114 c 1,21,-1
 109 -54 l 1,22,23
 139 -97 139 -97 188 -119.5 c 128,-1,24
 237 -142 237 -142 282 -142 c 128,-1,25
 327 -142 327 -142 358 -133 c 128,-1,26
 389 -124 389 -124 412.5 -104.5 c 0,27,28
 464 -61.7659574468 464 -61.7659574468 464 15 c 2,29,-1
 464 97 l 1,30,31
 435 48 435 48 385 21.5 c 128,-1,32
 335 -5 335 -5 280 -5 c 256,0,1
250.5 100.5 m 128,-1,34
 281 86 281 86 311.5 86 c 128,-1,35
 342 86 342 86 365.5 94.5 c 128,-1,36
 389 103 389 103 409 118 c 0,37,38
 452.428571429 150.571428571 452.428571429 150.571428571 464 193 c 1,39,-1
 464 333 l 1,40,41
 443.986486486 383.033783784 443.986486486 383.033783784 400 415.5 c 0,42,43
 354.612903226 449 354.612903226 449 312.806451613 449 c 128,-1,44
 271 449 271 449 242 433 c 128,-1,45
 213 417 213 417 192.5 391 c 0,46,47
 150 337.097560976 150 337.097560976 150 264 c 0,48,49
 150 189.666666667 150 189.666666667 197.5 139 c 0,50,33
 220 115 220 115 250.5 100.5 c 128,-1,34
EndSplineSet
EndChar

StartChar: h
Encoding: 104 104 79
Width: 611
Flags: W
LayerCount: 2
Back
Fore
SplineSet
435 300 m 2,0,1
 435 444 435 444 334 444 c 0,2,3
 285.235294118 444 285.235294118 444 242 409 c 0,4,5
 195.168141593 371.088495575 195.168141593 371.088495575 180 318 c 1,6,-1
 180 0 l 1,7,-1
 68 0 l 1,8,-1
 68 748 l 1,9,-1
 180 748 l 1,10,-1
 180 428 l 1,11,12
 211 483 211 483 263.5 514 c 128,-1,13
 316 545 316 545 372.5 545 c 128,-1,14
 429 545 429 545 461.5 527 c 128,-1,15
 494 509 494 509 513 479.5 c 0,16,17
 548 425.157894737 548 425.157894737 548 327 c 2,18,-1
 548 0 l 1,19,-1
 435 0 l 1,20,-1
 435 300 l 2,0,1
EndSplineSet
EndChar

StartChar: i
Encoding: 105 105 80
Width: 248
Flags: W
LayerCount: 2
Back
Fore
SplineSet
68 0 m 1,0,-1
 68 536 l 1,1,-1
 180 536 l 1,2,-1
 180 0 l 1,3,-1
 68 0 l 1,0,-1
68 624 m 1,4,-1
 68 748 l 1,5,-1
 180 748 l 1,6,-1
 180 624 l 1,7,-1
 68 624 l 1,4,-1
EndSplineSet
EndChar

StartChar: j
Encoding: 106 106 81
Width: 254
Flags: W
LayerCount: 2
Back
Fore
SplineSet
-68 -74 m 1,0,1
 -41.1666666667 -97 -41.1666666667 -97 -6.58333333333 -97 c 128,-1,2
 28 -97 28 -97 51 -75 c 128,-1,3
 74 -53 74 -53 74 -19 c 2,4,-1
 74 536 l 1,5,-1
 186 536 l 1,6,-1
 186 -11 l 2,7,8
 186 -92.4375 186 -92.4375 135 -144.5 c 0,9,10
 84.5510204082 -196 84.5510204082 -196 11 -196 c 0,11,12
 -64 -196 -64 -196 -118 -150 c 1,13,-1
 -68 -74 l 1,0,1
74 624 m 1,14,-1
 74 748 l 1,15,-1
 186 748 l 1,16,-1
 186 624 l 1,17,-1
 74 624 l 1,14,-1
EndSplineSet
EndChar

StartChar: k
Encoding: 107 107 82
Width: 561
Flags: W
LayerCount: 2
Back
Fore
SplineSet
440 0 m 1,0,-1
 269 247 l 1,1,-1
 180 163 l 1,2,-1
 180 0 l 1,3,-1
 68 0 l 1,4,-1
 68 748 l 1,5,-1
 180 748 l 1,6,-1
 180 273 l 1,7,-1
 426 535 l 1,8,-1
 549 535 l 1,9,-1
 341 310 l 1,10,-1
 560 0 l 1,11,-1
 440 0 l 1,0,-1
EndSplineSet
EndChar

StartChar: l
Encoding: 108 108 83
Width: 308
Flags: W
LayerCount: 2
Back
Fore
SplineSet
310 16 m 1,0,1
 257.636363636 -8 257.636363636 -8 195.318181818 -8 c 128,-1,2
 133 -8 133 -8 101 23.5 c 128,-1,3
 69 55 69 55 69 114 c 2,4,-1
 69 748 l 1,5,-1
 181 748 l 1,6,-1
 181 155 l 2,7,8
 181 125 181 125 196.5 108 c 128,-1,9
 212 91 212 91 236.1 91 c 128,-1,10
 260.2 91 260.2 91 294 104 c 1,11,-1
 310 16 l 1,0,1
EndSplineSet
EndChar

StartChar: m
Encoding: 109 109 84
Width: 949
Flags: W
LayerCount: 2
Back
Fore
SplineSet
726 545 m 0,0,1
 887 545 887 545 887 327 c 2,2,-1
 887 0 l 1,3,-1
 774 0 l 1,4,-1
 774 300 l 2,5,6
 774 444 774 444 678 444 c 0,7,8
 630 444 630 444 590.5 409 c 128,-1,9
 551 374 551 374 534 317 c 1,10,-1
 534 0 l 1,11,-1
 421 0 l 1,12,-1
 421 300 l 2,13,14
 421 444 421 444 326 444 c 0,15,16
 278 444 278 444 238 409.5 c 128,-1,17
 198 375 198 375 180 318 c 1,18,-1
 180 0 l 1,19,-1
 68 0 l 1,20,-1
 68 536 l 1,21,-1
 170 536 l 1,22,-1
 170 428 l 1,23,24
 202 484 202 484 253.5 514.5 c 128,-1,25
 305 545 305 545 371.5 545 c 128,-1,26
 438 545 438 545 476.5 510 c 128,-1,27
 515 475 515 475 524 423 c 1,28,29
 594.305084746 545 594.305084746 545 726 545 c 0,0,1
EndSplineSet
EndChar

StartChar: n
Encoding: 110 110 85
Width: 611
Flags: W
LayerCount: 2
Back
Fore
SplineSet
548 0 m 1,0,-1
 435 0 l 1,1,-1
 435 300 l 2,2,3
 435 376 435 376 411 410 c 128,-1,4
 387 444 387 444 340 444 c 0,5,6
 261.434782609 444 261.434782609 444 206 369 c 0,7,8
 189 346 189 346 180 318 c 1,9,-1
 180 0 l 1,10,-1
 68 0 l 1,11,-1
 68 536 l 1,12,-1
 170 536 l 1,13,-1
 170 428 l 1,14,15
 201 482 201 482 259 513.5 c 128,-1,16
 317 545 317 545 376.5 545 c 128,-1,17
 436 545 436 545 467 527.5 c 128,-1,18
 498 510 498 510 516 480 c 0,19,20
 548 426.666666667 548 426.666666667 548 327 c 2,21,-1
 548 0 l 1,0,-1
EndSplineSet
EndChar

StartChar: o
Encoding: 111 111 86
Width: 616
Flags: W
LayerCount: 2
Back
Fore
SplineSet
308 -10 m 256,0,1
 185.039473684 -10 185.039473684 -10 107.5 73 c 0,2,3
 33 152.746478873 33 152.746478873 33 267 c 0,4,5
 33 382.833333333 33 382.833333333 108 462 c 0,6,7
 186.631578947 545 186.631578947 545 308 545 c 0,8,9
 428.776315789 545 428.776315789 545 508.5 462 c 0,10,11
 584 383.397260274 584 383.397260274 584 267 c 0,12,13
 584 151.602739726 584 151.602739726 508.5 73 c 0,14,15
 428.776315789 -10 428.776315789 -10 308 -10 c 256,0,1
148 265.5 m 0,16,17
 148 227 148 227 160.5 194.5 c 128,-1,18
 173 162 173 162 194.5 138 c 0,19,20
 241.083333333 86 241.083333333 86 308 86 c 256,21,22
 375.428571429 86 375.428571429 86 421.5 138.5 c 0,23,24
 468 191.488372093 468 191.488372093 468 267 c 0,25,26
 468 343.511627907 468 343.511627907 421.5 396.5 c 0,27,28
 375.428571429 449 375.428571429 449 308 449 c 0,29,30
 242.448979592 449 242.448979592 449 195.5 395.5 c 0,31,32
 148 341.372093023 148 341.372093023 148 265.5 c 0,16,17
EndSplineSet
EndChar

StartChar: p
Encoding: 112 112 87
Width: 643
Flags: W
LayerCount: 2
Back
Fore
SplineSet
365.5 -10 m 0,0,1
 307 -10 307 -10 258 20.5 c 128,-1,2
 209 51 209 51 180 100 c 1,3,-1
 180 -218 l 1,4,-1
 68 -218 l 1,5,-1
 68 536 l 1,6,-1
 167 536 l 1,7,-1
 167 439 l 1,8,9
 198 487 198 487 246.5 516 c 128,-1,10
 295 545 295 545 353.5 545 c 128,-1,11
 412 545 412 545 458 522.5 c 128,-1,12
 504 500 504 500 537.5 462 c 0,13,14
 609 380.895522388 609 380.895522388 609 268 c 0,15,16
 609 150.666666667 609 150.666666667 542.5 71.5 c 0,17,18
 474.04 -10 474.04 -10 365.5 -10 c 0,0,1
340.5 86 m 0,19,20
 371 86 371 86 400 101.5 c 128,-1,21
 429 117 429 117 450 142.5 c 0,22,23
 494 195.928571429 494 195.928571429 494 268 c 0,24,25
 494 342.045454545 494 342.045454545 446 395.5 c 128,-1,26
 397.959183673 449 397.959183673 449 327 449 c 0,27,28
 282.034482759 449 282.034482759 449 237.5 417.5 c 0,29,30
 190.821846554 384.483745124 190.821846554 384.483745124 180 343 c 1,31,-1
 180 203 l 1,32,33
 200.101449275 152.746376812 200.101449275 152.746376812 243 119.5 c 0,34,35
 286.225806452 86 286.225806452 86 340.5 86 c 0,19,20
EndSplineSet
EndChar

StartChar: q
Encoding: 113 113 88
Width: 643
Flags: W
LayerCount: 2
Back
Fore
SplineSet
463 100 m 1,0,1
 397 -10 397 -10 271 -10 c 0,2,3
 168.710526316 -10 168.710526316 -10 101 73 c 0,4,5
 35 153.903225806 35 153.903225806 35 268 c 0,6,7
 35 382.895522388 35 382.895522388 106.5 464 c 128,-1,8
 177.907894737 545 177.907894737 545 287 545 c 0,9,10
 348 545 348 545 397 515 c 128,-1,11
 446 485 446 485 476 438 c 1,12,-1
 476 536 l 1,13,-1
 575 536 l 1,14,-1
 575 -80 l 2,15,16
 575 -99 575 -99 583 -107 c 128,-1,17
 591 -115 591 -115 608 -117 c 1,18,-1
 608 -213 l 1,19,20
 578 -217 578 -217 545.5 -217 c 128,-1,21
 513 -217 513 -217 488 -193.5 c 128,-1,22
 463 -170 463 -170 463 -135 c 2,23,-1
 463 100 l 1,0,1
312 86 m 0,24,25
 405.045454545 86 405.045454545 86 463 188 c 1,26,-1
 463 330 l 1,27,28
 453.200471698 377.037735849 453.200471698 377.037735849 406 413 c 128,-1,29
 358.75 449 358.75 449 317.375 449 c 128,-1,30
 276 449 276 449 246.5 433.5 c 128,-1,31
 217 418 217 418 195.5 392.5 c 0,32,33
 150 338.534883721 150 338.534883721 150 265 c 0,34,35
 150 189.790697674 150 189.790697674 195.5 139 c 0,36,37
 242.979166667 86 242.979166667 86 312 86 c 0,24,25
EndSplineSet
EndChar

StartChar: r
Encoding: 114 114 89
Width: 383
Flags: W
LayerCount: 2
Back
Fore
SplineSet
369 438 m 1,0,1
 303 436 303 436 252.5 408 c 128,-1,2
 202 380 202 380 180 328 c 1,3,-1
 180 0 l 1,4,-1
 68 0 l 1,5,-1
 68 536 l 1,6,-1
 172 536 l 1,7,-1
 172 416 l 1,8,9
 200 471 200 471 244.5 504.5 c 128,-1,10
 289 538 289 538 340 541 c 1,11,12
 357 541 l 2,13,14
 364 541 364 541 369 540 c 1,15,-1
 369 438 l 1,0,1
EndSplineSet
EndChar

StartChar: s
Encoding: 115 115 90
Width: 508
Flags: W
LayerCount: 2
Back
Fore
SplineSet
69 142 m 1,0,1
 167.823529412 72 167.823529412 72 260 72 c 0,2,3
 310 72 310 72 339.5 91.5 c 128,-1,4
 369 111 369 111 369 145.5 c 128,-1,5
 369 180 369 180 336 195.5 c 128,-1,6
 303 211 303 211 243 227 c 128,-1,7
 183 243 183 243 147.5 255 c 128,-1,8
 112 267 112 267 89.5 283.5 c 0,9,10
 46 315.4 46 315.4 46 374 c 0,11,12
 46 452.857142857 46 452.857142857 106 500 c 0,13,14
 163.272727273 545 163.272727273 545 254 545 c 0,15,16
 375.657142857 545 375.657142857 545 460 473 c 1,17,-1
 412 406 l 1,18,19
 337 465 337 465 253 465 c 0,20,21
 210 465 210 465 181 447 c 128,-1,22
 152 429 152 429 152 390 c 0,23,24
 152 358.111111111 152 358.111111111 177.5 343 c 0,25,26
 192.104089219 334.345724907 192.104089219 334.345724907 268 313 c 0,27,28
 381.39071257 286.198558847 381.39071257 286.198558847 427 255.5 c 0,29,30
 477 221.846153846 477 221.846153846 477 150.423076923 c 128,-1,31
 477 79 477 79 419 34.5 c 128,-1,32
 361 -10 361 -10 262 -10 c 0,33,34
 198 -10 198 -10 134 11 c 128,-1,35
 70 32 70 32 24 71 c 1,36,-1
 69 142 l 1,0,1
EndSplineSet
EndChar

StartChar: t
Encoding: 116 116 91
Width: 376
Flags: W
LayerCount: 2
Back
Fore
SplineSet
265 95 m 0,0,1
 298 95 298 95 342 117 c 1,2,-1
 366 28 l 1,3,4
 294 -8 294 -8 225 -8 c 0,5,6
 135.630434783 -8 135.630434783 -8 105.5 58 c 0,7,8
 95 81 95 81 95 114 c 2,9,-1
 95 449 l 1,10,-1
 25 449 l 1,11,-1
 25 536 l 1,12,-1
 95 536 l 1,13,-1
 95 712 l 1,14,-1
 208 712 l 1,15,-1
 208 536 l 1,16,-1
 325 536 l 1,17,-1
 325 449 l 1,18,-1
 208 449 l 1,19,-1
 208 150 l 1,20,21
 211.793103448 95 211.793103448 95 265 95 c 0,0,1
EndSplineSet
EndChar

StartChar: u
Encoding: 117 117 92
Width: 624
Flags: W
LayerCount: 2
Back
Fore
SplineSet
579 0 m 1,0,1
 549 -5 549 -5 523.5 -5 c 128,-1,2
 498 -5 498 -5 476.5 12 c 128,-1,3
 455 29 455 29 454 55 c 2,4,-1
 452 109 l 1,5,6
 416 50 416 50 358.5 20 c 128,-1,7
 301 -10 301 -10 232 -10 c 0,8,9
 62 -10 62 -10 62 208 c 2,10,-1
 62 536 l 1,11,-1
 175 536 l 1,12,-1
 175 230 l 2,13,14
 175 86 175 86 278 86 c 0,15,16
 326 86 326 86 369 115.5 c 128,-1,17
 412 145 412 145 435 202 c 1,18,-1
 435 536 l 1,19,-1
 548 536 l 1,20,-1
 548 133 l 2,21,22
 548 114 548 114 554.5 105.5 c 128,-1,23
 561 97 561 97 579 96 c 1,24,-1
 579 0 l 1,0,1
EndSplineSet
EndChar

StartChar: v
Encoding: 118 118 93
Width: 556
Flags: W
LayerCount: 2
Back
Fore
SplineSet
218 0 m 1,0,-1
 13 536 l 1,1,-1
 129 536 l 1,2,-1
 283 95 l 1,3,-1
 437 536 l 1,4,-1
 544 536 l 1,5,-1
 339 0 l 1,6,-1
 218 0 l 1,0,-1
EndSplineSet
EndChar

StartChar: w
Encoding: 119 119 94
Width: 850
Flags: W
LayerCount: 2
Back
Fore
SplineSet
735 536 m 1,0,-1
 843 536 l 1,1,-1
 617 0 l 1,2,-1
 524 0 l 1,3,-1
 425 249 l 1,4,-1
 326 0 l 1,5,-1
 232 0 l 1,6,-1
 6 536 l 1,7,-1
 114 536 l 1,8,-1
 287 109 l 1,9,-1
 365 307 l 1,10,-1
 271 535 l 1,11,-1
 364 535 l 1,12,-1
 425 367 l 1,13,-1
 485 535 l 1,14,-1
 578 535 l 1,15,-1
 485 307 l 1,16,-1
 563 109 l 1,17,-1
 735 536 l 1,0,-1
EndSplineSet
EndChar

StartChar: x
Encoding: 120 120 95
Width: 535
Flags: W
LayerCount: 2
Back
Fore
SplineSet
127 536 m 1,0,-1
 258 352 l 1,1,-1
 267 335 l 1,2,-1
 276 352 l 1,3,-1
 407 536 l 1,4,-1
 524 536 l 1,5,-1
 329 267 l 1,6,-1
 526 0 l 1,7,-1
 409 0 l 1,8,-1
 276 182 l 1,9,-1
 267 199 l 1,10,-1
 258 182 l 1,11,-1
 126 0 l 1,12,-1
 8 0 l 1,13,-1
 206 267 l 1,14,-1
 10 536 l 1,15,-1
 127 536 l 1,0,-1
EndSplineSet
EndChar

StartChar: y
Encoding: 121 121 96
Width: 560
Flags: W
LayerCount: 2
Back
Fore
SplineSet
141 -232 m 0,0,1
 111.6 -232 111.6 -232 86 -224 c 1,2,-1
 86 -126 l 1,3,4
 121 -133 121 -133 137.5 -133 c 128,-1,5
 154 -133 154 -133 163.5 -127.5 c 128,-1,6
 173 -122 173 -122 183.5 -107.5 c 0,7,8
 200.138461538 -84.5230769231 200.138461538 -84.5230769231 229 0 c 1,9,-1
 9 536 l 1,10,-1
 125 536 l 1,11,-1
 291 99 l 1,12,-1
 438 536 l 1,13,-1
 545 536 l 1,14,-1
 302 -124 l 2,15,16
 286 -170 286 -170 245.5 -201 c 128,-1,17
 205 -232 205 -232 141 -232 c 0,0,1
EndSplineSet
EndChar

StartChar: z
Encoding: 122 122 97
Width: 505
Flags: W
LayerCount: 2
Back
Fore
SplineSet
29 71 m 1,0,-1
 350 456 l 1,1,-1
 40 456 l 1,2,-1
 40 536 l 1,3,-1
 469 536 l 1,4,-1
 469 465 l 1,5,-1
 150 80 l 1,6,-1
 472 80 l 1,7,-1
 472 0 l 1,8,-1
 29 0 l 1,9,-1
 29 71 l 1,0,-1
EndSplineSet
EndChar

StartChar: braceleft
Encoding: 123 123 98
Width: 300
Flags: W
LayerCount: 2
Back
Fore
SplineSet
162 369 m 1,0,1
 195 336 195 336 195 300 c 2,2,-1
 195 59 l 1,3,-1
 251 59 l 1,4,-1
 251 -32 l 1,5,-1
 116 -32 l 2,6,7
 109 -32 109 -32 100.5 -25 c 128,-1,8
 92 -18 92 -18 92 -1 c 2,9,-1
 92 265 l 2,10,11
 92 290 92 290 79 308 c 128,-1,12
 66 326 66 326 45 330 c 1,13,-1
 45 410 l 1,14,15
 75.1363636364 410 75.1363636364 410 88.5 452 c 0,16,17
 92 463 92 463 92 472 c 2,18,-1
 92 727 l 2,19,20
 92 746 92 746 101.5 752 c 128,-1,21
 111 758 111 758 116 758 c 2,22,-1
 251 758 l 1,23,-1
 251 667 l 1,24,-1
 195 667 l 1,25,-1
 195 437 l 2,26,27
 195 397.875 195 397.875 162 369 c 1,0,1
EndSplineSet
EndChar

StartChar: bar
Encoding: 124 124 99
Width: 262
Flags: W
LayerCount: 2
Back
Fore
SplineSet
83 -133 m 1,0,-1
 83 794 l 1,1,-1
 179 794 l 1,2,-1
 179 -133 l 1,3,-1
 83 -133 l 1,0,-1
EndSplineSet
EndChar

StartChar: braceright
Encoding: 125 125 100
Width: 300
Flags: W
LayerCount: 2
Back
Fore
SplineSet
138 369 m 1,0,1
 106 397 106 397 106 437 c 2,2,-1
 106 667 l 1,3,-1
 50 667 l 1,4,-1
 50 758 l 1,5,-1
 184 758 l 2,6,7
 189 758 189 758 198.5 752 c 128,-1,8
 208 746 208 746 208 727 c 2,9,-1
 208 472 l 2,10,11
 208 450.5 208 450.5 217 436.25 c 0,12,13
 233.578947368 410 233.578947368 410 255 410 c 1,14,-1
 255 330 l 1,15,16
 234 326 234 326 221 308 c 128,-1,17
 208 290 208 290 208 265 c 2,18,-1
 208 -1 l 2,19,20
 208 -18 208 -18 199.5 -25 c 128,-1,21
 191 -32 191 -32 184 -32 c 2,22,-1
 50 -32 l 1,23,-1
 50 59 l 1,24,-1
 106 59 l 1,25,-1
 106 300 l 2,26,27
 106 339 106 339 138 369 c 1,0,1
EndSplineSet
EndChar

StartChar: asciitilde
Encoding: 126 126 101
Width: 562
Flags: W
LayerCount: 2
Back
Fore
SplineSet
69 265.5 m 128,-1,1
 76 286 76 286 91 307.5 c 0,2,3
 129.023255814 362 129.023255814 362 193 362 c 0,4,5
 229.80952381 362 229.80952381 362 283.5 334.5 c 0,6,7
 304 324 304 324 324 315 c 128,-1,8
 344 306 344 306 365.5 306 c 128,-1,9
 387 306 387 306 401 314 c 128,-1,10
 415 322 415 322 423 331 c 0,11,12
 437 346.75 437 346.75 437 358 c 1,13,-1
 502 358 l 1,14,15
 502 354 502 354 495 334.5 c 128,-1,16
 488 315 488 315 472.5 293.5 c 0,17,18
 432.488372093 238 432.488372093 238 366 238 c 0,19,20
 326.19047619 238 326.19047619 238 272.5 265.5 c 0,21,22
 252 276 252 276 232 285 c 128,-1,23
 212 294 212 294 191.5 294 c 128,-1,24
 171 294 171 294 158.5 285 c 128,-1,25
 146 276 146 276 138.5 266 c 0,26,27
 126 249.333333333 126 249.333333333 126 238 c 1,28,-1
 62 238 l 1,29,0
 62 245 62 245 69 265.5 c 128,-1,1
EndSplineSet
EndChar

StartChar: exclamdown
Encoding: 161 161 103
Width: 289
Flags: W
LayerCount: 2
Back
Fore
SplineSet
201 471 m 1,0,-1
 201 -4 l 1,1,-1
 88 -4 l 1,2,-1
 88 471 l 1,3,-1
 201 471 l 1,0,-1
201 730 m 1,4,-1
 201 590 l 1,5,-1
 88 590 l 1,6,-1
 88 730 l 1,7,-1
 201 730 l 1,4,-1
EndSplineSet
EndChar

StartChar: cent
Encoding: 162 162 104
Width: 594
Flags: W
LayerCount: 2
Back
Fore
SplineSet
283 -123 m 1,0,-1
 283 -9 l 1,1,2
 179.401869159 -1.32606438214 179.401869159 -1.32606438214 109.5 83 c 0,3,4
 42 164.428571429 42 164.428571429 42 264 c 0,5,6
 42 370.426229508 42 370.426229508 105.5 448.5 c 0,7,8
 172.307672699 530.640581188 172.307672699 530.640581188 283 544 c 1,9,-1
 283 660 l 1,10,-1
 336 660 l 1,11,-1
 336 544 l 1,12,13
 410 542 410 542 465 507.5 c 128,-1,14
 520 473 520 473 552 412 c 1,15,-1
 443 377 l 1,16,17
 407.758823529 439.650980392 407.758823529 439.650980392 336 444 c 1,18,-1
 336 89 l 1,19,20
 394.853503185 96.847133758 394.853503185 96.847133758 429.5 133 c 0,21,22
 441 145 441 145 446 160 c 1,23,-1
 556 127 l 1,24,25
 529.801470588 63.375 529.801470588 63.375 458 24 c 0,26,27
 396 -10 396 -10 336 -10 c 1,28,-1
 336 -123 l 1,29,-1
 283 -123 l 1,0,-1
158 264.5 m 0,30,31
 158 234 158 234 167 206 c 128,-1,32
 176 178 176 178 192.5 155.5 c 0,33,34
 229.13559322 105.542372881 229.13559322 105.542372881 283 94 c 1,35,-1
 283 440 l 1,36,37
 226.670588235 430.611764706 226.670588235 430.611764706 190.5 378 c 0,38,39
 158 330.727272727 158 330.727272727 158 264.5 c 0,30,31
EndSplineSet
EndChar

StartChar: sterling
Encoding: 163 163 105
Width: 541
Flags: W
LayerCount: 2
Back
Fore
SplineSet
169 272 m 0,0,1
 169 287 169 287 167 301 c 1,2,-1
 56 301 l 1,3,-1
 56 387 l 1,4,-1
 138 387 l 1,5,6
 118 428 118 428 98 468 c 128,-1,7
 78 508 78 508 78 549 c 128,-1,8
 78 590 78 590 94 622.5 c 128,-1,9
 110 655 110 655 137.5 680 c 0,10,11
 194.7 732 194.7 732 281 732 c 0,12,13
 340 732 340 732 393 703.5 c 128,-1,14
 446 675 446 675 482 625 c 1,15,-1
 422 555 l 1,16,17
 397 594 397 594 357 617 c 128,-1,18
 317 640 317 640 276.5 640 c 128,-1,19
 236 640 236 640 208 612.5 c 128,-1,20
 180 585 180 585 180 543 c 0,21,22
 180 512.444444444 180 512.444444444 195.5 479.722222222 c 128,-1,23
 211 447 211 447 221.5 428 c 128,-1,24
 232 409 232 409 242 387 c 1,25,-1
 428 387 l 1,26,-1
 428 301 l 1,27,-1
 265 301 l 1,28,29
 267 289 267 289 267 278 c 0,30,31
 267 229 267 229 245.5 185.5 c 128,-1,32
 224 142 224 142 173 88 c 1,33,34
 219.2 99 219.2 99 254.1 99 c 128,-1,35
 289 99 289 99 322 90 c 128,-1,36
 355 81 355 81 388.5 81 c 128,-1,37
 422 81 422 81 473 98 c 1,38,-1
 501 14 l 1,39,40
 447.142857143 -15 447.142857143 -15 385 -15 c 0,41,42
 349.727272727 -15 349.727272727 -15 310.863636364 -5.5 c 0,43,44
 239.272727273 12 239.272727273 12 192.96969697 12 c 128,-1,45
 146.666666667 12 146.666666667 12 80 -8 c 1,46,-1
 53 73 l 1,47,48
 115 127 115 127 142 175 c 128,-1,49
 169 223 169 223 169 272 c 0,0,1
EndSplineSet
EndChar

StartChar: currency
Encoding: 164 164 106
Width: 558
Flags: W
LayerCount: 2
Back
Fore
SplineSet
121 236 m 1,0,1
 87 282 87 282 87 345 c 128,-1,2
 87 408 87 408 120 455 c 1,3,-1
 48 527 l 1,4,-1
 96 575 l 1,5,-1
 169 503 l 1,6,7
 217.4 536 217.4 536 277.9 536 c 128,-1,8
 338.4 536 338.4 536 389 503 c 1,9,-1
 461 575 l 1,10,-1
 510 527 l 1,11,-1
 437 456 l 1,12,13
 471 408 471 408 471 346 c 128,-1,14
 471 284 471 284 436 234 c 1,15,-1
 510 163 l 1,16,-1
 466 120 l 1,17,-1
 391 189 l 1,18,19
 342.6 156 342.6 156 279.6 156 c 128,-1,20
 216.6 156 216.6 156 166 189 c 1,21,-1
 91 120 l 1,22,-1
 48 163 l 1,23,-1
 121 236 l 1,0,1
279.629032258 229 m 128,-1,25
 324 229 324 229 354 262.5 c 128,-1,26
 384 296 384 296 384 346 c 256,27,28
 384 396 384 396 354 428.5 c 128,-1,29
 324 461 324 461 280 461 c 256,30,31
 236 461 236 461 205.5 428 c 128,-1,32
 175 395 175 395 175 345.357142857 c 128,-1,33
 175 295.714285714 175 295.714285714 205.129032258 262.357142857 c 128,-1,24
 235.258064516 229 235.258064516 229 279.629032258 229 c 128,-1,25
EndSplineSet
EndChar

StartChar: yen
Encoding: 165 165 107
Width: 716
Flags: W
LayerCount: 2
Back
Fore
SplineSet
489 398 m 1,0,-1
 568 398 l 1,1,-1
 568 324 l 1,2,-1
 450 324 l 1,3,-1
 414 260 l 1,4,-1
 414 230 l 1,5,-1
 569 230 l 1,6,-1
 569 156 l 1,7,-1
 414 156 l 1,8,-1
 414 0 l 1,9,-1
 298 0 l 1,10,-1
 298 156 l 1,11,-1
 144 156 l 1,12,-1
 144 230 l 1,13,-1
 298 230 l 1,14,-1
 298 262 l 1,15,-1
 264 324 l 1,16,-1
 144 324 l 1,17,-1
 144 398 l 1,18,-1
 225 398 l 1,19,-1
 30 727 l 1,20,-1
 156 727 l 1,21,-1
 356 362 l 1,22,-1
 559 727 l 1,23,-1
 685 727 l 1,24,-1
 489 398 l 1,0,-1
EndSplineSet
EndChar

StartChar: brokenbar
Encoding: 166 166 108
Width: 264
Flags: W
LayerCount: 2
Back
Fore
SplineSet
180 275 m 1,0,-1
 180 -133 l 1,1,-1
 84 -133 l 1,2,-1
 84 275 l 1,3,-1
 180 275 l 1,0,-1
180 794 m 1,4,-1
 180 385 l 1,5,-1
 84 385 l 1,6,-1
 84 794 l 1,7,-1
 180 794 l 1,4,-1
EndSplineSet
EndChar

StartChar: section
Encoding: 167 167 109
Width: 537
Flags: W
LayerCount: 2
Back
Fore
SplineSet
458.5 378 m 128,-1,1
 478 346 478 346 478 294.166666667 c 128,-1,2
 478 242.333333333 478 242.333333333 454 213 c 1,3,4
 494 181.888888889 494 181.888888889 494 108 c 0,5,6
 494 11.7538461538 494 11.7538461538 418.5 -44 c 0,7,8
 356.208333333 -90 356.208333333 -90 273 -90 c 0,9,10
 152.266666667 -90 152.266666667 -90 58 11 c 1,11,-1
 131 81 l 1,12,13
 193.117647059 17 193.117647059 17 268 17 c 0,14,15
 310.857142857 17 310.857142857 17 343 39.5 c 0,16,17
 377 63.3 377 63.3 377 103 c 0,18,19
 377 157.942857143 377 157.942857143 312.5 169 c 0,20,21
 295 172 295 172 278 173 c 0,22,23
 181 179 181 179 125.5 224.5 c 128,-1,24
 70 270 70 270 70 349 c 0,25,26
 70 398.75 70 398.75 92 429 c 1,27,28
 75 443 75 443 60.5 473.5 c 128,-1,29
 46 504 46 504 46 544 c 128,-1,30
 46 584 46 584 63 618 c 128,-1,31
 80 652 80 652 109 677 c 0,32,33
 172.8 732 172.8 732 256 732 c 0,34,35
 365.829268293 732 365.829268293 732 433 655.5 c 0,36,37
 451 635 451 635 464 616 c 1,38,-1
 377 575 l 1,39,40
 343.586206897 632 343.586206897 632 263 632 c 0,41,42
 220.818181818 632 220.818181818 632 190.5 609 c 128,-1,43
 160 585.862068966 160 585.862068966 160 543.431034483 c 128,-1,44
 160 501 160 501 189.5 485 c 128,-1,45
 219 469 219 469 260 468 c 128,-1,46
 301 467 301 467 339.5 458.5 c 128,-1,47
 378 450 378 450 408.5 430 c 128,-1,0
 439 410 439 410 458.5 378 c 128,-1,1
200 388 m 1,48,49
 179 371.2 179 371.2 179 334.6 c 128,-1,50
 179 298 179 298 198 282 c 128,-1,51
 217 266 217 266 244 259.5 c 128,-1,52
 271 253 271 253 300 251 c 128,-1,53
 329 249 329 249 348 242 c 1,54,55
 359 250 359 250 365.5 266 c 128,-1,56
 372 282 372 282 372 301.5 c 128,-1,57
 372 321 372 321 361.5 335.5 c 128,-1,58
 351 350 351 350 336 359.5 c 0,59,60
 308.368421053 377 308.368421053 377 266.284210526 377 c 128,-1,61
 224.2 377 224.2 377 200 388 c 1,48,49
EndSplineSet
EndChar

StartChar: dieresis
Encoding: 168 168 110
Width: 421
Flags: W
LayerCount: 2
Back
Fore
SplineSet
73 630 m 1,0,-1
 73 742 l 1,1,-1
 167 742 l 1,2,-1
 167 630 l 1,3,-1
 73 630 l 1,0,-1
254 630 m 1,4,-1
 254 742 l 1,5,-1
 348 742 l 1,6,-1
 348 630 l 1,7,-1
 254 630 l 1,4,-1
EndSplineSet
EndChar

StartChar: copyright
Encoding: 169 169 111
Width: 858
Flags: W
LayerCount: 2
Back
Fore
SplineSet
580.5 21 m 128,-1,1
 510 -7 510 -7 427.5 -7 c 128,-1,2
 345 -7 345 -7 275 21 c 128,-1,3
 205 49 205 49 154 98.5 c 128,-1,4
 103 148 103 148 74.5 216 c 128,-1,5
 46 284 46 284 46 363 c 128,-1,6
 46 442 46 442 74.5 510 c 128,-1,7
 103 578 103 578 154 627 c 128,-1,8
 205 676 205 676 275 704 c 128,-1,9
 345 732 345 732 427.5 732 c 128,-1,10
 510 732 510 732 580.5 704 c 128,-1,11
 651 676 651 676 703 627 c 128,-1,12
 755 578 755 578 784 510 c 128,-1,13
 813 442 813 442 813 363 c 128,-1,14
 813 284 813 284 784 216 c 128,-1,15
 755 148 755 148 703 98.5 c 128,-1,0
 651 49 651 49 580.5 21 c 128,-1,1
294 63 m 128,-1,17
 355 38 355 38 426.5 38 c 128,-1,18
 498 38 498 38 560 61.5 c 128,-1,19
 622 85 622 85 667 128 c 0,20,21
 764 220.688888889 764 220.688888889 764 361 c 0,22,23
 764 500.133333333 764 500.133333333 668 594 c 0,24,25
 572.886363636 687 572.886363636 687 427 687 c 0,26,27
 282.556818182 687 282.556818182 687 188.5 594 c 0,28,29
 94 500.561797753 94 500.561797753 94 362 c 0,30,31
 94 294 94 294 119 234.5 c 128,-1,32
 144 175 144 175 188.5 131.5 c 128,-1,16
 233 88 233 88 294 63 c 128,-1,17
539 446 m 1,33,34
 505.842105263 509 505.842105263 509 431 509 c 0,35,36
 371.25 509 371.25 509 333 464 c 0,37,38
 299 424 299 424 299 364 c 0,39,40
 299 296.736842105 299 296.736842105 342 256 c 0,41,42
 382.111111111 218 382.111111111 218 433 218 c 0,43,44
 465 218 465 218 496.5 235 c 128,-1,45
 528 252 528 252 543 283 c 1,46,-1
 652 250 l 1,47,48
 630.270833333 197.85 630.270833333 197.85 575.5 162 c 0,49,50
 514.388888889 122 514.388888889 122 435 122 c 0,51,52
 328.25 122 328.25 122 256 190 c 0,53,54
 184 257.764705882 184 257.764705882 184 364 c 0,55,56
 184 461.442622951 184 461.442622951 245.5 530 c 0,57,58
 313.676470588 606 313.676470588 606 431 606 c 0,59,60
 508 606 508 606 564.5 573 c 128,-1,61
 621 540 621 540 647 481 c 1,62,-1
 539 446 l 1,33,34
EndSplineSet
EndChar

StartChar: ordfeminine
Encoding: 170 170 112
Width: 452
Flags: W
LayerCount: 2
Back
Fore
SplineSet
303 417 m 1,0,1
 252.242424242 350 252.242424242 350 167 350 c 0,2,3
 116.4 350 116.4 350 79 383 c 0,4,5
 44 413.882352941 44 413.882352941 44 465 c 256,6,7
 44 544.054545455 44 544.054545455 135.5 574 c 0,8,9
 163 583 163 583 206.5 583 c 128,-1,10
 250 583 250 583 289 566 c 1,11,-1
 289 589 l 2,12,13
 289 627 289 627 268 648 c 128,-1,14
 247 669 247 669 200.275 669 c 128,-1,15
 153.55 669 153.55 669 90 628 c 1,16,-1
 63 682 l 1,17,18
 135 729 135 729 212.5 729 c 128,-1,19
 290 729 290 729 332.5 690.5 c 128,-1,20
 375 652 375 652 375 579 c 2,21,-1
 375 458 l 2,22,23
 375 432 375 432 398 431 c 1,24,-1
 398 356 l 1,25,26
 378 352 378 352 356.5 352 c 128,-1,27
 335 352 335 352 321 363.5 c 128,-1,28
 307 375 307 375 304 395 c 1,29,-1
 303 417 l 1,0,1
289 518 m 1,30,31
 257.5 532 257.5 532 215.25 532 c 128,-1,32
 173 532 173 532 149 515.5 c 128,-1,33
 125 499 125 499 125 473 c 128,-1,34
 125 447 125 447 144 430.5 c 128,-1,35
 163 414 163 414 190 414 c 0,36,37
 246.4 414 246.4 414 275 447 c 0,38,39
 289 458 289 458 289 474 c 2,40,-1
 289 518 l 1,30,31
EndSplineSet
EndChar

StartChar: guillemotleft
Encoding: 171 171 113
Width: 636
Flags: W
LayerCount: 2
Back
Fore
SplineSet
39 291 m 1,0,-1
 303 480 l 1,1,-1
 303 387 l 1,2,-1
 129 265 l 1,3,-1
 303 147 l 1,4,-1
 303 55 l 1,5,-1
 39 234 l 1,6,-1
 39 291 l 1,0,-1
310 291 m 1,7,-1
 575 480 l 1,8,-1
 575 387 l 1,9,-1
 400 265 l 1,10,-1
 575 147 l 1,11,-1
 575 55 l 1,12,-1
 310 234 l 1,13,-1
 310 291 l 1,7,-1
EndSplineSet
EndChar

StartChar: logicalnot
Encoding: 172 172 114
Width: 615
Flags: W
LayerCount: 2
Back
Fore
SplineSet
546 396 m 1,0,-1
 546 116 l 1,1,-1
 450 116 l 1,2,-1
 450 295 l 1,3,-1
 65 295 l 1,4,-1
 65 396 l 1,5,-1
 546 396 l 1,0,-1
EndSplineSet
EndChar

StartChar: uni00AD
Encoding: 173 173 115
Width: 606
Flags: W
LayerCount: 2
Back
Fore
SplineSet
62 229 m 1,0,-1
 62 331 l 1,1,-1
 544 331 l 1,2,-1
 544 229 l 1,3,-1
 62 229 l 1,0,-1
EndSplineSet
EndChar

StartChar: registered
Encoding: 174 174 116
Width: 858
Flags: W
LayerCount: 2
Back
Fore
SplineSet
428 -7 m 256,0,1
 264.262626263 -7 264.262626263 -7 154.5 98.5 c 0,2,3
 46 202.786407767 46 202.786407767 46 364 c 0,4,5
 46 442 46 442 74.5 510 c 128,-1,6
 103 578 103 578 154.5 627 c 0,7,8
 264.857142857 732 264.857142857 732 428 732 c 256,9,10
 591.571428571 732 591.571428571 732 703 627 c 0,11,12
 755 578 755 578 784 510 c 128,-1,13
 813 442 813 442 813 363 c 128,-1,14
 813 284 813 284 784 216 c 128,-1,15
 755 148 755 148 703 98.5 c 0,16,17
 592.171717172 -7 592.171717172 -7 428 -7 c 256,0,1
427 37 m 0,18,19
 499 37 499 37 560 60.5 c 128,-1,20
 621 84 621 84 666.5 127 c 0,21,22
 763 218.197802198 763 218.197802198 763 362 c 0,23,24
 763 501.666666667 763 501.666666667 668 593.5 c 0,25,26
 571.275862069 687 571.275862069 687 428 687 c 0,27,28
 285.149425287 687 285.149425287 687 189.5 593.5 c 0,29,30
 96 502.101123596 96 502.101123596 96 364 c 0,31,32
 96 223.449438202 96 223.449438202 189.5 131 c 0,33,34
 284.568181818 37 284.568181818 37 427 37 c 0,18,19
266 591 m 1,35,-1
 464 591 l 2,36,37
 524.095238095 591 524.095238095 591 565.5 544 c 0,38,39
 605 499.162162162 605 499.162162162 605 447.581081081 c 128,-1,40
 605 396 605 396 580 359.5 c 128,-1,41
 555 323 555 323 514 309 c 1,42,-1
 624 136 l 1,43,-1
 532 136 l 1,44,-1
 432 295 l 1,45,-1
 347 295 l 1,46,-1
 347 136 l 1,47,-1
 266 136 l 1,48,-1
 266 591 l 1,35,-1
459 366 m 2,49,50
 490 366 490 366 507.5 387 c 128,-1,51
 525 408 525 408 525 443 c 128,-1,52
 525 478 525 478 505 498 c 128,-1,53
 485 518 485 518 456 518 c 2,54,-1
 347 518 l 1,55,-1
 347 366 l 1,56,-1
 459 366 l 2,49,50
EndSplineSet
EndChar

StartChar: macron
Encoding: 175 175 117
Width: 421
Flags: W
LayerCount: 2
Back
Fore
SplineSet
59 659 m 1,0,-1
 59 731 l 1,1,-1
 362 731 l 1,2,-1
 362 659 l 1,3,-1
 59 659 l 1,0,-1
EndSplineSet
EndChar

StartChar: degree
Encoding: 176 176 118
Width: 285
Flags: W
LayerCount: 2
Back
Fore
SplineSet
72.5 574.5 m 128,-1,1
 45 603 45 603 45 645 c 128,-1,2
 45 687 45 687 72.5 714 c 128,-1,3
 100 741 100 741 142.5 741 c 128,-1,4
 185 741 185 741 212.5 714 c 128,-1,5
 240 687 240 687 240 644 c 128,-1,6
 240 601 240 601 212.5 573.5 c 128,-1,7
 185 546 185 546 142.5 546 c 128,-1,0
 100 546 100 546 72.5 574.5 c 128,-1,1
114 615 m 0,8,9
 124 603 124 603 142.315789474 603 c 128,-1,10
 160.631578947 603 160.631578947 603 171.815789474 615.5 c 128,-1,11
 183 628 183 628 183 643 c 128,-1,12
 183 658 183 658 172.416666667 671 c 128,-1,13
 161.833333333 684 161.833333333 684 143.416666667 684 c 128,-1,14
 125 684 125 684 113 671 c 128,-1,15
 101 658 101 658 101 643 c 128,-1,16
 101 628 101 628 114 615 c 0,8,9
EndSplineSet
EndChar

StartChar: acute
Encoding: 180 180 120
Width: 249
Flags: W
LayerCount: 2
Back
Fore
SplineSet
122 612 m 1,0,-1
 48 635 l 1,1,-1
 106 748 l 1,2,-1
 214 748 l 1,3,-1
 122 612 l 1,0,-1
EndSplineSet
EndChar

StartChar: paragraph
Encoding: 182 182 121
Width: 652
Flags: W
LayerCount: 2
Back
Fore
SplineSet
111.5 660 m 128,-1,1
 187 727 187 727 325 727 c 2,2,-1
 606 727 l 1,3,-1
 606 641 l 1,4,-1
 535 641 l 1,5,-1
 535 -82 l 1,6,-1
 438 -82 l 1,7,-1
 438 221 l 1,8,-1
 378 221 l 1,9,-1
 378 -82 l 1,10,-1
 281 -82 l 1,11,-1
 281 221 l 1,12,13
 167.38150289 223.028901734 167.38150289 223.028901734 102.5 291 c 0,14,15
 36 360.666666667 36 360.666666667 36 476.833333333 c 128,-1,0
 36 593 36 593 111.5 660 c 128,-1,1
130 474 m 0,16,17
 130 362.333333333 130 362.333333333 223 321 c 0,18,19
 250 309 250 309 281 307 c 1,20,-1
 281 641 l 1,21,22
 208 639 208 639 169 594 c 128,-1,23
 130 549 130 549 130 474 c 0,16,17
438 641 m 1,24,-1
 378 641 l 1,25,-1
 378 307 l 1,26,-1
 438 307 l 1,27,-1
 438 641 l 1,24,-1
EndSplineSet
EndChar

StartChar: periodcentered
Encoding: 183 183 122
Width: 218
Flags: W
LayerCount: 2
Back
Fore
SplineSet
62 249 m 1,0,-1
 62 389 l 1,1,-1
 156 389 l 1,2,-1
 156 249 l 1,3,-1
 62 249 l 1,0,-1
EndSplineSet
EndChar

StartChar: cedilla
Encoding: 184 184 123
Width: 317
Flags: W
LayerCount: 2
Back
Fore
SplineSet
131 -46 m 1,0,1
 147 -42 147 -42 174.5 -42 c 128,-1,2
 202 -42 202 -42 226 -58.5 c 128,-1,3
 250 -75 250 -75 250 -111 c 256,4,5
 250 -147 250 -147 219.5 -170.5 c 128,-1,6
 189 -194 189 -194 128 -194 c 0,7,8
 75.5 -194 75.5 -194 23 -173 c 1,9,-1
 46 -129 l 1,10,11
 58 -136 58 -136 84 -143 c 128,-1,12
 110 -150 110 -150 136 -150 c 0,13,14
 195 -150 195 -150 195 -115 c 0,15,16
 195 -94 195 -94 180 -87 c 128,-1,17
 165 -80 165 -80 142.5 -80 c 0,18,19
 101 -80 101 -80 59 -92 c 1,20,-1
 121 25 l 1,21,-1
 167 9 l 1,22,-1
 131 -46 l 1,0,1
EndSplineSet
EndChar

StartChar: ordmasculine
Encoding: 186 186 124
Width: 457
Flags: W
LayerCount: 2
Back
Fore
SplineSet
228 350 m 256,0,1
 145.211538462 350 145.211538462 350 91.5 407 c 0,2,3
 40 461.653061224 40 461.653061224 40 539 c 0,4,5
 40 617.346938776 40 617.346938776 91.5 672 c 0,6,7
 145.211538462 729 145.211538462 729 228 729 c 256,8,9
 311.788461538 729 311.788461538 729 365.5 672 c 0,10,11
 417 617.346938776 417 617.346938776 417 539 c 0,12,13
 417 461.653061224 417 461.653061224 365.5 407 c 0,14,15
 311.788461538 350 311.788461538 350 228 350 c 256,0,1
127 538.5 m 0,16,17
 127 514 127 514 134.5 493 c 128,-1,18
 142 472 142 472 156 456.5 c 0,19,20
 185.35483871 424 185.35483871 424 228 424 c 0,21,22
 272.193548387 424 272.193548387 424 300.5 456.5 c 0,23,24
 330 490.37037037 330 490.37037037 330 540 c 0,25,26
 330 587.62962963 330 587.62962963 300.5 621.5 c 0,27,28
 272.193548387 654 272.193548387 654 228 654 c 0,29,30
 185.35483871 654 185.35483871 654 156 621.5 c 0,31,32
 127 589.392857143 127 589.392857143 127 538.5 c 0,16,17
EndSplineSet
EndChar

StartChar: guillemotright
Encoding: 187 187 125
Width: 636
Flags: W
LayerCount: 2
Back
Fore
SplineSet
597 234 m 1,0,-1
 333 55 l 1,1,-1
 333 147 l 1,2,-1
 508 265 l 1,3,-1
 333 387 l 1,4,-1
 333 480 l 1,5,-1
 597 291 l 1,6,-1
 597 234 l 1,0,-1
326 234 m 1,7,-1
 61 55 l 1,8,-1
 61 147 l 1,9,-1
 236 265 l 1,10,-1
 61 387 l 1,11,-1
 61 480 l 1,12,-1
 326 291 l 1,13,-1
 326 234 l 1,7,-1
EndSplineSet
EndChar

StartChar: questiondown
Encoding: 191 191 126
Width: 487
Flags: W
LayerCount: 2
Back
Fore
SplineSet
353 292 m 1,0,1
 353 239 353 239 335 198 c 128,-1,2
 317 157 317 157 268 127 c 0,3,4
 251 117 251 117 227.5 104 c 128,-1,5
 204 91 204 91 182.5 73.5 c 0,6,7
 131 31.5813953488 131 31.5813953488 131 -23 c 0,8,9
 131 -68 131 -68 166 -99.5 c 0,10,11
 195.444444444 -126 195.444444444 -126 244 -126 c 0,12,13
 308.125 -126 308.125 -126 358 -69 c 0,14,15
 372 -53 372 -53 381 -36 c 1,16,-1
 455 -86 l 1,17,18
 427 -150 427 -150 368.5 -184 c 128,-1,19
 310 -218 310 -218 241 -218 c 0,20,21
 155.693877551 -218 155.693877551 -218 98.5 -170.5 c 0,22,23
 33 -116.101694915 33 -116.101694915 33 -18 c 0,24,25
 33 77.9090909091 33 77.9090909091 105 127 c 0,26,27
 127 142 127 142 149.5 155 c 128,-1,28
 172 168 172 168 191.5 179.5 c 128,-1,29
 211 191 211 191 226 206.5 c 0,30,31
 259 240.6 259 240.6 259 292 c 1,32,-1
 353 292 l 1,0,1
353 518 m 1,33,-1
 353 389 l 1,34,-1
 259 389 l 1,35,-1
 259 518 l 1,36,-1
 353 518 l 1,33,-1
EndSplineSet
EndChar

StartChar: multiply
Encoding: 215 215 149
Width: 585
Flags: W
LayerCount: 2
Back
Fore
SplineSet
292 412 m 1,0,-1
 467 588 l 1,1,-1
 518 535 l 1,2,-1
 344 361 l 1,3,-1
 517 187 l 1,4,-1
 466 135 l 1,5,-1
 291 308 l 1,6,-1
 120 135 l 1,7,-1
 66 187 l 1,8,-1
 239 361 l 1,9,-1
 65 534 l 1,10,-1
 119 588 l 1,11,-1
 292 412 l 1,0,-1
EndSplineSet
EndChar

StartChar: divide
Encoding: 247 247 175
Width: 585
Flags: W
LayerCount: 2
Back
Fore
SplineSet
234 535 m 0,0,1
 234 597 234 597 291 597 c 128,-1,2
 348 597 348 597 348 535 c 0,3,4
 348 505 348 505 333 489 c 128,-1,5
 318 473 318 473 292 473 c 256,6,7
 266 473 266 473 250 488 c 128,-1,8
 234 503 234 503 234 535 c 0,0,1
51 324 m 1,9,-1
 51 397 l 1,10,-1
 533 397 l 1,11,-1
 533 324 l 1,12,-1
 51 324 l 1,9,-1
234 186 m 0,13,14
 234 248 234 248 291 248 c 128,-1,15
 348 248 348 248 348 186 c 0,16,17
 348 156 348 156 333 140 c 128,-1,18
 318 124 318 124 292 124 c 256,19,20
 266 124 266 124 250 139 c 128,-1,21
 234 154 234 154 234 186 c 0,13,14
EndSplineSet
EndChar

StartChar: dotlessi
Encoding: 305 305 182
Width: 248
Flags: W
LayerCount: 2
Back
Fore
SplineSet
68 0 m 1,0,-1
 68 536 l 1,1,-1
 180 536 l 1,2,-1
 180 0 l 1,3,-1
 68 0 l 1,0,-1
EndSplineSet
EndChar

StartChar: florin
Encoding: 402 402 186
Width: 554
Flags: W
LayerCount: 2
Back
Fore
SplineSet
494 641 m 1,0,1
 454.888888889 663 454.888888889 663 415.944444444 663 c 128,-1,2
 377 663 377 663 356 633 c 128,-1,3
 335 603 335 603 335 547 c 2,4,-1
 335 473 l 1,5,-1
 472 473 l 1,6,-1
 472 386 l 1,7,-1
 335 386 l 1,8,-1
 335 -16 l 2,9,10
 335 -93.6041666667 335 -93.6041666667 282 -145.5 c 0,11,12
 230.425531915 -196 230.425531915 -196 160 -196 c 0,13,14
 83 -196 83 -196 31 -150 c 1,15,-1
 81 -74 l 1,16,17
 105.916666667 -97 105.916666667 -97 140.958333333 -97 c 128,-1,18
 176 -97 176 -97 199 -75 c 128,-1,19
 222 -53 222 -53 222 -19 c 2,20,-1
 222 386 l 1,21,-1
 152 386 l 1,22,-1
 152 473 l 1,23,-1
 222 473 l 1,24,-1
 222 544 l 2,25,26
 222 640.181818182 222 640.181818182 269 700 c 0,27,28
 314.571428571 758 314.571428571 758 393 758 c 0,29,30
 456.4 758 456.4 758 518 725 c 1,31,-1
 494 641 l 1,0,1
EndSplineSet
EndChar

StartChar: uni0237
Encoding: 567 567 187
Width: 248
Flags: W
LayerCount: 2
Back
Fore
SplineSet
-75 -74 m 1,0,1
 -46.25 -97 -46.25 -97 -12.125 -97 c 128,-1,2
 22 -97 22 -97 45 -75 c 128,-1,3
 68 -53 68 -53 68 -19 c 2,4,-1
 68 536 l 1,5,-1
 180 536 l 1,6,-1
 180 -11 l 2,7,8
 180 -91.4166666667 180 -91.4166666667 128 -144.5 c 0,9,10
 77.5510204082 -196 77.5510204082 -196 5 -196 c 0,11,12
 -71 -196 -71 -196 -125 -150 c 1,13,-1
 -75 -74 l 1,0,1
EndSplineSet
EndChar

StartChar: afii57929
Encoding: 700 700 188
Width: 551
Flags: W
LayerCount: 2
Back
Fore
SplineSet
274 612 m 1,0,-1
 203 635 l 1,1,-1
 239 705 l 1,2,-1
 234 748 l 1,3,-1
 368 748 l 1,4,-1
 274 612 l 1,0,-1
EndSplineSet
EndChar

StartChar: circumflex
Encoding: 710 710 189
Width: 364
Flags: W
LayerCount: 2
Back
Fore
SplineSet
35 650 m 1,0,-1
 141 748 l 1,1,-1
 222 748 l 1,2,-1
 329 650 l 1,3,-1
 268 622 l 1,4,-1
 181 686 l 1,5,-1
 94 622 l 1,6,-1
 35 650 l 1,0,-1
EndSplineSet
EndChar

StartChar: caron
Encoding: 711 711 190
Width: 364
Flags: W
LayerCount: 2
Back
Fore
SplineSet
94 748 m 1,0,-1
 181 683 l 1,1,-1
 268 748 l 1,2,-1
 329 719 l 1,3,-1
 222 622 l 1,4,-1
 141 622 l 1,5,-1
 35 719 l 1,6,-1
 94 748 l 1,0,-1
EndSplineSet
EndChar

StartChar: uni02C9
Encoding: 713 713 191
Width: 421
Flags: W
LayerCount: 2
Back
Fore
SplineSet
59 659 m 1,0,-1
 59 731 l 1,1,-1
 362 731 l 1,2,-1
 362 659 l 1,3,-1
 59 659 l 1,0,-1
EndSplineSet
EndChar

StartChar: breve
Encoding: 728 728 192
Width: 319
Flags: W
LayerCount: 2
Back
Fore
SplineSet
118 696.5 m 128,-1,1
 136 675 136 675 159 675 c 128,-1,2
 182 675 182 675 199 695.5 c 128,-1,3
 216 716 216 716 219 748 c 1,4,-1
 282 748 l 1,5,6
 282 694.575757576 282 694.575757576 246.5 658 c 0,7,8
 212.529411765 623 212.529411765 623 160 623 c 0,9,10
 106.470588235 623 106.470588235 623 72.5 658 c 0,11,12
 38 693.545454545 38 693.545454545 38 748 c 1,13,-1
 100 748 l 1,14,0
 100 718 100 718 118 696.5 c 128,-1,1
EndSplineSet
EndChar

StartChar: dotaccent
Encoding: 729 729 193
Width: 204
Flags: W
LayerCount: 2
Back
Fore
SplineSet
51 630 m 1,0,-1
 51 748 l 1,1,-1
 153 748 l 1,2,-1
 153 630 l 1,3,-1
 51 630 l 1,0,-1
EndSplineSet
EndChar

StartChar: ring
Encoding: 730 730 194
Width: 263
Flags: W
LayerCount: 2
Back
Fore
SplineSet
66 618 m 128,-1,1
 41 638 41 638 41 673.5 c 128,-1,2
 41 709 41 709 66 728.5 c 128,-1,3
 91 748 91 748 131.5 748 c 128,-1,4
 172 748 172 748 197 728.5 c 128,-1,5
 222 709 222 709 222 673.5 c 128,-1,6
 222 638 222 638 197 618 c 128,-1,7
 172 598 172 598 131.5 598 c 128,-1,0
 91 598 91 598 66 618 c 128,-1,1
131 711 m 256,8,9
 114 711 114 711 102 700.5 c 128,-1,10
 90 690 90 690 90 673.5 c 128,-1,11
 90 657 90 657 102 646 c 128,-1,12
 114 635 114 635 131 635 c 256,13,14
 148 635 148 635 160.5 645.5 c 128,-1,15
 173 656 173 656 173 673 c 256,16,17
 173 690 173 690 160.5 700.5 c 128,-1,18
 148 711 148 711 131 711 c 256,8,9
EndSplineSet
EndChar

StartChar: ogonek
Encoding: 731 731 195
Width: 279
Flags: W
LayerCount: 2
Back
Fore
SplineSet
212 0 m 1,0,1
 130 -51.488372093 130 -51.488372093 130 -90.2441860465 c 128,-1,2
 130 -129 130 -129 189 -133 c 1,3,-1
 164 -193 l 1,4,5
 114 -184 114 -184 88 -161 c 128,-1,6
 62 -138 62 -138 62 -109 c 0,7,8
 62 -43 62 -43 178 20 c 1,9,-1
 212 0 l 1,0,1
EndSplineSet
EndChar

StartChar: tilde
Encoding: 732 732 196
Width: 436
Flags: W
LayerCount: 2
Back
Fore
SplineSet
339.5 646 m 128,-1,1
 317 630 317 630 288.5 630 c 128,-1,2
 260 630 260 630 242.5 636.5 c 128,-1,3
 225 643 225 643 210.5 651.5 c 0,4,5
 172.117647059 674 172.117647059 674 152.558823529 674 c 128,-1,6
 133 674 133 674 123.5 666.5 c 128,-1,7
 114 659 114 659 108.5 650.5 c 0,8,9
 100 637.363636364 100 637.363636364 100 625 c 1,10,-1
 37 625 l 1,11,12
 37 656.615384615 37 656.615384615 55 684.307692308 c 128,-1,13
 73 712 73 712 94 727 c 128,-1,14
 115 742 115 742 142 742 c 128,-1,15
 169 742 169 742 186 735 c 128,-1,16
 203 728 203 728 217.5 720 c 128,-1,17
 232 712 232 712 247 704.5 c 128,-1,18
 262 697 262 697 280.5 697 c 128,-1,19
 299 697 299 697 310.5 704.5 c 128,-1,20
 322 712 322 712 327.5 721 c 0,21,22
 336 734.909090909 336 734.909090909 336 748 c 1,23,-1
 400 748 l 1,24,25
 400 741 400 741 394.5 721.5 c 128,-1,26
 389 702 389 702 375.5 682 c 128,-1,0
 362 662 362 662 339.5 646 c 128,-1,1
EndSplineSet
EndChar

StartChar: hungarumlaut
Encoding: 733 733 197
Width: 359
Flags: W
LayerCount: 2
Back
Fore
SplineSet
94 612 m 1,0,-1
 38 635 l 1,1,-1
 90 748 l 1,2,-1
 181 748 l 1,3,-1
 94 612 l 1,0,-1
246 612 m 1,4,-1
 188 635 l 1,5,-1
 241 748 l 1,6,-1
 333 748 l 1,7,-1
 246 612 l 1,4,-1
EndSplineSet
EndChar

StartChar: uni030F
Encoding: 783 783 198
Width: 359
Flags: W
LayerCount: 2
Back
Fore
SplineSet
178 748 m 1,0,-1
 269 748 l 1,1,-1
 322 635 l 1,2,-1
 265 612 l 1,3,-1
 178 748 l 1,0,-1
27 748 m 1,4,-1
 119 748 l 1,5,-1
 171 635 l 1,6,-1
 114 612 l 1,7,-1
 27 748 l 1,4,-1
EndSplineSet
EndChar

StartChar: uni0311
Encoding: 785 785 199
Width: 319
Flags: W
LayerCount: 2
Back
Fore
SplineSet
199 674.5 m 128,-1,1
 182 695 182 695 159 695 c 128,-1,2
 136 695 136 695 118 673.5 c 128,-1,3
 100 652 100 652 100 623 c 1,4,-1
 38 623 l 1,5,6
 38 676.454545455 38 676.454545455 72.5 712 c 0,7,8
 107.441176471 748 107.441176471 748 160 748 c 0,9,10
 211.558823529 748 211.558823529 748 246.5 712 c 0,11,12
 282 675.424242424 282 675.424242424 282 623 c 1,13,-1
 219 623 l 1,14,0
 216 654 216 654 199 674.5 c 128,-1,1
EndSplineSet
EndChar

StartChar: uni0964
Encoding: 2404 2404 200
Width: 294
Flags: W
LayerCount: 2
Back
Fore
SplineSet
109 627 m 1,0,-1
 183 627 l 1,1,-1
 183 0 l 1,2,-1
 109 0 l 1,3,-1
 109 627 l 1,0,-1
EndSplineSet
EndChar

StartChar: uni0965
Encoding: 2405 2405 201
Width: 490
Flags: W
LayerCount: 2
Back
Fore
SplineSet
109 627 m 1,0,-1
 183 627 l 1,1,-1
 183 0 l 1,2,-1
 109 0 l 1,3,-1
 109 627 l 1,0,-1
306 627 m 1,4,-1
 380 627 l 1,5,-1
 380 0 l 1,6,-1
 306 0 l 1,7,-1
 306 627 l 1,4,-1
EndSplineSet
EndChar

StartChar: uni0B82
Encoding: 2946 2946 202
Width: 0
GlyphClass: 4
Flags: W
LayerCount: 2
Back
Fore
SplineSet
-213.5 762.5 m 128,-1,1
 -177 799 -177 799 -127 799 c 256,2,3
 -77 799 -77 799 -40.5 763 c 128,-1,4
 -4 727 -4 727 -4 676.5 c 128,-1,5
 -4 626 -4 626 -40 589.5 c 128,-1,6
 -76 553 -76 553 -126.5 553 c 128,-1,7
 -177 553 -177 553 -213.5 589.5 c 128,-1,8
 -250 626 -250 626 -250 676 c 128,-1,0
 -250 726 -250 726 -213.5 762.5 c 128,-1,1
-178.5 623.5 m 128,-1,10
 -157 602 -157 602 -126.5 602 c 128,-1,11
 -96 602 -96 602 -74.5 623.5 c 128,-1,12
 -53 645 -53 645 -53 676 c 256,13,14
 -53 707 -53 707 -74.5 728.5 c 128,-1,15
 -96 750 -96 750 -127 750 c 256,16,17
 -158 750 -158 750 -179 728.5 c 128,-1,18
 -200 707 -200 707 -200 676 c 128,-1,9
 -200 645 -200 645 -178.5 623.5 c 128,-1,10
EndSplineSet
EndChar

StartChar: uni0B83
Encoding: 2947 2947 203
Width: 803
GlyphClass: 2
Flags: W
LayerCount: 2
Back
Fore
SplineSet
315.5 762.5 m 128,-1,1
 352 799 352 799 402 799 c 256,2,3
 452 799 452 799 488.5 763 c 128,-1,4
 525 727 525 727 525 676.5 c 128,-1,5
 525 626 525 626 488.5 589.5 c 128,-1,6
 452 553 452 553 402 553 c 256,7,8
 352 553 352 553 315.5 589.5 c 128,-1,9
 279 626 279 626 279 676 c 128,-1,0
 279 726 279 726 315.5 762.5 c 128,-1,1
349.5 623.5 m 128,-1,11
 371 602 371 602 402 602 c 256,12,13
 433 602 433 602 454.5 623.5 c 128,-1,14
 476 645 476 645 476 676 c 256,15,16
 476 707 476 707 454.5 728.5 c 128,-1,17
 433 750 433 750 402 750 c 256,18,19
 371 750 371 750 349.5 728.5 c 128,-1,20
 328 707 328 707 328 676 c 128,-1,10
 328 645 328 645 349.5 623.5 c 128,-1,11
69.5 197.5 m 128,-1,22
 106 234 106 234 156 234 c 256,23,24
 206 234 206 234 242.5 197.5 c 128,-1,25
 279 161 279 161 279 111 c 256,26,27
 279 61 279 61 243 24.5 c 128,-1,28
 207 -12 207 -12 156.5 -12 c 128,-1,29
 106 -12 106 -12 69.5 24 c 128,-1,30
 33 60 33 60 33 110.5 c 128,-1,21
 33 161 33 161 69.5 197.5 c 128,-1,22
103.5 58.5 m 128,-1,32
 125 37 125 37 156 37 c 256,33,34
 187 37 187 37 208.5 58.5 c 128,-1,35
 230 80 230 80 230 111 c 256,36,37
 230 142 230 142 208.5 163 c 128,-1,38
 187 184 187 184 156 184 c 256,39,40
 125 184 125 184 103.5 162.5 c 128,-1,41
 82 141 82 141 82 110.5 c 128,-1,31
 82 80 82 80 103.5 58.5 c 128,-1,32
561 197.5 m 128,-1,43
 597 234 597 234 647.5 234 c 128,-1,44
 698 234 698 234 734.5 197.5 c 128,-1,45
 771 161 771 161 771 111 c 256,46,47
 771 61 771 61 734.5 24.5 c 128,-1,48
 698 -12 698 -12 648 -12 c 256,49,50
 598 -12 598 -12 561.5 24 c 128,-1,51
 525 60 525 60 525 110.5 c 128,-1,42
 525 161 525 161 561 197.5 c 128,-1,43
595.5 58.5 m 128,-1,53
 617 37 617 37 648 37 c 256,54,55
 679 37 679 37 700.5 58.5 c 128,-1,56
 722 80 722 80 722 111 c 256,57,58
 722 142 722 142 700.5 163 c 128,-1,59
 679 184 679 184 648 184 c 256,60,61
 617 184 617 184 595.5 162.5 c 128,-1,62
 574 141 574 141 574 110.5 c 128,-1,52
 574 80 574 80 595.5 58.5 c 128,-1,53
EndSplineSet
EndChar

StartChar: uni0B99
Encoding: 2969 2969 217
Width: 897
GlyphClass: 2
Flags: W
LayerCount: 2
Back
Fore
SplineSet
565 264 m 128,-1,1
 608 221 608 221 608 155.416666667 c 128,-1,2
 608 89.8333333333 608 89.8333333333 559 49 c 1,3,-1
 744 49 l 1,4,-1
 744 492 l 1,5,-1
 805 492 l 1,6,-1
 805 0 l 1,7,-1
 301 0 l 1,8,-1
 301 49 l 1,9,-1
 436 49 l 2,10,11
 481 49 481 49 514 81.5 c 128,-1,12
 547 114 547 114 547 155 c 128,-1,13
 547 196 547 196 518 221 c 128,-1,14
 489 246 489 246 446.239130435 246 c 128,-1,15
 403.47826087 246 403.47826087 246 363 197 c 1,16,-1
 363 98 l 1,17,-1
 301 98 l 1,18,-1
 301 443 l 1,19,-1
 154 443 l 1,20,-1
 154 0 l 1,21,-1
 92 0 l 1,22,-1
 92 492 l 1,23,-1
 535 492 l 1,24,-1
 535 443 l 1,25,-1
 363 443 l 1,26,-1
 363 264 l 1,27,28
 414.19047619 307 414.19047619 307 468.095238095 307 c 128,-1,0
 522 307 522 307 565 264 c 128,-1,1
EndSplineSet
EndChar

StartChar: uni0B9A
Encoding: 2970 2970 218
Width: 567
GlyphClass: 2
Flags: W
LayerCount: 2
Back
Fore
SplineSet
342 270 m 1,0,-1
 342 443 l 1,1,-1
 219 443 l 1,2,-1
 219 270 l 1,3,-1
 342 270 l 1,0,-1
135.5 73.5 m 128,-1,5
 175 37 175 37 225.5 37 c 128,-1,6
 276 37 276 37 309 66 c 128,-1,7
 342 95 342 95 342 135 c 2,8,-1
 342 221 l 1,9,-1
 157 221 l 2,10,11
 131 221 131 221 113.5 203.5 c 128,-1,12
 96 186 96 186 96 160 c 0,13,4
 96 110 96 110 135.5 73.5 c 128,-1,5
551 492 m 1,14,-1
 551 443 l 1,15,-1
 403 443 l 1,16,-1
 403 270 l 1,17,-1
 551 270 l 1,18,-1
 551 221 l 1,19,-1
 403 221 l 1,20,-1
 403 135 l 2,21,22
 403 74 403 74 352.5 31 c 128,-1,23
 302 -12 302 -12 226 -12 c 128,-1,24
 150 -12 150 -12 92 38.5 c 128,-1,25
 34 89 34 89 34 160 c 0,26,27
 34 205 34 205 70.5 237.5 c 128,-1,28
 107 270 107 270 157 270 c 1,29,-1
 157 492 l 1,30,-1
 551 492 l 1,14,-1
EndSplineSet
EndChar

StartChar: uni0B9E
Encoding: 2974 2974 220
Width: 1100
GlyphClass: 2
Flags: W
LayerCount: 2
Back
Fore
SplineSet
405 65.5 m 128,-1,1
 430 37 430 37 466 37 c 256,2,3
 502 37 502 37 527 66 c 128,-1,4
 552 95 552 95 552 135.5 c 128,-1,5
 552 176 552 176 527 205 c 128,-1,6
 502 234 502 234 466 234 c 256,7,8
 430 234 430 234 405 205 c 128,-1,9
 380 176 380 176 380 135 c 128,-1,0
 380 94 380 94 405 65.5 c 128,-1,1
810 246 m 1,10,11
 842.647058824 283 842.647058824 283 884 283 c 0,12,13
 955 283 955 283 1005.5 229 c 128,-1,14
 1056 175 1056 175 1056 98 c 0,15,16
 1056 -75 1056 -75 926.5 -197.5 c 128,-1,17
 797 -320 797 -320 613 -320 c 0,18,19
 389 -320 389 -320 231 -168.5 c 128,-1,20
 73 -17 73 -17 73 197 c 0,21,22
 73 383.644444444 73 383.644444444 165 492 c 1,23,-1
 208 461 l 1,24,25
 128 362.052631579 128 362.052631579 128 197 c 0,26,27
 128 4 128 4 270 -133 c 128,-1,28
 412 -270 412 -270 613 -270 c 0,29,30
 770 -270 770 -270 882 -162 c 128,-1,31
 994 -54 994 -54 994 98 c 0,32,33
 994 155 994 155 961.5 194.5 c 128,-1,34
 929 234 929 234 885.653846154 234 c 128,-1,35
 842.307692308 234 842.307692308 234 810 178 c 1,36,-1
 810 0 l 1,37,-1
 749 0 l 1,38,-1
 749 443 l 1,39,-1
 527 443 l 2,40,41
 423 443 423 443 349 374.5 c 128,-1,42
 275 306 275 306 275 209 c 0,43,44
 275 122.666666667 275 122.666666667 349 61 c 1,45,46
 331 93 331 93 331 135 c 0,47,48
 331 196 331 196 370 239.5 c 128,-1,49
 409 283 409 283 466 283 c 256,50,51
 523 283 523 283 562 240 c 128,-1,52
 601 197 601 197 601 135.5 c 128,-1,53
 601 74 601 74 561.5 31 c 128,-1,54
 522 -12 522 -12 466 -12 c 0,55,56
 364 -12 364 -12 292 52.5 c 128,-1,57
 220 117 220 117 220 209 c 0,58,59
 220 326 220 326 310 409 c 128,-1,60
 400 492 400 492 527 492 c 2,61,-1
 1007 492 l 1,62,-1
 1007 443 l 1,63,-1
 810 443 l 1,64,-1
 810 246 l 1,10,11
EndSplineSet
EndChar

StartChar: uni0BA3
Encoding: 2979 2979 222
Width: 1303
GlyphClass: 2
Flags: W
LayerCount: 2
Back
Fore
SplineSet
210.5 65.5 m 128,-1,1
 232 37 232 37 263 37 c 256,2,3
 294 37 294 37 315.5 66 c 128,-1,4
 337 95 337 95 337 135.5 c 128,-1,5
 337 176 337 176 315.5 205 c 128,-1,6
 294 234 294 234 263 234 c 256,7,8
 232 234 232 234 210.5 205 c 128,-1,9
 189 176 189 176 189 135 c 128,-1,0
 189 94 189 94 210.5 65.5 c 128,-1,1
546 363 m 1,10,11
 484 288.6 484 288.6 484 197 c 0,12,13
 484 131 484 131 502 84 c 128,-1,14
 520 37 520 37 546 37 c 256,15,16
 572 37 572 37 589.5 83.5 c 128,-1,17
 607 130 607 130 607 186 c 0,18,19
 607 287.275862069 607 287.275862069 546 363 c 1,10,11
841 369 m 1,20,21
 779 294.6 779 294.6 779 197 c 0,22,23
 779 131 779 131 797 84 c 128,-1,24
 815 37 815 37 841 37 c 256,25,26
 867 37 867 37 884.5 83.5 c 128,-1,27
 902 130 902 130 902 187.5 c 0,28,29
 902 293.275862069 902 293.275862069 841 369 c 1,20,21
171 37 m 1,30,31
 140 90.7333333333 140 90.7333333333 140 143.366666667 c 128,-1,32
 140 196 140 196 176.5 239.5 c 128,-1,33
 213 283 213 283 263 283 c 256,34,35
 313 283 313 283 349.5 240 c 128,-1,36
 386 197 386 197 386 135.5 c 128,-1,37
 386 74 386 74 343 31 c 128,-1,38
 300 -12 300 -12 231 -12 c 128,-1,39
 162 -12 162 -12 108 52.5 c 128,-1,40
 54 117 54 117 54 209 c 0,41,42
 54 331 54 331 144 417.5 c 128,-1,43
 234 504 234 504 357.407407407 504 c 128,-1,44
 480.814814815 504 480.814814815 504 546 449 c 1,45,46
 611.185185185 504 611.185185185 504 696.5 504 c 128,-1,47
 781.814814815 504 781.814814815 504 847 449 c 1,48,49
 898.19047619 492 898.19047619 492 976 492 c 2,50,-1
 1296 492 l 1,51,-1
 1296 443 l 1,52,-1
 1148 443 l 1,53,-1
 1148 0 l 1,54,-1
 1087 0 l 1,55,-1
 1087 443 l 1,56,-1
 976 443 l 2,57,58
 931.733333333 443 931.733333333 443 878 412 c 1,59,60
 964 311.666666667 964 311.666666667 964 197 c 0,61,62
 964 111 964 111 927.5 49.5 c 128,-1,63
 891 -12 891 -12 841 -12 c 256,64,65
 791 -12 791 -12 754.5 49.5 c 128,-1,66
 718 111 718 111 718 189 c 0,67,68
 718 344.631578947 718 344.631578947 798 412 c 1,69,70
 746.80952381 455 746.80952381 455 693 455 c 256,71,72
 642.652173913 455 642.652173913 455 583 406 c 1,73,74
 624 372 624 372 646.5 317 c 128,-1,75
 669 262 669 262 669 186.5 c 128,-1,76
 669 111 669 111 632.5 49.5 c 128,-1,77
 596 -12 596 -12 546 -12 c 256,78,79
 496 -12 496 -12 459.5 49.5 c 128,-1,80
 423 111 423 111 423 197 c 0,81,82
 423 313.052631579 423 313.052631579 503 412 c 1,83,84
 451.80952381 455 451.80952381 455 352.904761905 455 c 128,-1,85
 254 455 254 455 178.5 383 c 128,-1,86
 103 311 103 311 103 209 c 0,87,88
 103 154 103 154 121 109 c 128,-1,89
 139 64 139 64 171 37 c 1,30,31
EndSplineSet
EndChar

StartChar: uni0BA9
Encoding: 2985 2985 225
Width: 993
GlyphClass: 2
Flags: W
LayerCount: 2
Back
Fore
SplineSet
212 65.5 m 128,-1,1
 237 37 237 37 273 37 c 256,2,3
 309 37 309 37 334 66 c 128,-1,4
 359 95 359 95 359 135.5 c 128,-1,5
 359 176 359 176 334 205 c 128,-1,6
 309 234 309 234 273 234 c 256,7,8
 237 234 237 234 212 205 c 128,-1,9
 187 176 187 176 187 135 c 128,-1,0
 187 94 187 94 212 65.5 c 128,-1,1
580 369 m 1,10,11
 519 295.8 519 295.8 519 197 c 0,12,13
 519 131 519 131 536.5 84 c 128,-1,14
 554 37 554 37 580 37 c 256,15,16
 606 37 606 37 624 83.5 c 128,-1,17
 642 130 642 130 642 187.5 c 0,18,19
 642 294.6 642 294.6 580 369 c 1,10,11
580 443 m 1,20,21
 639.652173913 492 639.652173913 492 728 492 c 2,22,-1
 986 492 l 1,23,-1
 986 443 l 1,24,-1
 888 443 l 1,25,-1
 888 0 l 1,26,-1
 826 0 l 1,27,-1
 826 443 l 1,28,-1
 728 443 l 2,29,30
 660.166666667 443 660.166666667 443 617 406 c 1,31,32
 658 372 658 372 680.5 317 c 128,-1,33
 703 262 703 262 703 186.5 c 128,-1,34
 703 111 703 111 667 49.5 c 128,-1,35
 631 -12 631 -12 580.5 -12 c 128,-1,36
 530 -12 530 -12 493.5 49.5 c 128,-1,37
 457 111 457 111 457 185.5 c 0,38,39
 457 324.75 457 324.75 543 400 c 1,40,41
 477.814814815 455 477.814814815 455 368.407407407 455 c 128,-1,42
 259 455 259 455 180 383 c 128,-1,43
 101 311 101 311 101 209 c 0,44,45
 101 128.608695652 101 128.608695652 150 86 c 1,46,47
 138 108 138 108 138 135 c 0,48,49
 138 196 138 196 177 239.5 c 128,-1,50
 216 283 216 283 273 283 c 256,51,52
 330 283 330 283 369 240 c 128,-1,53
 408 197 408 197 408 135.5 c 128,-1,54
 408 74 408 74 368.5 31 c 128,-1,55
 329 -12 329 -12 273 -12 c 0,56,57
 181 -12 181 -12 116.5 52.5 c 128,-1,58
 52 117 52 117 52 209 c 0,59,60
 52 331 52 331 145 417.5 c 128,-1,61
 238 504 238 504 372.189655172 504 c 128,-1,62
 506.379310345 504 506.379310345 504 580 443 c 1,20,21
EndSplineSet
EndChar

StartChar: uni0BB1
Encoding: 2993 2993 230
Width: 697
GlyphClass: 2
Flags: W
LayerCount: 2
Back
Fore
SplineSet
76 -270 m 1,0,1
 52 -228 52 -228 52 -197 c 0,2,3
 52 -147 52 -147 88 -110.5 c 128,-1,4
 124 -74 124 -74 175 -74 c 2,5,-1
 371 -74 l 2,6,7
 452 -74 452 -74 510 16 c 128,-1,8
 568 106 568 106 568 234 c 0,9,10
 568 326 568 326 535.5 390.5 c 128,-1,11
 503 455 503 455 459.5 455 c 128,-1,12
 416 455 416 455 387.5 429.5 c 128,-1,13
 359 404 359 404 359 369 c 2,14,-1
 359 0 l 1,15,-1
 297 0 l 1,16,-1
 297 369 l 2,17,18
 297 405 297 405 275.5 430 c 128,-1,19
 254 455 254 455 223.5 455 c 128,-1,20
 193 455 193 455 171.5 429.5 c 128,-1,21
 150 404 150 404 150 369 c 2,22,-1
 150 0 l 1,23,-1
 89 0 l 1,24,-1
 89 369 l 2,25,26
 89 426 89 426 128 465 c 128,-1,27
 167 504 167 504 224 504 c 0,28,29
 258 504 258 504 286.5 487.5 c 128,-1,30
 315 471 315 471 328 443 c 1,31,32
 342 471 342 471 375 487.5 c 128,-1,33
 408 504 408 504 451 504 c 0,34,35
 525 504 525 504 577 424.5 c 128,-1,36
 629 345 629 345 629 234 c 0,37,38
 629 86 629 86 553.5 -18.5 c 128,-1,39
 478 -123 478 -123 371 -123 c 2,40,-1
 175 -123 l 2,41,42
 134 -123 134 -123 118 -164 c 128,-1,43
 102 -205 102 -205 125 -246 c 1,44,-1
 76 -270 l 1,0,1
EndSplineSet
EndChar

StartChar: uni0BB3
Encoding: 2995 2995 232
Width: 924
GlyphClass: 2
Flags: W
LayerCount: 2
Back
Fore
SplineSet
225.5 78 m 128,-1,1
 247 49 247 49 278 49 c 256,2,3
 309 49 309 49 330.5 78 c 128,-1,4
 352 107 352 107 352 145.5 c 128,-1,5
 352 184 352 184 330.5 209 c 128,-1,6
 309 234 309 234 278 234 c 256,7,8
 247 234 247 234 225.5 208.5 c 128,-1,9
 204 183 204 183 204 145 c 128,-1,0
 204 107 204 107 225.5 78 c 128,-1,1
179 74 m 1,10,11
 155 116 155 116 155 148 c 0,12,13
 155 205 155 205 191 244 c 128,-1,14
 227 283 227 283 277.5 283 c 128,-1,15
 328 283 328 283 364.5 243.5 c 128,-1,16
 401 204 401 204 401 143 c 128,-1,17
 401 82 401 82 358 35 c 128,-1,18
 315 -12 315 -12 253 -12 c 0,19,20
 172 -12 172 -12 114.5 60 c 128,-1,21
 57 132 57 132 57 239 c 128,-1,22
 57 346 57 346 125 425 c 128,-1,23
 193 504 193 504 290 504 c 0,24,25
 355 504 355 504 408 477.5 c 128,-1,26
 461 451 461 451 487 406 c 1,27,-1
 487 492 l 1,28,-1
 917 492 l 1,29,-1
 917 443 l 1,30,-1
 782 443 l 1,31,-1
 782 0 l 1,32,-1
 720 0 l 1,33,-1
 720 443 l 1,34,-1
 536 443 l 1,35,-1
 536 0 l 1,36,-1
 475 0 l 1,37,-1
 475 246 l 2,38,39
 475 332 475 332 420.5 393.5 c 128,-1,40
 366 455 366 455 290 455 c 256,41,42
 214 455 214 455 160 390.5 c 128,-1,43
 106 326 106 326 106 234 c 0,44,45
 106 187 106 187 125 145 c 128,-1,46
 144 103 144 103 179 74 c 1,10,11
EndSplineSet
EndChar

StartChar: uni0BB4
Encoding: 2996 2996 233
Width: 824
GlyphClass: 2
Flags: W
LayerCount: 2
Back
Fore
SplineSet
449 49 m 1,0,-1
 621 49 l 2,1,2
 657 49 657 49 682 88.5 c 128,-1,3
 707 128 707 128 707 184 c 0,4,5
 707 296 707 296 653 375.5 c 128,-1,6
 599 455 599 455 522 455 c 0,7,8
 491 455 491 455 470 429.5 c 128,-1,9
 449 404 449 404 449 369 c 2,10,-1
 449 49 l 1,0,-1
696 410.5 m 128,-1,12
 768 317 768 317 768 184 c 0,13,14
 768 108 768 108 725 54 c 128,-1,15
 682 0 682 0 621 0 c 2,16,-1
 449 0 l 1,17,18
 456 -43 456 -43 487.5 -70.5 c 128,-1,19
 519 -98 519 -98 559 -98 c 2,20,-1
 707 -98 l 1,21,-1
 707 -148 l 1,22,-1
 608 -148 l 2,23,24
 563 -148 563 -148 523.5 -171 c 128,-1,25
 484 -194 484 -194 457.5 -240 c 128,-1,26
 431 -286 431 -286 381.5 -315 c 128,-1,27
 332 -344 332 -344 277 -344 c 0,28,29
 201 -344 201 -344 146.5 -301 c 128,-1,30
 92 -258 92 -258 92 -202.5 c 128,-1,31
 92 -147 92 -147 128.5 -110.5 c 128,-1,32
 165 -74 165 -74 215 -74 c 2,33,-1
 313 -74 l 1,34,-1
 313 -123 l 1,35,-1
 215 -123 l 2,36,37
 189 -123 189 -123 171.5 -144.5 c 128,-1,38
 154 -166 154 -166 154 -202 c 128,-1,39
 154 -238 154 -238 190 -266.5 c 128,-1,40
 226 -295 226 -295 268.5 -295 c 0,41,42
 352.142857143 -295 352.142857143 -295 387 -234 c 0,43,44
 422.0625 -170.0625 422.0625 -170.0625 486 -135 c 1,45,46
 442 -119 442 -119 414.5 -81.5 c 128,-1,47
 387 -44 387 -44 387 0 c 1,48,-1
 92 0 l 1,49,-1
 92 492 l 1,50,-1
 154 492 l 1,51,-1
 154 49 l 1,52,-1
 387 49 l 1,53,-1
 387 369 l 2,54,55
 387 426 387 426 426.5 465 c 128,-1,56
 466 504 466 504 522 504 c 0,57,11
 624 504 624 504 696 410.5 c 128,-1,12
EndSplineSet
EndChar

StartChar: uni0BB8
Encoding: 3000 3000 237
Width: 1100
GlyphClass: 2
Flags: W
LayerCount: 2
Back
Fore
SplineSet
236.5 65.5 m 128,-1,1
 258 37 258 37 289 37 c 256,2,3
 320 37 320 37 341.5 66 c 128,-1,4
 363 95 363 95 363 135.5 c 128,-1,5
 363 176 363 176 341.5 205 c 128,-1,6
 320 234 320 234 289 234 c 256,7,8
 258 234 258 234 236.5 205 c 128,-1,9
 215 176 215 176 215 135 c 128,-1,0
 215 94 215 94 236.5 65.5 c 128,-1,1
178 61 m 1,10,11
 166 95 166 95 166 135 c 0,12,13
 166 196 166 196 202 239.5 c 128,-1,14
 238 283 238 283 288.5 283 c 128,-1,15
 339 283 339 283 375.5 240 c 128,-1,16
 412 197 412 197 412 135.5 c 128,-1,17
 412 74 412 74 372.5 31 c 128,-1,18
 333 -12 333 -12 277 -12 c 0,19,20
 185 -12 185 -12 120 56 c 128,-1,21
 55 124 55 124 55 221 c 0,22,23
 55 338 55 338 127 421 c 128,-1,24
 199 504 199 504 301 504 c 0,25,26
 369 504 369 504 423.5 477.5 c 128,-1,27
 478 451 478 451 504 406 c 1,28,29
 515 449 515 449 547.5 476.5 c 128,-1,30
 580 504 580 504 625.5 504 c 128,-1,31
 671 504 671 504 707.5 464.5 c 128,-1,32
 744 425 744 425 744 369 c 2,33,-1
 744 135 l 2,34,35
 744 94 744 94 769 65.5 c 128,-1,36
 794 37 794 37 830 37 c 0,37,38
 891 37 891 37 934 98.5 c 128,-1,39
 977 160 977 160 977 240.5 c 128,-1,40
 977 321 977 321 944 383.5 c 128,-1,41
 911 446 911 446 854 479 c 1,42,-1
 897 529 l 1,43,44
 962 491 962 491 1000.5 415 c 128,-1,45
 1039 339 1039 339 1039 239 c 128,-1,46
 1039 139 1039 139 977.5 63.5 c 128,-1,47
 916 -12 916 -12 830 -12 c 0,48,49
 769 -12 769 -12 725.5 31 c 128,-1,50
 682 74 682 74 682 135 c 2,51,-1
 682 369 l 2,52,53
 682 402 682 402 664.5 425.5 c 128,-1,54
 647 449 647 449 618.5 449 c 128,-1,55
 590 449 590 449 568.5 418 c 128,-1,56
 547 387 547 387 547 344 c 2,57,-1
 547 0 l 1,58,-1
 486 0 l 1,59,-1
 486 307 l 2,60,61
 486 366 486 366 431.5 407.5 c 128,-1,62
 377 449 377 449 298.5 449 c 128,-1,63
 220 449 220 449 162 382.5 c 128,-1,64
 104 316 104 316 104 221 c 0,65,66
 104 167 104 167 124 124 c 128,-1,67
 144 81 144 81 178 61 c 1,10,11
EndSplineSet
EndChar

StartChar: uni0BB9
Encoding: 3001 3001 238
Width: 1255
GlyphClass: 2
Flags: W
LayerCount: 2
Back
Fore
SplineSet
230.5 65.5 m 128,-1,1
 256 37 256 37 291.5 37 c 128,-1,2
 327 37 327 37 352 66 c 128,-1,3
 377 95 377 95 377 135.5 c 128,-1,4
 377 176 377 176 352 205 c 128,-1,5
 327 234 327 234 291 234 c 256,6,7
 255 234 255 234 230 205 c 128,-1,8
 205 176 205 176 205 135 c 128,-1,0
 205 94 205 94 230.5 65.5 c 128,-1,1
881 455 m 1,9,10
 923.608695652 504 923.608695652 504 1001.80434783 504 c 128,-1,11
 1080 504 1080 504 1134.5 428.5 c 128,-1,12
 1189 353 1189 353 1189 246 c 0,13,14
 1189 94 1189 94 1109.5 -14.5 c 128,-1,15
 1030 -123 1030 -123 918 -123 c 2,16,-1
 205 -123 l 2,17,18
 174 -123 174 -123 153 -144.5 c 128,-1,19
 132 -166 132 -166 132 -191 c 128,-1,20
 132 -216 132 -216 156 -258 c 1,21,-1
 107 -295 l 1,22,23
 70 -251.833333333 70 -251.833333333 70 -199.416666667 c 128,-1,24
 70 -147 70 -147 109.5 -110.5 c 128,-1,25
 149 -74 149 -74 205 -74 c 2,26,-1
 918 -74 l 2,27,28
 1004 -74 1004 -74 1065.5 19.5 c 128,-1,29
 1127 113 1127 113 1127 246 c 0,30,31
 1127 332 1127 332 1091 393.5 c 128,-1,32
 1055 455 1055 455 1009 455 c 128,-1,33
 963 455 963 455 934.5 433.5 c 128,-1,34
 906 412 906 412 906 381 c 2,35,-1
 906 0 l 1,36,-1
 845 0 l 1,37,-1
 845 381 l 2,38,39
 845 412 845 412 827 433.5 c 128,-1,40
 809 455 809 455 783 455 c 256,41,42
 757 455 757 455 739.5 433.5 c 128,-1,43
 722 412 722 412 722 381 c 2,44,-1
 722 0 l 1,45,-1
 451 0 l 1,46,-1
 451 37 l 1,47,48
 513 111.4 513 111.4 513 216.2 c 128,-1,49
 513 321 513 321 459.5 388 c 128,-1,50
 406 455 406 455 315 455 c 128,-1,51
 224 455 224 455 168.5 388 c 128,-1,52
 113 321 113 321 113 209 c 0,53,54
 113 120.5 113 120.5 181 61 c 1,55,56
 156 104.75 156 104.75 156 135 c 0,57,58
 156 196 156 196 195.5 239.5 c 128,-1,59
 235 283 235 283 291.5 283 c 128,-1,60
 348 283 348 283 387.5 240 c 128,-1,61
 427 197 427 197 427 135.5 c 128,-1,62
 427 74 427 74 380 31 c 128,-1,63
 333 -12 333 -12 267 -12 c 0,64,65
 181 -12 181 -12 119.5 52.5 c 128,-1,66
 58 117 58 117 58 209 c 0,67,68
 58 343 58 343 128.5 423.5 c 128,-1,69
 199 504 199 504 316 504 c 256,70,71
 433 504 433 504 503.5 423.5 c 128,-1,72
 574 343 574 343 574 209 c 0,73,74
 574 134.75 574 134.75 525 49 c 1,75,-1
 660 49 l 1,76,-1
 660 381 l 2,77,78
 660 431 660 431 696.5 467.5 c 128,-1,79
 733 504 733 504 786.760869565 504 c 128,-1,80
 840.52173913 504 840.52173913 504 881 455 c 1,9,10
EndSplineSet
EndChar

StartChar: uni0BC0
Encoding: 3008 3008 241
Width: 553
GlyphClass: 2
Flags: W
LayerCount: 2
Back
Fore
SplineSet
150 797.5 m 128,-1,1
 208 848 208 848 284 848 c 128,-1,2
 360 848 360 848 410.5 809 c 128,-1,3
 461 770 461 770 461 716.5 c 128,-1,4
 461 663 461 663 424.5 626.5 c 128,-1,5
 388 590 388 590 338 590 c 256,6,7
 288 590 288 590 251.5 626.5 c 128,-1,8
 215 663 215 663 215 713 c 0,9,10
 215 740 215 740 228 763 c 128,-1,11
 241 786 241 786 264 799 c 1,12,13
 216 790 216 790 185 755 c 128,-1,14
 154 720 154 720 154 673.5 c 128,-1,15
 154 627 154 627 190 577 c 128,-1,16
 226 527 226 527 289 492 c 1,17,-1
 203 492 l 1,18,19
 151 522 151 522 121.5 571.5 c 128,-1,20
 92 621 92 621 92 676 c 0,21,0
 92 747 92 747 150 797.5 c 128,-1,1
294.5 660.5 m 128,-1,23
 312 639 312 639 338 639 c 256,24,25
 364 639 364 639 382 660.5 c 128,-1,26
 400 682 400 682 400 713 c 256,27,28
 400 744 400 744 382 765.5 c 128,-1,29
 364 787 364 787 338 787 c 256,30,31
 312 787 312 787 294.5 765.5 c 128,-1,32
 277 744 277 744 277 713 c 128,-1,22
 277 682 277 682 294.5 660.5 c 128,-1,23
EndSplineSet
EndChar

StartChar: uni0BC1
Encoding: 3009 3009 242
Width: 532
GlyphClass: 4
Flags: W
LayerCount: 2
Back
Fore
SplineSet
-208 492 m 1,0,-1
 333 492 l 2,1,2
 399 492 399 492 446 445 c 128,-1,3
 493 398 493 398 493 332 c 256,4,5
 493 266 493 266 446.5 219 c 128,-1,6
 400 172 400 172 333.5 172 c 128,-1,7
 267 172 267 172 220 219 c 128,-1,8
 173 266 173 266 173 332 c 2,9,-1
 173 443 l 1,10,-1
 -208 443 l 1,11,-1
 -208 492 l 1,0,-1
264 254 m 128,-1,13
 293 221 293 221 333.5 221 c 128,-1,14
 374 221 374 221 402.5 253.5 c 128,-1,15
 431 286 431 286 431 331.5 c 128,-1,16
 431 377 431 377 402.5 410 c 128,-1,17
 374 443 374 443 333 443 c 2,18,-1
 235 443 l 1,19,-1
 235 332 l 2,20,12
 235 287 235 287 264 254 c 128,-1,13
EndSplineSet
EndChar

StartChar: uni0BC2
Encoding: 3010 3010 243
Width: 776
GlyphClass: 4
Flags: W
LayerCount: 2
Back
Fore
SplineSet
124 492 m 1,0,-1
 124 541 l 2,1,2
 124 663 124 663 210.5 749.5 c 128,-1,3
 297 836 297 836 424.5 836 c 128,-1,4
 552 836 552 836 645.5 724 c 128,-1,5
 739 612 739 612 739 449.5 c 128,-1,6
 739 287 739 287 620.5 168 c 128,-1,7
 502 49 502 49 333 49 c 0,8,9
 248 49 248 49 174 81 c 128,-1,10
 100 113 100 113 50 172 c 1,11,-1
 87 209 l 1,12,13
 117 157 117 157 182.5 127.5 c 128,-1,14
 248 98 248 98 333 98 c 0,15,16
 476 98 476 98 576.5 202.5 c 128,-1,17
 677 307 677 307 677 450 c 128,-1,18
 677 593 677 593 601.5 690 c 128,-1,19
 526 787 526 787 424 787 c 128,-1,20
 322 787 322 787 254 715 c 128,-1,21
 186 643 186 643 186 541 c 2,22,-1
 186 492 l 1,23,-1
 345 492 l 2,24,25
 402 492 402 492 441.5 455.5 c 128,-1,26
 481 419 481 419 481 369 c 256,27,28
 481 319 481 319 441.5 282.5 c 128,-1,29
 402 246 402 246 345 246 c 0,30,31
 266 246 266 246 205.5 302 c 128,-1,32
 145 358 145 358 130 443 c 1,33,-1
 -208 443 l 1,34,-1
 -208 492 l 1,35,-1
 124 492 l 1,0,-1
246.5 337 m 128,-1,37
 290 295 290 295 345 295 c 0,38,39
 376 295 376 295 397.5 316.5 c 128,-1,40
 419 338 419 338 419 369 c 256,41,42
 419 400 419 400 397.5 421.5 c 128,-1,43
 376 443 376 443 345 443 c 2,44,-1
 192 443 l 1,45,36
 203 379 203 379 246.5 337 c 128,-1,37
EndSplineSet
EndChar

StartChar: uni0BD0
Encoding: 3024 3024 251
Width: 1023
GlyphClass: 2
Flags: W
LayerCount: 2
Back
Fore
SplineSet
356 -6 m 2,0,1
 356 -21.5555555556 356 -21.5555555556 341.5 -28 c 0,2,3
 337 -30 337 -30 332 -30 c 128,-1,4
 327 -30 327 -30 323 -28 c 128,-1,5
 319 -26 319 -26 315.5 -22.5 c 128,-1,6
 312 -19 312 -19 310 -14 c 128,-1,7
 308 -9 308 -9 308 -4 c 128,-1,8
 308 1 308 1 310 5.5 c 128,-1,9
 312 10 312 10 315.5 14 c 0,10,11
 322.5 22 322.5 22 329.75 22 c 128,-1,12
 337 22 337 22 341.5 20 c 128,-1,13
 346 18 346 18 349 14.5 c 0,14,15
 356 6.33333333333 356 6.33333333333 356 -4 c 2,16,-1
 356 -6 l 2,0,1
369 -164 m 1,17,18
 393 -128 393 -128 371 -100 c 0,19,20
 348 -75 348 -75 326.5 -97.5 c 128,-1,21
 305 -120 305 -120 323 -163 c 1,22,-1
 369 -164 l 1,17,18
628 283 m 1,23,24
 579 223.347826087 579 223.347826087 579 160 c 256,25,26
 579 129 579 129 604 107.5 c 128,-1,27
 629 86 629 86 665 86 c 256,28,29
 701 86 701 86 726 115 c 128,-1,30
 751 144 751 144 751 184 c 0,31,32
 751 301 751 301 654 384 c 128,-1,33
 557 467 557 467 421.5 467 c 128,-1,34
 286 467 286 467 193 391.5 c 128,-1,35
 100 316 100 316 100 209 c 0,36,37
 100 169 100 169 112 135 c 1,38,39
 112 194 112 194 148 235.5 c 128,-1,40
 184 277 184 277 234.5 277 c 128,-1,41
 285 277 285 277 321.5 238.5 c 128,-1,42
 358 200 358 200 358 145.5 c 128,-1,43
 358 91 358 91 321.5 51.5 c 128,-1,44
 285 12 285 12 235 12 c 0,45,46
 159 12 159 12 104.5 70 c 128,-1,47
 50 128 50 128 50 209 c 0,48,49
 50 337 50 337 158.5 426.5 c 128,-1,50
 267 516 267 516 424.5 516 c 128,-1,51
 582 516 582 516 697.5 419 c 128,-1,52
 813 322 813 322 813 184 c 0,53,54
 813 123 813 123 770 80 c 128,-1,55
 727 37 727 37 667.5 37 c 128,-1,56
 608 37 608 37 569 73 c 128,-1,57
 530 109 530 109 530 160 c 0,58,59
 530 180.266666667 530 180.266666667 561 234 c 1,60,61
 524 213 524 213 502.5 179.5 c 128,-1,62
 481 146 481 146 481 111 c 0,63,64
 481 54 481 54 531 14.5 c 128,-1,65
 581 -25 581 -25 653 -25 c 2,66,-1
 788 -25 l 1,67,-1
 788 -74 l 1,68,-1
 607 -74 l 2,69,70
 587 -74 587 -74 559 -98 c 128,-1,71
 531 -122 531 -122 515 -163 c 0,72,73
 449 -336 449 -336 269 -329 c 0,74,75
 37 -320 37 -320 32 -156 c 0,76,77
 30 -108 30 -108 54 -70.5 c 128,-1,78
 78 -33 78 -33 123 -33 c 0,79,80
 150 -33 150 -33 168 -53 c 0,81,82
 191 -82 191 -82 191 -165 c 1,83,84
 239 -166 239 -166 282 -165 c 1,85,86
 271 -101 271 -101 304.5 -70 c 128,-1,87
 338 -39 338 -39 385 -66 c 0,88,89
 420 -86 420 -86 415 -136.5 c 128,-1,90
 410 -187 410 -187 395 -199 c 1,91,-1
 148 -199 l 1,92,93
 163 -115 163 -115 136.5 -88 c 128,-1,94
 110 -61 110 -61 89 -86 c 128,-1,95
 68 -111 68 -111 73 -174 c 0,96,97
 81 -280 81 -280 267 -290 c 0,98,99
 403 -297 403 -297 466 -161 c 1,100,101
 496 -77 496 -77 554 -49 c 1,102,103
 499 -29 499 -29 465 15 c 128,-1,104
 431 59 431 59 431 111 c 0,105,106
 431 182 431 182 489 232.5 c 128,-1,107
 547 283 547 283 628 283 c 1,23,24
191 200 m 128,-1,109
 173 179 173 179 173 145.5 c 128,-1,110
 173 112 173 112 191 86.5 c 128,-1,111
 209 61 209 61 235 61 c 256,112,113
 261 61 261 61 278.5 86.5 c 128,-1,114
 296 112 296 112 296 145.5 c 128,-1,115
 296 179 296 179 278.5 200 c 128,-1,116
 261 221 261 221 235 221 c 256,117,108
 209 221 209 221 191 200 c 128,-1,109
EndSplineSet
EndChar

StartChar: uni0BD7
Encoding: 3031 3031 252
Width: 924
GlyphClass: 2
Flags: W
LayerCount: 2
Back
Fore
SplineSet
225.5 78 m 128,-1,1
 247 49 247 49 278 49 c 256,2,3
 309 49 309 49 330.5 78 c 128,-1,4
 352 107 352 107 352 145.5 c 128,-1,5
 352 184 352 184 330.5 209 c 128,-1,6
 309 234 309 234 278 234 c 256,7,8
 247 234 247 234 225.5 208.5 c 128,-1,9
 204 183 204 183 204 145 c 128,-1,0
 204 107 204 107 225.5 78 c 128,-1,1
179 74 m 1,10,11
 155 116 155 116 155 148 c 0,12,13
 155 205 155 205 191 244 c 128,-1,14
 227 283 227 283 277.5 283 c 128,-1,15
 328 283 328 283 364.5 243.5 c 128,-1,16
 401 204 401 204 401 143 c 128,-1,17
 401 82 401 82 358 35 c 128,-1,18
 315 -12 315 -12 253 -12 c 0,19,20
 172 -12 172 -12 114.5 60 c 128,-1,21
 57 132 57 132 57 239 c 128,-1,22
 57 346 57 346 125 425 c 128,-1,23
 193 504 193 504 290 504 c 0,24,25
 355 504 355 504 408 477.5 c 128,-1,26
 461 451 461 451 487 406 c 1,27,-1
 487 492 l 1,28,-1
 917 492 l 1,29,-1
 917 443 l 1,30,-1
 782 443 l 1,31,-1
 782 0 l 1,32,-1
 720 0 l 1,33,-1
 720 443 l 1,34,-1
 536 443 l 1,35,-1
 536 0 l 1,36,-1
 475 0 l 1,37,-1
 475 246 l 2,38,39
 475 332 475 332 420.5 393.5 c 128,-1,40
 366 455 366 455 290 455 c 256,41,42
 214 455 214 455 160 390.5 c 128,-1,43
 106 326 106 326 106 234 c 0,44,45
 106 187 106 187 125 145 c 128,-1,46
 144 103 144 103 179 74 c 1,10,11
EndSplineSet
EndChar

StartChar: uni0BE6
Encoding: 3046 3046 253
Width: 585
GlyphClass: 2
Flags: W
LayerCount: 2
Back
Fore
SplineSet
123 544.5 m 128,-1,1
 186 639 186 639 293 639 c 256,2,3
 400 639 400 639 462.5 544.5 c 128,-1,4
 525 450 525 450 525 321.5 c 128,-1,5
 525 193 525 193 463 96.5 c 128,-1,6
 401 0 401 0 293 0 c 256,7,8
 185 0 185 0 122.5 96.5 c 128,-1,9
 60 193 60 193 60 321.5 c 128,-1,0
 60 450 60 450 123 544.5 c 128,-1,1
167.5 142 m 128,-1,11
 210 65 210 65 292.5 65 c 128,-1,12
 375 65 375 65 418 142 c 128,-1,13
 461 219 461 219 461 321.5 c 128,-1,14
 461 424 461 424 417.5 499 c 128,-1,15
 374 574 374 574 293 574 c 256,16,17
 212 574 212 574 168.5 499 c 128,-1,18
 125 424 125 424 125 321.5 c 128,-1,10
 125 219 125 219 167.5 142 c 128,-1,11
EndSplineSet
EndChar

StartChar: uni0BE7
Encoding: 3047 3047 254
Width: 700
GlyphClass: 2
Flags: W
LayerCount: 2
Back
Fore
SplineSet
369 270 m 1,0,-1
 369 443 l 1,1,-1
 246 443 l 1,2,-1
 246 270 l 1,3,-1
 369 270 l 1,0,-1
162.5 73.5 m 128,-1,5
 202 37 202 37 252.5 37 c 128,-1,6
 303 37 303 37 336 66 c 128,-1,7
 369 95 369 95 369 135 c 2,8,-1
 369 221 l 1,9,-1
 184 221 l 2,10,11
 158 221 158 221 140.5 203.5 c 128,-1,12
 123 186 123 186 123 160 c 0,13,4
 123 110 123 110 162.5 73.5 c 128,-1,5
467 49 m 1,14,15
 489 37 489 37 515.5 37 c 128,-1,16
 542 37 542 37 560 66 c 128,-1,17
 578 95 578 95 578 133 c 128,-1,18
 578 171 578 171 556.5 196 c 128,-1,19
 535 221 535 221 504 221 c 2,20,-1
 430 221 l 1,21,-1
 430 135 l 2,22,23
 430 74 430 74 379.5 31 c 128,-1,24
 329 -12 329 -12 253 -12 c 128,-1,25
 177 -12 177 -12 119 38.5 c 128,-1,26
 61 89 61 89 61 160 c 0,27,28
 61 205 61 205 97.5 237.5 c 128,-1,29
 134 270 134 270 184 270 c 1,30,-1
 184 492 l 1,31,-1
 565 492 l 1,32,-1
 565 443 l 1,33,-1
 430 443 l 1,34,-1
 430 270 l 1,35,-1
 504 270 l 2,36,37
 561 270 561 270 600 231 c 128,-1,38
 639 192 639 192 639 133 c 128,-1,39
 639 74 639 74 603 31 c 128,-1,40
 567 -12 567 -12 516 -12 c 0,41,42
 489 -12 489 -12 455 0 c 1,43,-1
 467 49 l 1,14,15
EndSplineSet
EndChar

StartChar: uni0BE8
Encoding: 3048 3048 255
Width: 725
GlyphClass: 2
Flags: W
LayerCount: 2
Back
Fore
SplineSet
128.5 300.5 m 128,-1,1
 146 283 146 283 172 283 c 256,2,3
 198 283 198 283 216 300.5 c 128,-1,4
 234 318 234 318 234 346.5 c 128,-1,5
 234 375 234 375 216 396.5 c 128,-1,6
 198 418 198 418 172 418 c 256,7,8
 146 418 146 418 128.5 396.5 c 128,-1,9
 111 375 111 375 111 346.5 c 128,-1,0
 111 318 111 318 128.5 300.5 c 128,-1,1
122.5 460.5 m 128,-1,11
 184 504 184 504 278 504 c 128,-1,12
 372 504 372 504 444 446 c 128,-1,13
 516 388 516 388 516 309.5 c 128,-1,14
 516 231 516 231 454.5 177 c 128,-1,15
 393 123 393 123 307 123 c 2,16,-1
 172 123 l 2,17,18
 151 123 151 123 137 112 c 128,-1,19
 123 101 123 101 123 86 c 256,20,21
 123 71 123 71 137 60 c 128,-1,22
 151 49 151 49 172 49 c 2,23,-1
 664 49 l 1,24,-1
 664 0 l 1,25,-1
 172 0 l 2,26,27
 127 0 127 0 94 25 c 128,-1,28
 61 50 61 50 61 86 c 256,29,30
 61 122 61 122 94 147 c 128,-1,31
 127 172 127 172 172 172 c 2,32,-1
 307 172 l 2,33,34
 368 172 368 172 411.5 211.5 c 128,-1,35
 455 251 455 251 455 309.5 c 128,-1,36
 455 368 455 368 401 411.5 c 128,-1,37
 347 455 347 455 270 455 c 2,38,-1
 197 455 l 1,39,40
 236 441 236 441 259.5 410.5 c 128,-1,41
 283 380 283 380 283 339.5 c 128,-1,42
 283 299 283 299 250.5 266.5 c 128,-1,43
 218 234 218 234 172.5 234 c 128,-1,44
 127 234 127 234 94 270 c 128,-1,45
 61 306 61 306 61 361.5 c 128,-1,10
 61 417 61 417 122.5 460.5 c 128,-1,11
EndSplineSet
EndChar

StartChar: uni0BE9
Encoding: 3049 3049 256
Width: 780
GlyphClass: 2
Flags: W
LayerCount: 2
Back
Fore
SplineSet
487.5 221 m 128,-1,1
 459 246 459 246 416.804347826 246 c 128,-1,2
 374.608695652 246 374.608695652 246 332 197 c 1,3,-1
 332 98 l 1,4,-1
 270 98 l 1,5,-1
 270 443 l 1,6,-1
 123 443 l 1,7,-1
 123 0 l 1,8,-1
 61 0 l 1,9,-1
 61 492 l 1,10,-1
 504 492 l 1,11,-1
 504 443 l 1,12,-1
 332 443 l 1,13,-1
 332 264 l 1,14,15
 369 301 369 301 426.5 301 c 128,-1,16
 484 301 484 301 531 260 c 128,-1,17
 578 219 578 219 578 155.304347826 c 128,-1,18
 578 91.6086956522 578 91.6086956522 529 49 c 1,19,-1
 719 49 l 1,20,-1
 719 0 l 1,21,-1
 270 0 l 1,22,-1
 270 49 l 1,23,-1
 406 49 l 2,24,25
 451 49 451 49 483.5 81.5 c 128,-1,26
 516 114 516 114 516 155 c 128,-1,0
 516 196 516 196 487.5 221 c 128,-1,1
EndSplineSet
EndChar

StartChar: uni0BEA
Encoding: 3050 3050 257
Width: 663
GlyphClass: 2
Flags: W
LayerCount: 2
Back
Fore
SplineSet
369 270 m 1,0,-1
 369 443 l 1,1,-1
 246 443 l 1,2,-1
 246 270 l 1,3,-1
 369 270 l 1,0,-1
162.5 73.5 m 128,-1,5
 202 37 202 37 252.5 37 c 128,-1,6
 303 37 303 37 336 66 c 128,-1,7
 369 95 369 95 369 135 c 2,8,-1
 369 221 l 1,9,-1
 184 221 l 2,10,11
 158 221 158 221 140.5 203.5 c 128,-1,12
 123 186 123 186 123 160 c 0,13,4
 123 110 123 110 162.5 73.5 c 128,-1,5
578 492 m 1,14,-1
 578 443 l 1,15,-1
 430 443 l 1,16,-1
 430 270 l 1,17,-1
 541 270 l 1,18,-1
 541 332 l 1,19,-1
 602 332 l 1,20,-1
 602 221 l 1,21,-1
 430 221 l 1,22,-1
 430 135 l 2,23,24
 430 74 430 74 379.5 31 c 128,-1,25
 329 -12 329 -12 253 -12 c 128,-1,26
 177 -12 177 -12 119 38.5 c 128,-1,27
 61 89 61 89 61 160 c 0,28,29
 61 205 61 205 97.5 237.5 c 128,-1,30
 134 270 134 270 184 270 c 1,31,-1
 184 492 l 1,32,-1
 578 492 l 1,14,-1
EndSplineSet
EndChar

StartChar: uni0BEB
Encoding: 3051 3051 258
Width: 897
GlyphClass: 2
Flags: W
LayerCount: 2
Back
Fore
SplineSet
740 219 m 128,-1,1
 706 258 706 258 662.239130435 258 c 128,-1,2
 618.47826087 258 618.47826087 258 578 209 c 1,3,-1
 578 0 l 1,4,-1
 516 0 l 1,5,-1
 516 443 l 1,6,-1
 369 443 l 1,7,-1
 369 0 l 1,8,-1
 307 0 l 1,9,-1
 307 492 l 1,10,-1
 676 492 l 1,11,-1
 676 443 l 1,12,-1
 578 443 l 1,13,-1
 578 270 l 1,14,15
 588 287 588 287 611 297 c 128,-1,16
 634 307 634 307 664 307 c 0,17,18
 735 307 735 307 785.5 253 c 128,-1,19
 836 199 836 199 836 123 c 0,20,21
 836 -40 836 -40 721 -155 c 128,-1,22
 606 -270 606 -270 446 -270 c 128,-1,23
 286 -270 286 -270 173.5 -128 c 128,-1,24
 61 14 61 14 61 222.5 c 128,-1,25
 61 431 61 431 183.5 584.5 c 128,-1,26
 306 738 306 738 479 738 c 0,27,28
 622 738 622 738 723 644.5 c 128,-1,29
 824 551 824 551 824 418 c 1,30,-1
 762 418 l 1,31,32
 762 530 762 530 679 609 c 128,-1,33
 596 688 596 688 479 688 c 0,34,35
 329 688 329 688 223 549.5 c 128,-1,36
 117 411 117 411 117 222.5 c 128,-1,37
 117 34 117 34 212 -93.5 c 128,-1,38
 307 -221 307 -221 444 -221 c 128,-1,39
 581 -221 581 -221 677.5 -120.5 c 128,-1,40
 774 -20 774 -20 774 123 c 0,41,0
 774 180 774 180 740 219 c 128,-1,1
EndSplineSet
EndChar

StartChar: uni0BEC
Encoding: 3052 3052 259
Width: 829
GlyphClass: 2
Flags: W
LayerCount: 2
Back
Fore
SplineSet
246 270 m 1,0,-1
 369 270 l 1,1,-1
 369 443 l 1,2,-1
 246 443 l 1,3,-1
 246 270 l 1,0,-1
162.5 73.5 m 128,-1,5
 202 37 202 37 252.5 37 c 128,-1,6
 303 37 303 37 336 66 c 128,-1,7
 369 95 369 95 369 135 c 2,8,-1
 369 221 l 1,9,-1
 184 221 l 2,10,11
 158 221 158 221 140.5 203.5 c 128,-1,12
 123 186 123 186 123 160 c 0,13,4
 123 110 123 110 162.5 73.5 c 128,-1,5
97.5 237.5 m 128,-1,15
 134 270 134 270 184 270 c 1,16,-1
 184 492 l 1,17,-1
 602 492 l 1,18,-1
 602 443 l 1,19,-1
 430 443 l 1,20,-1
 430 270 l 1,21,-1
 768 270 l 1,22,-1
 768 221 l 1,23,-1
 701 221 l 1,24,-1
 701 0 l 1,25,-1
 639 0 l 1,26,-1
 639 221 l 1,27,-1
 565 221 l 1,28,-1
 565 0 l 1,29,-1
 504 0 l 1,30,-1
 504 221 l 1,31,-1
 430 221 l 1,32,-1
 430 135 l 2,33,34
 430 74 430 74 379.5 31 c 128,-1,35
 329 -12 329 -12 253 -12 c 128,-1,36
 177 -12 177 -12 119 38.5 c 128,-1,37
 61 89 61 89 61 160 c 0,38,14
 61 205 61 205 97.5 237.5 c 128,-1,15
EndSplineSet
EndChar

StartChar: uni0BED
Encoding: 3053 3053 260
Width: 768
GlyphClass: 2
Flags: W
LayerCount: 2
Back
Fore
SplineSet
242.5 65.5 m 128,-1,1
 264 37 264 37 295 37 c 256,2,3
 326 37 326 37 347.5 66 c 128,-1,4
 369 95 369 95 369 133 c 128,-1,5
 369 171 369 171 347.5 196 c 128,-1,6
 326 221 326 221 295 221 c 256,7,8
 264 221 264 221 242.5 196 c 128,-1,9
 221 171 221 171 221 132.5 c 128,-1,0
 221 94 221 94 242.5 65.5 c 128,-1,1
209 49 m 1,10,11
 172 92.1666666667 172 92.1666666667 172 142.083333333 c 128,-1,12
 172 192 172 192 208.5 231 c 128,-1,13
 245 270 245 270 298.5 270 c 128,-1,14
 352 270 352 270 391 231 c 128,-1,15
 430 192 430 192 430 133 c 128,-1,16
 430 74 430 74 383.5 31 c 128,-1,17
 337 -12 337 -12 270 -12 c 0,18,19
 184 -12 184 -12 122.5 56 c 128,-1,20
 61 124 61 124 61 228.5 c 128,-1,21
 61 333 61 333 137 412.5 c 128,-1,22
 213 492 213 492 320 492 c 2,23,-1
 707 492 l 1,24,-1
 707 443 l 1,25,-1
 627 443 l 1,26,-1
 627 0 l 1,27,-1
 565 0 l 1,28,-1
 565 443 l 1,29,-1
 320 443 l 2,30,31
 234 443 234 443 172.5 378 c 128,-1,32
 111 313 111 313 111 221 c 0,33,34
 111 167 111 167 137 121 c 128,-1,35
 163 75 163 75 209 49 c 1,10,11
EndSplineSet
EndChar

StartChar: uni0BEE
Encoding: 3054 3054 261
Width: 1020
GlyphClass: 2
Flags: W
LayerCount: 2
Back
Fore
SplineSet
799 258 m 0,0,1
 799 220 799 220 787 184 c 1,2,-1
 897 184 l 1,3,-1
 897 492 l 1,4,-1
 959 492 l 1,5,-1
 959 -61 l 1,6,-1
 897 -61 l 1,7,-1
 897 135 l 1,8,-1
 774 135 l 1,9,10
 737 35 737 35 641.5 -25.5 c 128,-1,11
 546 -86 546 -86 424 -86 c 0,12,13
 251.375 -86 251.375 -86 135 12 c 0,14,15
 61 73.6666666667 61 73.6666666667 61 123 c 0,16,17
 61 149 61 149 82.5 166.5 c 128,-1,18
 104 184 104 184 135 184 c 2,19,-1
 338 186 l 1,20,21
 305 198 305 198 284.5 233 c 128,-1,22
 264 268 264 268 264 313 c 0,23,24
 264 392 264 392 338 448 c 128,-1,25
 412 504 412 504 522.5 504 c 128,-1,26
 633 504 633 504 716 432 c 128,-1,27
 799 360 799 360 799 258 c 0,0,1
361 222 m 128,-1,29
 402 184 402 184 460 184 c 128,-1,30
 518 184 518 184 557 220.5 c 128,-1,31
 596 257 596 257 596 310.5 c 128,-1,32
 596 364 596 364 557 403.5 c 128,-1,33
 518 443 518 443 460 443 c 128,-1,34
 402 443 402 443 361 404.5 c 128,-1,35
 320 366 320 366 320 313 c 128,-1,28
 320 260 320 260 361 222 c 128,-1,29
148 135 m 2,36,37
 138 135 138 135 130.5 127.5 c 128,-1,38
 123 120 123 120 123 112.5 c 0,39,40
 123 97.0769230769 123 97.0769230769 148 74 c 0,41,42
 201 21 201 21 271.5 -8 c 128,-1,43
 342 -37 342 -37 418 -37 c 0,44,45
 522 -37 522 -37 603.5 10.5 c 128,-1,46
 685 58 685 58 713 135 c 1,47,-1
 148 135 l 2,36,37
725 184 m 1,48,49
 738 220.833333333 738 220.833333333 738 258 c 0,50,51
 738 335 738 335 687.5 394.5 c 128,-1,52
 637 454 637 454 559 467 c 1,53,54
 602 436 602 436 627 394 c 128,-1,55
 652 352 652 352 652 310.5 c 0,56,57
 652 225.333333333 652 225.333333333 590 184 c 1,58,-1
 725 184 l 1,48,49
EndSplineSet
EndChar

StartChar: uni0BEF
Encoding: 3055 3055 262
Width: 946
GlyphClass: 2
Flags: W
LayerCount: 2
Back
Fore
SplineSet
369 270 m 1,0,-1
 369 443 l 1,1,-1
 246 443 l 1,2,-1
 246 270 l 1,3,-1
 369 270 l 1,0,-1
162.5 82 m 128,-1,5
 202 49 202 49 252.5 49 c 128,-1,6
 303 49 303 49 336 74.5 c 128,-1,7
 369 100 369 100 369 135 c 2,8,-1
 369 221 l 1,9,-1
 184 221 l 2,10,11
 158 221 158 221 140.5 203.5 c 128,-1,12
 123 186 123 186 123 160 c 0,13,4
 123 115 123 115 162.5 82 c 128,-1,5
578 221 m 1,14,15
 553 177.25 553 177.25 553 132.125 c 128,-1,16
 553 87 553 87 567 62 c 128,-1,17
 581 37 581 37 602 37 c 256,18,19
 623 37 623 37 637.5 62 c 128,-1,20
 652 87 652 87 652 121 c 128,-1,21
 652 155 652 155 631.5 182 c 128,-1,22
 611 209 611 209 578 221 c 1,14,15
532.5 27 m 128,-1,24
 504 66 504 66 504 123.307692308 c 128,-1,25
 504 180.615384615 504 180.615384615 529 221 c 1,26,-1
 430 221 l 1,27,-1
 430 135 l 2,28,29
 430 74 430 74 379.5 31 c 128,-1,30
 329 -12 329 -12 253 -12 c 128,-1,31
 177 -12 177 -12 119 38.5 c 128,-1,32
 61 89 61 89 61 160 c 0,33,34
 61 205 61 205 97.5 237.5 c 128,-1,35
 134 270 134 270 184 270 c 1,36,-1
 184 492 l 1,37,-1
 547 492 l 1,38,-1
 547 443 l 1,39,-1
 430 443 l 1,40,-1
 430 270 l 1,41,-1
 553 270 l 1,42,43
 578 304 578 304 618.5 324 c 128,-1,44
 659 344 659 344 707 344 c 0,45,46
 781 344 781 344 833 293.5 c 128,-1,47
 885 243 885 243 885 172 c 0,48,49
 885 75.724137931 885 75.724137931 824 0 c 1,50,-1
 756 0 l 1,51,52
 824 80.3636363636 824 80.3636363636 824 172 c 0,53,54
 824 222 824 222 789.5 258.5 c 128,-1,55
 755 295 755 295 707 295 c 0,56,57
 640.647058824 295 640.647058824 295 608 258 c 1,58,59
 650 243 650 243 675.5 205.5 c 128,-1,60
 701 168 701 168 701 117 c 128,-1,61
 701 66 701 66 672 27 c 128,-1,62
 643 -12 643 -12 602 -12 c 256,63,23
 561 -12 561 -12 532.5 27 c 128,-1,24
EndSplineSet
EndChar

StartChar: uni0BF0
Encoding: 3056 3056 263
Width: 661
GlyphClass: 2
Flags: W
LayerCount: 2
Back
Fore
SplineSet
311 49 m 1,0,1
 260.166666667 -12 260.166666667 -12 201.583333333 -12 c 128,-1,2
 143 -12 143 -12 104 27 c 128,-1,3
 65 66 65 66 65 123 c 2,4,-1
 65 369 l 1,5,-1
 127 369 l 1,6,-1
 127 123 l 2,7,8
 127 87 127 87 148.5 62 c 128,-1,9
 170 37 170 37 200.5 37 c 128,-1,10
 231 37 231 37 252.5 62 c 128,-1,11
 274 87 274 87 274 123 c 2,12,-1
 274 369 l 1,13,-1
 336 369 l 1,14,-1
 336 123 l 1,15,16
 350 84 350 84 376.5 60.5 c 128,-1,17
 403 37 403 37 434 37 c 0,18,19
 479 37 479 37 512 87.5 c 128,-1,20
 545 138 545 138 545 209 c 0,21,22
 545 306 545 306 487 374.5 c 128,-1,23
 429 443 429 443 348 443 c 2,24,-1
 188 443 l 1,25,-1
 188 492 l 1,26,-1
 348 492 l 2,27,28
 455 492 455 492 530.5 409 c 128,-1,29
 606 326 606 326 606 209 c 0,30,31
 606 117 606 117 555.5 52.5 c 128,-1,32
 505 -12 505 -12 434 -12 c 0,33,34
 391 -12 391 -12 358 4.5 c 128,-1,35
 325 21 325 21 311 49 c 1,0,1
EndSplineSet
EndChar

StartChar: uni0BF1
Encoding: 3057 3057 264
Width: 684
GlyphClass: 2
Flags: W
LayerCount: 2
Back
Fore
SplineSet
128 465 m 128,-1,1
 167 504 167 504 225.25862069 504 c 128,-1,2
 283.517241379 504 283.517241379 504 334 443 c 1,3,4
 348 471 348 471 381 487.5 c 128,-1,5
 414 504 414 504 457 504 c 2,6,-1
 679 504 l 1,7,-1
 679 449 l 1,8,-1
 580 449 l 1,9,-1
 580 0 l 1,10,-1
 519 0 l 1,11,-1
 519 449 l 1,12,-1
 457 449 l 2,13,14
 426 449 426 449 399 426.5 c 128,-1,15
 372 404 372 404 359 369 c 1,16,-1
 359 0 l 1,17,-1
 297 0 l 1,18,-1
 297 369 l 2,19,20
 297 405 297 405 275.5 430 c 128,-1,21
 254 455 254 455 223.5 455 c 128,-1,22
 193 455 193 455 171.5 429.5 c 128,-1,23
 150 404 150 404 150 369 c 2,24,-1
 150 0 l 1,25,-1
 89 0 l 1,26,-1
 89 369 l 2,27,0
 89 426 89 426 128 465 c 128,-1,1
EndSplineSet
EndChar

StartChar: uni0BF2
Encoding: 3058 3058 265
Width: 759
GlyphClass: 2
Flags: W
LayerCount: 2
Back
Fore
SplineSet
219 270 m 1,0,-1
 342 270 l 1,1,-1
 342 443 l 1,2,-1
 219 443 l 1,3,-1
 219 270 l 1,0,-1
135.5 73.5 m 128,-1,5
 175 37 175 37 225.5 37 c 128,-1,6
 276 37 276 37 309 66 c 128,-1,7
 342 95 342 95 342 135 c 2,8,-1
 342 221 l 1,9,-1
 157 221 l 2,10,11
 131 221 131 221 113.5 203.5 c 128,-1,12
 96 186 96 186 96 160 c 0,13,4
 96 110 96 110 135.5 73.5 c 128,-1,5
514 135 m 1,14,15
 546.647058824 172 546.647058824 172 601.823529412 172 c 128,-1,16
 657 172 657 172 696 125.5 c 128,-1,17
 735 79 735 79 735 10 c 128,-1,18
 735 -59 735 -59 667 -109.5 c 128,-1,19
 599 -160 599 -160 502 -160 c 2,20,-1
 157 -160 l 2,21,22
 116 -160 116 -160 87.5 -196 c 128,-1,23
 59 -232 59 -232 59 -283 c 1,24,-1
 10 -283 l 1,25,26
 10 -212 10 -212 53 -161.5 c 128,-1,27
 96 -111 96 -111 157 -111 c 2,28,-1
 502 -111 l 2,29,30
 573 -111 573 -111 623.5 -74.5 c 128,-1,31
 674 -38 674 -38 674 9.5 c 128,-1,32
 674 57 674 57 652.5 90 c 128,-1,33
 631 123 631 123 600.5 123 c 128,-1,34
 570 123 570 123 546 104 c 128,-1,35
 522 85 522 85 514 55 c 1,36,-1
 514 0 l 1,37,-1
 452 0 l 1,38,-1
 452 221 l 1,39,-1
 403 221 l 1,40,-1
 403 135 l 2,41,42
 403 74 403 74 352.5 31 c 128,-1,43
 302 -12 302 -12 226 -12 c 128,-1,44
 150 -12 150 -12 92 38.5 c 128,-1,45
 34 89 34 89 34 160 c 0,46,47
 34 205 34 205 70.5 237.5 c 128,-1,48
 107 270 107 270 157 270 c 1,49,-1
 157 492 l 1,50,-1
 575 492 l 1,51,-1
 575 443 l 1,52,-1
 403 443 l 1,53,-1
 403 270 l 1,54,-1
 649 270 l 1,55,-1
 649 221 l 1,56,-1
 514 221 l 1,57,-1
 514 135 l 1,14,15
EndSplineSet
EndChar

StartChar: uni0BF3
Encoding: 3059 3059 266
Width: 910
GlyphClass: 2
Flags: W
LayerCount: 2
Back
Fore
SplineSet
225.5 65.5 m 128,-1,1
 251 37 251 37 289 37 c 128,-1,2
 327 37 327 37 356 66 c 128,-1,3
 385 95 385 95 385 135.5 c 128,-1,4
 385 176 385 176 356 205 c 128,-1,5
 327 234 327 234 288.5 234 c 128,-1,6
 250 234 250 234 225 205 c 128,-1,7
 200 176 200 176 200 135 c 128,-1,0
 200 94 200 94 225.5 65.5 c 128,-1,1
163 74 m 1,8,9
 151 108 151 108 151 135 c 0,10,11
 151 196 151 196 190.5 239.5 c 128,-1,12
 230 283 230 283 288.5 283 c 128,-1,13
 347 283 347 283 390.5 240 c 128,-1,14
 434 197 434 197 434 135.5 c 128,-1,15
 434 74 434 74 391 31 c 128,-1,16
 348 -12 348 -12 286 -12 c 0,17,18
 189 -12 189 -12 121 60 c 128,-1,19
 53 132 53 132 53 239 c 128,-1,20
 53 346 53 346 132 425 c 128,-1,21
 211 504 211 504 325.5 504 c 128,-1,22
 440 504 440 504 523 424.5 c 128,-1,23
 606 345 606 345 606 239.875 c 128,-1,24
 606 134.75 606 134.75 557 49 c 1,25,-1
 901 49 l 1,26,-1
 901 0 l 1,27,-1
 483 0 l 1,28,-1
 483 37 l 1,29,30
 545 111.4 545 111.4 545 234 c 0,31,32
 545 326 545 326 480.5 390.5 c 128,-1,33
 416 455 416 455 323.5 455 c 128,-1,34
 231 455 231 455 166.5 390.5 c 128,-1,35
 102 326 102 326 102 234 c 0,36,37
 102 147.620689655 102 147.620689655 163 74 c 1,8,9
EndSplineSet
EndChar

StartChar: uni0BF4
Encoding: 3060 3060 267
Width: 1062
GlyphClass: 2
Flags: W
LayerCount: 2
Back
Fore
SplineSet
449 49 m 1,0,-1
 621 49 l 2,1,2
 657 49 657 49 682 88.5 c 128,-1,3
 707 128 707 128 707 184 c 0,4,5
 707 296 707 296 653 375.5 c 128,-1,6
 599 455 599 455 522 455 c 0,7,8
 491 455 491 455 470 429.5 c 128,-1,9
 449 404 449 404 449 369 c 2,10,-1
 449 49 l 1,0,-1
908 762 m 1,11,12
 869.545454545 809 869.545454545 809 816 809 c 128,-1,13
 762.615384615 809 762.615384615 809 728 784 c 1,14,15
 760 762 760 762 778.5 733 c 128,-1,16
 797 704 797 704 797 676 c 0,17,18
 797 631 797 631 760 598 c 128,-1,19
 723 565 723 565 676 565 c 128,-1,20
 629 565 629 565 600.5 594 c 128,-1,21
 572 623 572 623 572 660.5 c 128,-1,22
 572 698 572 698 588.5 728 c 128,-1,23
 605 758 605 758 633 774 c 1,24,-1
 608 774 l 2,25,26
 554 774 554 774 515.5 738 c 128,-1,27
 477 702 477 702 477 657.5 c 128,-1,28
 477 613 477 613 512 570 c 128,-1,29
 547 527 547 527 608 492 c 1,30,31
 681 466 681 466 724.5 381 c 128,-1,32
 768 296 768 296 768 184 c 0,33,34
 768 108 768 108 725 54 c 128,-1,35
 682 0 682 0 621 0 c 2,36,-1
 92 0 l 1,37,-1
 92 492 l 1,38,-1
 154 492 l 1,39,-1
 154 49 l 1,40,-1
 387 49 l 1,41,-1
 387 369 l 2,42,43
 387 426 387 426 423.5 465 c 128,-1,44
 460 504 460 504 510 504 c 1,45,46
 471 527 471 527 447.5 566.5 c 128,-1,47
 424 606 424 606 424 652 c 0,48,49
 424 723 424 723 478 773.5 c 128,-1,50
 532 824 532 824 608 824 c 0,51,52
 654 824 654 824 681 815 c 1,53,54
 748.571428571 858 748.571428571 858 816 858 c 0,55,56
 854 858 854 858 887 841.5 c 128,-1,57
 920 825 920 825 939 797 c 1,58,59
 962 827 962 827 995 842.5 c 128,-1,60
 1028 858 1028 858 1062 858 c 1,61,-1
 1062 809 l 1,62,63
 1040 809 1040 809 1018.5 796 c 128,-1,64
 997 783 997 783 982 760 c 1,65,66
 1014 718 1014 718 1014 687 c 128,-1,67
 1014 656 1014 656 994 634 c 128,-1,68
 974 612 974 612 944 612 c 256,69,70
 914 612 914 612 893 634 c 128,-1,71
 872 656 872 656 872 689.941176471 c 128,-1,72
 872 723.882352941 872 723.882352941 908 762 c 1,11,12
635 629 m 128,-1,74
 649 615 649 615 675 615 c 128,-1,75
 701 615 701 615 722.5 632.5 c 128,-1,76
 744 650 744 650 744 675.5 c 128,-1,77
 744 701 744 701 729 722.5 c 128,-1,78
 714 744 714 744 688 756 c 1,79,80
 657 741 657 741 639 716.5 c 128,-1,81
 621 692 621 692 621 667.5 c 128,-1,73
 621 643 621 643 635 629 c 128,-1,74
944 725 m 1,82,83
 922 709.6 922 709.6 922 688 c 0,84,85
 922 678 922 678 928.5 671 c 128,-1,86
 935 664 935 664 944 664 c 256,87,88
 953 664 953 664 959 671.5 c 128,-1,89
 965 679 965 679 965 688.5 c 0,90,91
 965 710.3 965 710.3 944 725 c 1,82,83
EndSplineSet
EndChar

StartChar: uni0BF5
Encoding: 3061 3061 268
Width: 1800
GlyphClass: 2
Flags: W
LayerCount: 2
Back
Fore
SplineSet
410 65.5 m 128,-1,1
 434 37 434 37 467 37 c 256,2,3
 500 37 500 37 524 66 c 128,-1,4
 548 95 548 95 548 135.5 c 128,-1,5
 548 176 548 176 524 205 c 128,-1,6
 500 234 500 234 467 234 c 256,7,8
 434 234 434 234 410 205 c 128,-1,9
 386 176 386 176 386 135 c 128,-1,0
 386 94 386 94 410 65.5 c 128,-1,1
702 424.5 m 128,-1,11
 782 345 782 345 782 240 c 128,-1,12
 782 135 782 135 739 49 c 1,13,-1
 929 49 l 1,14,-1
 929 492 l 1,15,-1
 1302 492 l 1,16,-1
 1302 443 l 1,17,-1
 1175 443 l 1,18,-1
 1175 240 l 1,19,20
 1209 270 1209 270 1255.5 270 c 128,-1,21
 1302 270 1302 270 1338 220 c 128,-1,22
 1374 170 1374 170 1374 98 c 0,23,24
 1374 -75 1374 -75 1182.5 -197.5 c 128,-1,25
 991 -320 991 -320 720 -320 c 128,-1,26
 449 -320 449 -320 257 -168.5 c 128,-1,27
 65 -17 65 -17 65 202 c 128,-1,28
 65 421 65 421 277.5 579.5 c 128,-1,29
 490 738 490 738 791.5 738 c 128,-1,30
 1093 738 1093 738 1305.5 629.5 c 128,-1,31
 1518 521 1518 521 1518 369 c 2,32,-1
 1518 184 l 2,33,34
 1518 127 1518 127 1544 88 c 128,-1,35
 1570 49 1570 49 1611 49 c 128,-1,36
 1652 49 1652 49 1684.5 107 c 128,-1,37
 1717 165 1717 165 1717 246 c 256,38,39
 1717 327 1717 327 1688.5 385 c 128,-1,40
 1660 443 1660 443 1618 443 c 1,41,-1
 1637 492 l 1,42,43
 1690 492 1690 492 1728 420 c 128,-1,44
 1766 348 1766 348 1766 246 c 256,45,46
 1766 144 1766 144 1719.5 72 c 128,-1,47
 1673 0 1673 0 1609.5 0 c 128,-1,48
 1546 0 1546 0 1502.5 54 c 128,-1,49
 1459 108 1459 108 1459 184 c 2,50,-1
 1459 369 l 2,51,52
 1459 502 1459 502 1263 595 c 128,-1,53
 1067 688 1067 688 789 688 c 256,54,55
 511 688 511 688 315 544.5 c 128,-1,56
 119 401 119 401 119 202.5 c 128,-1,57
 119 4 119 4 294.5 -133 c 128,-1,58
 470 -270 470 -270 717.5 -270 c 128,-1,59
 965 -270 965 -270 1140 -162 c 128,-1,60
 1315 -54 1315 -54 1315 98 c 0,61,62
 1315 146 1315 146 1295 180.5 c 128,-1,63
 1275 215 1275 215 1246 215 c 128,-1,64
 1217 215 1217 215 1196 193.5 c 128,-1,65
 1175 172 1175 172 1175 141 c 2,66,-1
 1175 0 l 1,67,-1
 1116 0 l 1,68,-1
 1116 443 l 1,69,-1
 990 443 l 1,70,-1
 990 0 l 1,71,-1
 668 0 l 1,72,-1
 668 37 l 1,73,74
 722 107.615384615 722 107.615384615 722 234 c 0,75,76
 722 326 722 326 659.5 390.5 c 128,-1,77
 597 455 597 455 509.5 455 c 128,-1,78
 422 455 422 455 359.5 390.5 c 128,-1,79
 297 326 297 326 297 234 c 0,80,81
 297 139.28 297 139.28 348 74 c 1,82,83
 337 111.4 337 111.4 337 135 c 0,84,85
 337 196 337 196 373 239.5 c 128,-1,86
 409 283 409 283 463.5 283 c 128,-1,87
 518 283 518 283 557.5 240 c 128,-1,88
 597 197 597 197 597 135.5 c 128,-1,89
 597 74 597 74 557.5 31 c 128,-1,90
 518 -12 518 -12 461 -12 c 0,91,92
 359 -12 359 -12 297.5 55 c 128,-1,93
 236 122 236 122 236 234 c 256,94,95
 236 346 236 346 316 425 c 128,-1,96
 396 504 396 504 509 504 c 256,97,10
 622 504 622 504 702 424.5 c 128,-1,11
EndSplineSet
EndChar

StartChar: uni0BF6
Encoding: 3062 3062 269
Width: 791
GlyphClass: 2
Flags: W
LayerCount: 2
Back
Fore
SplineSet
85 492 m 1,0,-1
 146 492 l 1,1,-1
 146 135 l 2,2,3
 146 94 146 94 171.5 65.5 c 128,-1,4
 197 37 197 37 237 37 c 128,-1,5
 277 37 277 37 310 69.5 c 128,-1,6
 343 102 343 102 343 148 c 2,7,-1
 343 492 l 1,8,-1
 404 492 l 1,9,-1
 404 -61 l 1,10,-1
 638 -61 l 1,11,-1
 638 492 l 1,12,-1
 699 492 l 1,13,-1
 699 -111 l 1,14,-1
 404 -111 l 1,15,-1
 404 -184 l 2,16,17
 404 -234 404 -234 370 -270.5 c 128,-1,18
 336 -307 336 -307 288 -307 c 2,19,-1
 202 -307 l 2,20,21
 152 -307 152 -307 115.5 -271 c 128,-1,22
 79 -235 79 -235 79 -184.5 c 128,-1,23
 79 -134 79 -134 115 -97.5 c 128,-1,24
 151 -61 151 -61 202 -61 c 2,25,-1
 343 -61 l 1,26,-1
 343 37 l 1,27,28
 329 14 329 14 299.5 1 c 128,-1,29
 270 -12 270 -12 232 -12 c 0,30,31
 171 -12 171 -12 128 31 c 128,-1,32
 85 74 85 74 85 135 c 2,33,-1
 85 492 l 1,0,-1
158 -236.5 m 128,-1,35
 176 -258 176 -258 202 -258 c 2,36,-1
 288 -258 l 2,37,38
 311 -258 311 -258 327 -236.5 c 128,-1,39
 343 -215 343 -215 343 -184 c 2,40,-1
 343 -111 l 1,41,-1
 202 -111 l 2,42,43
 176 -111 176 -111 158 -132.5 c 128,-1,44
 140 -154 140 -154 140 -184.5 c 128,-1,34
 140 -215 140 -215 158 -236.5 c 128,-1,35
EndSplineSet
EndChar

StartChar: uni0BF7
Encoding: 3063 3063 270
Width: 1336
GlyphClass: 2
Flags: W
LayerCount: 2
Back
Fore
SplineSet
235.5 65.5 m 128,-1,1
 257 37 257 37 288 37 c 256,2,3
 319 37 319 37 340 66 c 128,-1,4
 361 95 361 95 361 133 c 128,-1,5
 361 171 361 171 339.5 196 c 128,-1,6
 318 221 318 221 287.5 221 c 128,-1,7
 257 221 257 221 235.5 196 c 128,-1,8
 214 171 214 171 214 132.5 c 128,-1,0
 214 94 214 94 235.5 65.5 c 128,-1,1
202 49 m 1,9,10
 165 92.1666666667 165 92.1666666667 165 142.083333333 c 128,-1,11
 165 192 165 192 201 231 c 128,-1,12
 237 270 237 270 291 270 c 128,-1,13
 345 270 345 270 384 231 c 128,-1,14
 423 192 423 192 423 133 c 128,-1,15
 423 74 423 74 376 31 c 128,-1,16
 329 -12 329 -12 263 -12 c 0,17,18
 177 -12 177 -12 115.5 56 c 128,-1,19
 54 124 54 124 54 228.5 c 128,-1,20
 54 333 54 333 129.5 412.5 c 128,-1,21
 205 492 205 492 312 492 c 2,22,-1
 742 492 l 1,23,-1
 742 443 l 1,24,-1
 620 443 l 1,25,-1
 620 145 l 1,26,27
 656.705882353 189.862745098 656.705882353 189.862745098 717 218 c 1,28,29
 733 284 733 284 787 326 c 128,-1,30
 841 368 841 368 908 368 c 0,31,32
 993 368 993 368 1053.5 310 c 128,-1,33
 1114 252 1114 252 1114 172.194444444 c 128,-1,34
 1114 92.3888888889 1114 92.3888888889 1079 36 c 1,35,-1
 1329 36 l 1,36,-1
 1329 0 l 1,37,-1
 1024 0 l 1,38,-1
 1024 27 l 1,39,40
 1068 81.4761904762 1068 81.4761904762 1068 171 c 0,41,42
 1068 237 1068 237 1021.5 284.5 c 128,-1,43
 975 332 975 332 908 332 c 0,44,45
 860 332 860 332 820.5 305 c 128,-1,46
 781 278 781 278 761 232 c 1,47,48
 801 242 801 242 837 242 c 0,49,50
 900 242 900 242 945 203.5 c 128,-1,51
 990 165 990 165 990 113.5 c 128,-1,52
 990 62 990 62 952.5 26.5 c 128,-1,53
 915 -9 915 -9 857 -9 c 128,-1,54
 799 -9 799 -9 755 44 c 128,-1,55
 711 97 711 97 711 171 c 1,56,57
 641.639798489 131.98488665 641.639798489 131.98488665 620 71 c 1,58,-1
 620 0 l 1,59,-1
 558 0 l 1,60,-1
 558 443 l 1,61,-1
 312 443 l 2,62,63
 226 443 226 443 164.5 378 c 128,-1,64
 103 313 103 313 103 221 c 0,65,66
 103 167 103 167 129.5 121 c 128,-1,67
 156 75 156 75 202 49 c 1,9,10
837 202 m 128,-1,69
 794 202 794 202 749 187 c 1,70,71
 749 123 749 123 782 78 c 128,-1,72
 815 33 815 33 862 33 c 0,73,74
 895 33 895 33 917.5 56 c 128,-1,75
 940 79 940 79 940 114 c 128,-1,76
 940 149 940 149 910 175.5 c 128,-1,68
 880 202 880 202 837 202 c 128,-1,69
EndSplineSet
EndChar

StartChar: uni0BF8
Encoding: 3064 3064 271
Width: 1595
GlyphClass: 2
Flags: W
LayerCount: 2
Back
Fore
SplineSet
793 363 m 1,0,1
 799 336 799 336 799 307 c 0,2,3
 799 179 799 179 752.5 89.5 c 128,-1,4
 706 0 706 0 639 0 c 0,5,6
 603 0 603 0 578 36.5 c 128,-1,7
 553 73 553 73 553 123 c 0,8,9
 553 215 553 215 598.5 287.5 c 128,-1,10
 644 360 644 360 719 387 c 1,11,12
 680 495 680 495 600.5 561 c 128,-1,13
 521 627 521 627 430 627 c 0,14,15
 300 627 300 627 208.5 533.5 c 128,-1,16
 117 440 117 440 117 307 c 0,17,18
 117 218.740740741 117 218.740740741 172 123 c 1,19,20
 166 187 166 187 206.5 235 c 128,-1,21
 247 283 247 283 307.5 283 c 128,-1,22
 368 283 368 283 411.5 240 c 128,-1,23
 455 197 455 197 455 135.5 c 128,-1,24
 455 74 455 74 412 31 c 128,-1,25
 369 -12 369 -12 307 -12 c 0,26,27
 205 -12 205 -12 133 81.5 c 128,-1,28
 61 175 61 175 61 307 c 0,29,30
 61 459 61 459 169.5 567.5 c 128,-1,31
 278 676 278 676 430 676 c 0,32,33
 543 676 543 676 639.5 601.5 c 128,-1,34
 736 527 736 527 781 406 c 1,35,36
 815 418 815 418 861 418 c 0,37,38
 937 418 937 418 991 360 c 128,-1,39
 1045 302 1045 302 1045 221 c 0,40,41
 1045 100.666666667 1045 100.666666667 983 49 c 1,42,-1
 1217 49 l 1,43,44
 1172 70 1172 70 1145.5 113.5 c 128,-1,45
 1119 157 1119 157 1119 211.5 c 128,-1,46
 1119 266 1119 266 1162 305 c 128,-1,47
 1205 344 1205 344 1266 344 c 256,48,49
 1327 344 1327 344 1370.5 305 c 128,-1,50
 1414 266 1414 266 1414 209 c 2,51,-1
 1414 49 l 1,52,-1
 1586 49 l 1,53,-1
 1586 0 l 1,54,-1
 1414 0 l 1,55,-1
 1414 -295 l 1,56,-1
 1352 -295 l 1,57,-1
 1352 0 l 1,58,-1
 873 0 l 1,59,-1
 873 37 l 1,60,61
 923 55 923 55 953 105.5 c 128,-1,62
 983 156 983 156 983 219 c 128,-1,63
 983 282 983 282 944 325.5 c 128,-1,64
 905 369 905 369 848 369 c 0,65,66
 817 369 817 369 793 363 c 1,0,1
246.5 65.5 m 128,-1,68
 272 37 272 37 307.5 37 c 128,-1,69
 343 37 343 37 368 66 c 128,-1,70
 393 95 393 95 393 135.5 c 128,-1,71
 393 176 393 176 366 205 c 128,-1,72
 339 234 339 234 303.5 234 c 128,-1,73
 268 234 268 234 244.5 205 c 128,-1,74
 221 176 221 176 221 135 c 128,-1,67
 221 94 221 94 246.5 65.5 c 128,-1,68
622 70.5 m 128,-1,76
 629 49 629 49 639 49 c 0,77,78
 677 49 677 49 704 124.5 c 128,-1,79
 731 200 731 200 731 307 c 2,80,-1
 731 344 l 1,81,82
 678 324 678 324 646.5 263.5 c 128,-1,83
 615 203 615 203 615 123 c 0,84,75
 615 92 615 92 622 70.5 c 128,-1,76
1230.5 96 m 128,-1,86
 1281 49 1281 49 1352 49 c 1,87,-1
 1352 209 l 2,88,89
 1352 245 1352 245 1327 270 c 128,-1,90
 1302 295 1302 295 1266 295 c 256,91,92
 1230 295 1230 295 1205 270 c 128,-1,93
 1180 245 1180 245 1180 209 c 0,94,85
 1180 143 1180 143 1230.5 96 c 128,-1,86
EndSplineSet
EndChar

StartChar: uni0BF9
Encoding: 3065 3065 272
Width: 1231
GlyphClass: 2
Flags: W
LayerCount: 2
Back
Fore
SplineSet
754.5 219 m 128,-1,1
 720 258 720 258 676.739130435 258 c 128,-1,2
 633.47826087 258 633.47826087 258 593 209 c 1,3,-1
 593 0 l 1,4,-1
 531 0 l 1,5,-1
 531 443 l 1,6,-1
 384 443 l 1,7,-1
 384 0 l 1,8,-1
 322 0 l 1,9,-1
 322 492 l 1,10,-1
 691 492 l 1,11,-1
 691 443 l 1,12,-1
 593 443 l 1,13,-1
 593 270 l 1,14,15
 603 287 603 287 626 297 c 128,-1,16
 649 307 649 307 679 307 c 0,17,18
 750 307 750 307 800.5 253 c 128,-1,19
 851 199 851 199 851 123 c 0,20,21
 851 -40 851 -40 736 -155 c 128,-1,22
 621 -270 621 -270 460.5 -270 c 128,-1,23
 300 -270 300 -270 188 -128 c 128,-1,24
 76 14 76 14 76 222.5 c 128,-1,25
 76 431 76 431 198.5 584.5 c 128,-1,26
 321 738 321 738 494 738 c 0,27,28
 608 738 608 738 703 670 c 128,-1,29
 798 602 798 602 838 492 c 1,30,31
 855 536 855 536 896 563 c 128,-1,32
 937 590 937 590 992 590 c 128,-1,33
 1047 590 1047 590 1090 554 c 128,-1,34
 1133 518 1133 518 1133 467 c 1,35,-1
 1232 467 l 1,36,-1
 1232 418 l 1,37,-1
 1084 418 l 1,38,39
 1084 468 1084 468 1055 504.5 c 128,-1,40
 1026 541 1026 541 981 541 c 128,-1,41
 936 541 936 541 899.5 498 c 128,-1,42
 863 455 863 455 863 393 c 1,43,-1
 801 393 l 1,44,45
 801 515 801 515 711.5 601.5 c 128,-1,46
 622 688 622 688 494 688 c 0,47,48
 344 688 344 688 238 549.5 c 128,-1,49
 132 411 132 411 132 222.5 c 128,-1,50
 132 34 132 34 227 -93.5 c 128,-1,51
 322 -221 322 -221 458.5 -221 c 128,-1,52
 595 -221 595 -221 692 -120.5 c 128,-1,53
 789 -20 789 -20 789 123 c 0,54,0
 789 180 789 180 754.5 219 c 128,-1,1
EndSplineSet
EndChar

StartChar: uni0BFA
Encoding: 3066 3066 273
Width: 1196
GlyphClass: 2
Flags: W
LayerCount: 2
Back
Fore
SplineSet
706 300.5 m 128,-1,1
 724 283 724 283 748.5 283 c 128,-1,2
 773 283 773 283 789 300.5 c 128,-1,3
 805 318 805 318 805 349 c 0,4,5
 805 413 805 413 793 449 c 1,6,7
 746 437 746 437 717 408 c 128,-1,8
 688 379 688 379 688 348.5 c 128,-1,0
 688 318 688 318 706 300.5 c 128,-1,1
518 221 m 128,-1,10
 489 246 489 246 446.239130435 246 c 128,-1,11
 403.47826087 246 403.47826087 246 363 197 c 1,12,-1
 363 98 l 1,13,-1
 301 98 l 1,14,-1
 301 443 l 1,15,-1
 154 443 l 1,16,-1
 154 0 l 1,17,-1
 92 0 l 1,18,-1
 92 492 l 1,19,-1
 387 492 l 1,20,21
 356 520.933333333 356 520.933333333 356 584.966666667 c 128,-1,22
 356 649 356 649 416 690 c 128,-1,23
 476 731 476 731 563.5 731 c 128,-1,24
 651 731 651 731 727 667.5 c 128,-1,25
 803 604 803 604 830 503 c 1,26,-1
 848 504 l 1,27,28
 948 504 948 504 1018 446 c 128,-1,29
 1088 388 1088 388 1088 310.5 c 128,-1,30
 1088 233 1088 233 1042 164.5 c 128,-1,31
 996 96 996 96 916 49 c 1,32,-1
 1186 49 l 1,33,-1
 1186 0 l 1,34,-1
 713 0 l 1,35,36
 857 53 857 53 945 137 c 128,-1,37
 1033 221 1033 221 1033 307 c 0,38,39
 1033 368 1033 368 978.5 411.5 c 128,-1,40
 924 455 924 455 848 455 c 1,41,42
 863 420.714285714 863 420.714285714 863 344 c 0,43,44
 863 299 863 299 830 266.5 c 128,-1,45
 797 234 797 234 749.5 234 c 128,-1,46
 702 234 702 234 667.5 266.5 c 128,-1,47
 633 299 633 299 633 349 c 128,-1,48
 633 399 633 399 673 441.5 c 128,-1,49
 713 484 713 484 774 495 c 1,50,51
 752 577 752 577 692 629.5 c 128,-1,52
 632 682 632 682 565 682 c 128,-1,53
 498 682 498 682 455 655 c 128,-1,54
 412 628 412 628 412 590 c 0,55,56
 412 520.777777778 412 520.777777778 449 492 c 1,57,-1
 535 492 l 1,58,-1
 535 443 l 1,59,-1
 363 443 l 1,60,-1
 363 264 l 1,61,62
 395.647058824 301 395.647058824 301 455.323529412 301 c 128,-1,63
 515 301 515 301 561.5 260 c 128,-1,64
 608 219 608 219 608 156.5 c 128,-1,65
 608 94 608 94 558 47 c 128,-1,66
 508 0 508 0 436 0 c 2,67,-1
 301 0 l 1,68,-1
 301 49 l 1,69,-1
 436 49 l 2,70,71
 481 49 481 49 514 81.5 c 128,-1,72
 547 114 547 114 547 155 c 128,-1,9
 547 196 547 196 518 221 c 128,-1,10
EndSplineSet
EndChar

StartChar: uni0D82
Encoding: 3458 3458 274
Width: 481
GlyphClass: 2
Flags: W
LayerCount: 2
Back
Fore
SplineSet
135.5 451 m 128,-1,1
 183 477 183 477 235.5 477.5 c 128,-1,2
 288 478 288 478 326 462 c 128,-1,3
 364 446 364 446 391 418 c 0,4,5
 448.020185029 358.867956266 448.020185029 358.867956266 447.010092515 270.433978133 c 128,-1,6
 446 182 446 182 389.5 124.5 c 128,-1,7
 333 67 333 67 239 67 c 0,8,9
 148.86013986 64.9968919969 148.86013986 64.9968919969 91 125 c 0,10,11
 34 184.111111111 34 184.111111111 34 272 c 0,12,13
 34 330 34 330 61 377.5 c 128,-1,0
 88 425 88 425 135.5 451 c 128,-1,1
239 138 m 256,14,15
 300 138 300 138 336 175 c 0,16,17
 371 215 371 215 371 275 c 128,-1,18
 371 335 371 335 335.5 370.5 c 128,-1,19
 300 406 300 406 240 406 c 128,-1,20
 180 406 180 406 144.5 370.5 c 128,-1,21
 109 335 109 335 109 274 c 128,-1,22
 109 213 109 213 143.5 175.5 c 128,-1,23
 178 138 178 138 239 138 c 256,14,15
EndSplineSet
EndChar

StartChar: uni0D83
Encoding: 3459 3459 275
Width: 325
GlyphClass: 2
Flags: W
LayerCount: 2
Back
Fore
SplineSet
67 522 m 0,0,1
 104 557 104 557 163.5 557 c 128,-1,2
 223 557 223 557 258.5 523.5 c 128,-1,3
 294 490 294 490 294 433 c 128,-1,4
 294 376 294 376 258.5 341.5 c 128,-1,5
 223 307 223 307 162 307 c 128,-1,6
 101 307 101 307 66 340.5 c 128,-1,7
 31 374 31 374 31 430 c 128,-1,8
 31 486 31 486 67 522 c 0,0,1
211.5 478 m 128,-1,10
 194 495 194 495 162.5 495 c 128,-1,11
 131 495 131 495 113.5 478 c 128,-1,12
 96 461 96 461 96 432.5 c 128,-1,13
 96 404 96 404 113 386.5 c 128,-1,14
 130 369 130 369 161.5 369 c 128,-1,15
 193 369 193 369 211 386.5 c 128,-1,16
 229 404 229 404 229 432.5 c 128,-1,9
 229 461 229 461 211.5 478 c 128,-1,10
258 216 m 0,17,18
 294 181 294 181 294 124.5 c 128,-1,19
 294 68 294 68 258.5 34 c 128,-1,20
 223 0 223 0 162 0 c 128,-1,21
 101 0 101 0 66 33.5 c 128,-1,22
 31 67 31 67 31 123 c 128,-1,23
 31 179 31 179 67 214.5 c 128,-1,24
 103 250 103 250 162 250 c 256,25,26
 221 250 221 250 258 216 c 0,17,18
211 170.5 m 128,-1,28
 193 188 193 188 162.5 188 c 128,-1,29
 132 188 132 188 114 171 c 128,-1,30
 96 154 96 154 96 125 c 128,-1,31
 96 96 96 96 113 79 c 128,-1,32
 130 62 130 62 161 62 c 256,33,34
 192 62 192 62 210.5 79 c 128,-1,35
 229 96 229 96 229 124.5 c 128,-1,27
 229 153 229 153 211 170.5 c 128,-1,28
EndSplineSet
EndChar

StartChar: uni0D85
Encoding: 3461 3461 276
Width: 911
GlyphClass: 2
Flags: W
LayerCount: 2
Back
Fore
SplineSet
589 429 m 1,0,1
 637 429 637 429 657 424 c 1,2,-1
 657 534 l 2,3,4
 657 596 657 596 690.5 628 c 128,-1,5
 724 660 724 660 779 660 c 0,6,7
 833 660 833 660 863 630 c 0,8,9
 915.106382979 577.893617021 915.106382979 577.893617021 891 499 c 1,10,-1
 803 525 l 1,11,12
 813 540 813 540 807.5 556 c 128,-1,13
 802 572 802 572 785 572 c 0,14,15
 752 572 752 572 752 534 c 2,16,-1
 752 -230 l 1,17,-1
 657 -250 l 1,18,-1
 657 335 l 1,19,20
 643 342 643 342 589 342 c 1,21,-1
 589 131 l 2,22,23
 589 36.1206896552 589 36.1206896552 513 -4.5 c 0,24,25
 484 -20 484 -20 443 -20 c 128,-1,26
 402 -20 402 -20 358 -17.5 c 128,-1,27
 314 -15 314 -15 270 -7 c 128,-1,28
 226 1 226 1 185.5 16 c 128,-1,29
 145 31 145 31 114 55 c 0,30,31
 46 107.64516129 46 107.64516129 46 197 c 0,32,33
 46 249.454545455 46 249.454545455 88 301 c 0,34,35
 155.058823529 383.299465241 155.058823529 383.299465241 283 408.5 c 0,36,37
 387.076923077 429 387.076923077 429 499 429 c 1,38,-1
 499 529 l 2,39,40
 499 559.272727273 499 559.272727273 483 579.636363636 c 0,41,42
 452.333333333 618.666666667 452.333333333 618.666666667 401 626 c 1,43,44
 414 618 414 618 421.5 597.5 c 128,-1,45
 429 577 429 577 429 555.5 c 128,-1,46
 429 534 429 534 420.5 512.5 c 128,-1,47
 412 491 412 491 396 474.5 c 0,48,49
 360.606060606 438 360.606060606 438 304 438 c 0,50,51
 243.382352941 438 243.382352941 438 206.5 476 c 0,52,53
 173 510.515151515 173 510.515151515 173 554.257575758 c 128,-1,54
 173 598 173 598 188 625.5 c 128,-1,55
 203 653 203 653 229 671 c 0,56,57
 282.444444444 708 282.444444444 708 363 708 c 0,58,59
 467.36 708 467.36 708 530 654 c 0,60,61
 589 603.137931034 589 603.137931034 589 529 c 2,62,-1
 589 429 l 1,0,1
438 66 m 0,63,64
 499 66 499 66 499 136 c 2,65,-1
 499 342 l 1,66,67
 233.976744186 342 233.976744186 342 164 253.5 c 0,68,69
 147 232 147 232 147 200 c 128,-1,70
 147 168 147 168 179 142 c 128,-1,71
 211 116 211 116 257 99 c 0,72,73
 346.294117647 66 346.294117647 66 438 66 c 0,63,64
262 556 m 256,74,75
 262 535 262 535 276.5 520.5 c 128,-1,76
 291 506 291 506 312 506 c 256,77,78
 333 506 333 506 347.5 520.5 c 128,-1,79
 362 535 362 535 362 556 c 256,80,81
 362 577 362 577 347.5 591.5 c 128,-1,82
 333 606 333 606 312 606 c 256,83,84
 291 606 291 606 276.5 591.5 c 128,-1,85
 262 577 262 577 262 556 c 256,74,75
EndSplineSet
EndChar

StartChar: uni0D89
Encoding: 3465 3465 280
Width: 996
GlyphClass: 2
Flags: W
LayerCount: 2
Back
Fore
SplineSet
467 134 m 1,0,1
 482 130 482 130 505 130 c 128,-1,2
 528 130 528 130 552 139 c 128,-1,3
 576 148 576 148 593 163.5 c 0,4,5
 629 196.323529412 629 196.323529412 629 233.661764706 c 128,-1,6
 629 271 629 271 608.5 299.5 c 128,-1,7
 588 328 588 328 548 341 c 1,8,9
 545 286 545 286 525 230 c 128,-1,10
 505 174 505 174 467 134 c 1,0,1
298 341 m 1,11,12
 309.181369525 233.65885256 309.181369525 233.65885256 378 176 c 1,13,14
 448.654797827 234.542546771 448.654797827 234.542546771 453 341 c 1,15,-1
 298 341 l 1,11,12
209 341 m 1,16,17
 128 314.964285714 128 314.964285714 128 232 c 0,18,19
 128 188.5 128 188.5 168 158.5 c 0,20,21
 206 130 206 130 258 130 c 2,22,-1
 272.5 130 l 2,23,24
 279 130 279 130 287 132 c 1,25,26
 223.984962406 206.135338346 223.984962406 206.135338346 209 341 c 1,16,17
436 431 m 1,27,28
 423.103448276 464.531034483 423.103448276 464.531034483 394 498 c 1,29,-1
 464 558 l 1,30,31
 521.653631285 486.893854749 521.653631285 486.893854749 539 431 c 1,32,33
 625.588235294 425.352941176 625.588235294 425.352941176 677 365 c 0,34,35
 723 311 723 311 723 238 c 0,36,37
 723 151.225806452 723 151.225806452 655 92 c 0,38,39
 589.555555556 35 589.555555556 35 499 35 c 0,40,41
 438 35 438 35 378 64 c 1,42,43
 319 36 319 36 266 36 c 128,-1,44
 213 36 213 36 173.5 51 c 128,-1,45
 134 66 134 66 104.5 92 c 0,46,47
 41 147.966101695 41 147.966101695 41 231 c 0,48,49
 41 298.769230769 41 298.769230769 78.5 355.5 c 0,50,51
 123.552775606 423.656763096 123.552775606 423.656763096 208 431 c 1,52,53
 229.584979534 562.472148069 229.584979534 562.472148069 334.5 649 c 0,54,55
 435.1375 732 435.1375 732 571 732 c 0,56,57
 742.666666667 732 742.666666667 732 853.5 618 c 0,58,59
 965 503.314285714 965 503.314285714 965 322 c 0,60,61
 965 192.521126761 965 192.521126761 887.5 79 c 0,62,63
 815.503239741 -26.4600431965 815.503239741 -26.4600431965 706 -77 c 1,64,65
 720 -93 720 -93 728 -120 c 128,-1,66
 736 -147 736 -147 736 -175 c 128,-1,67
 736 -203 736 -203 726 -232.5 c 128,-1,68
 716 -262 716 -262 695.5 -283.5 c 0,69,70
 650.209302326 -331 650.209302326 -331 577 -331 c 0,71,72
 535 -331 535 -331 497.5 -310.5 c 128,-1,73
 460 -290 460 -290 439 -257 c 1,74,-1
 427 -241 l 1,75,-1
 507 -190 l 1,76,-1
 517 -205 l 1,77,78
 525 -219 525 -219 542.5 -227.5 c 128,-1,79
 560 -236 560 -236 581 -236 c 128,-1,80
 602 -236 602 -236 622 -216 c 128,-1,81
 642 -196 642 -196 642 -172.5 c 0,82,83
 642 -127.684210526 642 -127.684210526 600 -110 c 1,84,85
 540.5 -117 540.5 -117 532 -117 c 2,86,-1
 524 -117 l 1,87,-1
 504 -26 l 1,88,89
 574 -24 574 -24 640 1 c 128,-1,90
 706 26 706 26 757 71 c 128,-1,91
 808 116 808 116 839 179.5 c 128,-1,92
 870 243 870 243 870 315 c 128,-1,93
 870 387 870 387 843.5 445 c 128,-1,94
 817 503 817 503 775 546.5 c 128,-1,95
 733 590 733 590 680 615.5 c 128,-1,96
 627 641 627 641 578 641 c 128,-1,97
 529 641 529 641 486.5 625 c 128,-1,98
 444 609 444 609 408 581 c 0,99,100
 331.037383178 521.140186916 331.037383178 521.140186916 307 431 c 1,101,-1
 436 431 l 1,27,28
EndSplineSet
EndChar

StartChar: uni0D8A
Encoding: 3466 3466 281
Width: 1043
GlyphClass: 2
Flags: W
LayerCount: 2
Back
Fore
SplineSet
829 -164 m 128,-1,1
 875 -135 875 -135 893 -95.5 c 128,-1,2
 911 -56 911 -56 911 -18.5 c 128,-1,3
 911 19 911 19 895.5 51 c 128,-1,4
 880 83 880 83 854.5 106 c 0,5,6
 799.065217391 156 799.065217391 156 731 156 c 0,7,8
 656.133333333 156 656.133333333 156 605.5 109.5 c 0,9,10
 552 60.3673469388 552 60.3673469388 552 -18 c 0,11,12
 552 -89 552 -89 604 -141 c 128,-1,13
 656 -193 656 -193 731 -193 c 0,14,0
 783 -193 783 -193 829 -164 c 128,-1,1
625 224 m 1,15,16
 683.117647059 250 683.117647059 250 739.058823529 250 c 128,-1,17
 795 250 795 250 844 229 c 128,-1,18
 893 208 893 208 929 172 c 0,19,20
 1006 95 1006 95 1006 -16 c 0,21,22
 1006 -134.783783784 1006 -134.783783784 925 -212.5 c 0,23,24
 847.352112676 -287 847.352112676 -287 735 -287 c 0,25,26
 609 -287 609 -287 528 -206 c 0,27,28
 450 -128 450 -128 450 -14 c 2,29,-1
 450 -6 l 1,30,31
 452.060669456 57.8807531381 452.060669456 57.8807531381 463.530334728 90.940376569 c 0,32,33
 479.533333333 137.066666667 479.533333333 137.066666667 520 218 c 256,34,35
 586.891891892 351.783783784 586.891891892 351.783783784 615 512 c 0,36,37
 625 569 625 569 628 628 c 1,38,-1
 212 628 l 1,39,40
 155 621.666666667 155 621.666666667 155 540 c 2,41,-1
 155 0 l 1,42,-1
 54 -17 l 1,43,-1
 54 540 l 2,44,45
 54 605.571428571 54 605.571428571 72.5 637.285714286 c 128,-1,46
 91 669 91 669 111.5 686 c 0,47,48
 154.911764706 722 154.911764706 722 209 722 c 2,49,-1
 819 722 l 1,50,-1
 806 627 l 1,51,-1
 718 627 l 1,52,53
 714.577319588 493.515463918 714.577319588 493.515463918 677 364.5 c 0,54,55
 662 313 662 313 647 277 c 128,-1,56
 632 241 632 241 625 224 c 1,15,16
384 484 m 256,57,58
 384 507 384 507 400 523.5 c 128,-1,59
 416 540 416 540 439 540 c 256,60,61
 462 540 462 540 478.5 523.5 c 128,-1,62
 495 507 495 507 495 484 c 256,63,64
 495 461 495 461 478.5 445 c 128,-1,65
 462 429 462 429 439 429 c 256,66,67
 416 429 416 429 400 445 c 128,-1,68
 384 461 384 461 384 484 c 256,57,58
819 484 m 256,69,70
 819 507 819 507 835 523.5 c 128,-1,71
 851 540 851 540 874 540 c 256,72,73
 897 540 897 540 913.5 523.5 c 128,-1,74
 930 507 930 507 930 484 c 256,75,76
 930 461 930 461 913.5 445 c 128,-1,77
 897 429 897 429 874 429 c 256,78,79
 851 429 851 429 835 445 c 128,-1,80
 819 461 819 461 819 484 c 256,69,70
EndSplineSet
EndChar

StartChar: uni0D8B
Encoding: 3467 3467 282
Width: 913
GlyphClass: 2
Flags: W
LayerCount: 2
Back
Fore
SplineSet
390 553 m 1,0,1
 403 545 403 545 410.5 524.5 c 128,-1,2
 418 504 418 504 418 482.5 c 128,-1,3
 418 461 418 461 409.5 439.5 c 128,-1,4
 401 418 401 418 385 401.5 c 0,5,6
 349.606060606 365 349.606060606 365 293 365 c 0,7,8
 232.382352941 365 232.382352941 365 195.5 403 c 0,9,10
 162 437.515151515 162 437.515151515 162 481.257575758 c 128,-1,11
 162 525 162 525 177 552.5 c 128,-1,12
 192 580 192 580 218 598 c 0,13,14
 271.444444444 635 271.444444444 635 352 635 c 0,15,16
 460.507462687 635 460.507462687 635 539.5 562.5 c 0,17,18
 618 490.452054795 618 490.452054795 618 389 c 0,19,20
 618 319 618 319 579.5 264 c 0,21,22
 528.602061856 191.288659794 528.602061856 191.288659794 407.5 160.5 c 0,23,24
 378 153 378 153 354 148 c 1,25,-1
 349 148 l 1,26,27
 282.888888889 134.777777778 282.888888889 134.777777778 256 125 c 0,28,29
 160 89.7346938776 160 89.7346938776 160 -1 c 0,30,31
 160 -85.5194805195 160 -85.5194805195 241.5 -139.5 c 0,32,33
 323.784313725 -194 323.784313725 -194 456.392156863 -194 c 0,34,35
 732.086956522 -194 732.086956522 -194 925 -20 c 1,36,-1
 1027 -73 l 1,37,-1
 1024 -75 l 1,38,39
 906 -181 906 -181 757 -238.5 c 128,-1,40
 608 -296 608 -296 450 -296 c 0,41,42
 279.240506329 -296 279.240506329 -296 168 -211.5 c 0,43,44
 58 -127.942307692 58 -127.942307692 58 2 c 0,45,46
 58 84.6 58 84.6 110 147 c 0,47,48
 171.212765957 218.414893617 171.212765957 218.414893617 329 248 c 1,49,-1
 333 248 l 1,50,51
 429.761904762 268.158730159 429.761904762 268.158730159 472.5 299.5 c 0,52,53
 516 331.4 516 331.4 516 390 c 0,54,55
 516 434.633333333 516 434.633333333 488 478.5 c 0,56,57
 453.106463878 533.166539924 453.106463878 533.166539924 390 553 c 1,0,1
251 483 m 256,58,59
 251 462 251 462 265.5 447.5 c 128,-1,60
 280 433 280 433 301 433 c 256,61,62
 322 433 322 433 336.5 447.5 c 128,-1,63
 351 462 351 462 351 483 c 256,64,65
 351 504 351 504 336.5 518.5 c 128,-1,66
 322 533 322 533 301 533 c 256,67,68
 280 533 280 533 265.5 518.5 c 128,-1,69
 251 504 251 504 251 483 c 256,58,59
EndSplineSet
EndChar

StartChar: uni0D8D
Encoding: 3469 3469 284
Width: 1290
GlyphClass: 2
Flags: W
LayerCount: 2
Back
Fore
SplineSet
197 551 m 0,0,1
 116.6 551 116.6 551 122 470 c 1,2,-1
 26 454 l 1,3,4
 21 476 21 476 25 509 c 128,-1,5
 29 542 29 542 47.5 572 c 0,6,7
 92.5166666667 645 92.5166666667 645 196 645 c 0,8,9
 285.368421053 645 285.368421053 645 335 583.5 c 0,10,11
 381 526.5 381 526.5 381 432 c 2,12,-1
 381 385 l 1,13,-1
 281 382 l 2,14,15
 218.6509299 379.165951359 218.6509299 379.165951359 186.82546495 357.08297568 c 128,-1,16
 155 335 155 335 138.5 303 c 128,-1,17
 122 271 122 271 122 224.5 c 128,-1,18
 122 178 122 178 136.5 150.5 c 128,-1,19
 151 123 151 123 172.5 105.5 c 0,20,21
 212.428571429 73 212.428571429 73 264 73 c 2,22,-1
 295 73 l 2,23,24
 341.8 73 341.8 73 367 109 c 0,25,26
 381 129 381 129 381 169 c 1,27,-1
 454 169 l 1,28,29
 454 101 454 101 504 81 c 0,30,31
 526.5 72 526.5 72 558.75 72 c 128,-1,32
 591 72 591 72 615.5 79.5 c 128,-1,33
 640 87 640 87 661.5 104.5 c 0,34,35
 712 145.604651163 712 145.604651163 712 218 c 0,36,37
 712 310.625 712 310.625 655 351 c 0,38,39
 616.737142857 378.102857143 616.737142857 378.102857143 553 381 c 2,40,-1
 454 385 l 1,41,-1
 454 432 l 2,42,43
 454 526.5 454 526.5 500 583.5 c 0,44,45
 549.631578947 645 549.631578947 645 639 645 c 0,46,47
 697 645 697 645 732.5 623.5 c 128,-1,48
 768 602 768 602 786.5 572 c 128,-1,49
 805 542 805 542 809 509 c 128,-1,50
 813 476 813 476 808 454 c 1,51,-1
 712 470 l 1,52,53
 717.4 551 717.4 551 638 551 c 0,54,55
 610 551 610 551 587.5 533 c 128,-1,56
 565 515 565 515 563 470 c 1,57,58
 742.484536082 470 742.484536082 470 795 328.5 c 0,59,60
 813 280 813 280 813 219.5 c 128,-1,61
 813 159 813 159 795.5 115.5 c 128,-1,62
 778 72 778 72 746 42 c 0,63,64
 679.866666667 -20 679.866666667 -20 566.998550725 -20 c 128,-1,65
 454.130434783 -20 454.130434783 -20 417 41 c 1,66,67
 385.30212766 -15.0808510638 385.30212766 -15.0808510638 303 -19 c 0,68,69
 282 -20 282 -20 246.5 -20 c 128,-1,70
 211 -20 211 -20 166 -4 c 128,-1,71
 121 12 121 12 89 42 c 0,72,73
 21 105.75 21 105.75 21 214 c 0,74,75
 21 342.636363636 21 342.636363636 90 408.5 c 0,76,77
 154.428571429 470 154.428571429 470 272 470 c 1,78,79
 270 515 270 515 247.5 533 c 128,-1,80
 225 551 225 551 197 551 c 0,0,1
1162 345 m 1,81,82
 1159 428 1159 428 1121.5 463 c 128,-1,83
 1084 498 1084 498 1017 498 c 128,-1,84
 950 498 950 498 890 476 c 1,85,-1
 868 543 l 1,86,87
 944 568 944 568 1008 568 c 128,-1,88
 1072 568 1072 568 1113.5 553 c 0,89,90
 1200.816 521.44 1200.816 521.44 1226 427 c 0,91,92
 1239 381 1239 381 1239 297 c 2,93,-1
 1239 0 l 1,94,-1
 1173 0 l 1,95,-1
 1132 24 l 1,96,97
 1104 4 1104 4 1077 -3.5 c 128,-1,98
 1050 -11 1050 -11 1012 -11 c 0,99,100
 943 -11 943 -11 901 33 c 0,101,102
 860 79 860 79 860 156 c 0,103,104
 860 249.228571429 860 249.228571429 927 299 c 0,105,106
 980.223952096 335.961077844 980.223952096 335.961077844 1077 342.5 c 0,107,108
 1114 345 1114 345 1162 345 c 1,81,82
1148 87 m 1,109,-1
 1163 78 l 1,110,-1
 1163 277 l 1,111,-1
 1129 277 l 2,112,113
 1046 277 1046 277 1006.5 262.5 c 128,-1,114
 967 248 967 248 951 222 c 128,-1,115
 935 196 935 196 935 157 c 0,116,117
 935 59 935 59 1024 59 c 0,118,119
 1051 59 1051 59 1068 65 c 128,-1,120
 1085 71 1085 71 1106 87 c 1,121,-1
 1148 87 l 1,109,-1
EndSplineSet
EndChar

StartChar: uni0D8E
Encoding: 3470 3470 285
Width: 1750
GlyphClass: 2
Flags: W
LayerCount: 2
Back
Fore
SplineSet
587 62 m 0,0,1
 719 62 719 62 719 223 c 0,2,3
 719 294 719 294 690 331.5 c 128,-1,4
 661 369 661 369 604 383.5 c 128,-1,5
 547 398 547 398 456 398 c 2,6,-1
 432 398 l 1,7,-1
 432 440 l 2,8,9
 432 531 432 531 476 579 c 128,-1,10
 520 627 520 627 597 627 c 128,-1,11
 674 627 674 627 713 596 c 128,-1,12
 752 565 752 565 752 507 c 0,13,14
 752 479 752 479 745 457 c 1,15,-1
 673 468 l 1,16,-1
 676.5 485.5 l 2,17,18
 678 493 678 493 678 499 c 0,19,20
 678 559 678 559 599 559 c 0,21,22
 556 559 556 559 531.5 534.5 c 128,-1,23
 507 510 507 510 505 466 c 1,24,-1
 514 466 l 2,25,26
 651 466 651 466 722.5 404.5 c 128,-1,27
 794 343 794 343 794 228.5 c 128,-1,28
 794 114 794 114 738.5 51.5 c 128,-1,29
 683 -11 683 -11 589 -11 c 0,30,31
 533 -11 533 -11 491.5 9.5 c 128,-1,32
 450 30 450 30 415 79 c 1,33,34
 378 28 378 28 337.5 8.5 c 128,-1,35
 297 -11 297 -11 246.5 -11.5 c 128,-1,36
 196 -12 196 -12 158.5 4 c 128,-1,37
 121 20 121 20 94 50 c 0,38,39
 37 113.333333333 37 113.333333333 37 228.666666667 c 128,-1,40
 37 344 37 344 108.5 405 c 128,-1,41
 180 466 180 466 317 466 c 2,42,-1
 326 466 l 1,43,44
 324 511 324 511 299 535 c 128,-1,45
 274 559 274 559 231 559 c 0,46,47
 153 559 153 559 153 499 c 0,48,49
 153 485 153 485 157 468 c 1,50,-1
 85 457 l 1,51,52
 78 485 78 485 78 508 c 0,53,54
 78 565 78 565 117 596 c 128,-1,55
 156 627 156 627 233 627 c 128,-1,56
 310 627 310 627 354.5 579 c 128,-1,57
 399 531 399 531 399 440 c 2,58,-1
 399 398 l 1,59,-1
 375 398 l 2,60,61
 232.538461538 398 232.538461538 398 176 363 c 0,62,63
 155 350 155 350 140 332 c 0,64,65
 112 295 112 295 112 223 c 0,66,67
 112 62 112 62 244 62 c 0,68,69
 313 62 313 62 347 97 c 128,-1,70
 381 132 381 132 381 212 c 2,71,-1
 381 219 l 1,72,-1
 450 219 l 1,73,-1
 450 212 l 2,74,75
 450 133 450 133 484 97.5 c 128,-1,76
 518 62 518 62 587 62 c 0,0,1
1162 345 m 1,77,78
 1159 428 1159 428 1121.5 463 c 128,-1,79
 1084 498 1084 498 1017 498 c 128,-1,80
 950 498 950 498 890 476 c 1,81,-1
 868 543 l 1,82,83
 944 568 944 568 1008 568 c 128,-1,84
 1072 568 1072 568 1113.5 553 c 0,85,86
 1200.816 521.44 1200.816 521.44 1226 427 c 0,87,88
 1239 381 1239 381 1239 297 c 2,89,-1
 1239 0 l 1,90,-1
 1173 0 l 1,91,-1
 1132 24 l 1,92,93
 1104 4 1104 4 1077 -3.5 c 128,-1,94
 1050 -11 1050 -11 1012 -11 c 0,95,96
 943 -11 943 -11 901 33 c 0,97,98
 860 79 860 79 860 156 c 0,99,100
 860 249.228571429 860 249.228571429 927 299 c 0,101,102
 980.223952096 335.961077844 980.223952096 335.961077844 1077 342.5 c 0,103,104
 1114 345 1114 345 1162 345 c 1,77,78
1148 87 m 1,105,-1
 1163 78 l 1,106,-1
 1163 277 l 1,107,-1
 1129 277 l 2,108,109
 1046 277 1046 277 1006.5 262.5 c 128,-1,110
 967 248 967 248 951 222 c 128,-1,111
 935 196 935 196 935 157 c 0,112,113
 935 59 935 59 1024 59 c 0,114,115
 1051 59 1051 59 1068 65 c 128,-1,116
 1085 71 1085 71 1106 87 c 1,117,-1
 1148 87 l 1,105,-1
1621 345 m 1,118,119
 1618 428 1618 428 1580.5 463 c 128,-1,120
 1543 498 1543 498 1476 498 c 128,-1,121
 1409 498 1409 498 1349 476 c 1,122,-1
 1327 543 l 1,123,124
 1403 568 1403 568 1467 568 c 128,-1,125
 1531 568 1531 568 1572.5 553 c 0,126,127
 1659.816 521.44 1659.816 521.44 1685 427 c 0,128,129
 1698 381 1698 381 1698 297 c 2,130,-1
 1698 0 l 1,131,-1
 1632 0 l 1,132,-1
 1591 24 l 1,133,134
 1563 4 1563 4 1536 -3.5 c 128,-1,135
 1509 -11 1509 -11 1471 -11 c 0,136,137
 1402 -11 1402 -11 1360 33 c 0,138,139
 1319 79 1319 79 1319 156 c 0,140,141
 1319 249.228571429 1319 249.228571429 1386 299 c 0,142,143
 1439.2239521 335.961077844 1439.2239521 335.961077844 1536 342.5 c 0,144,145
 1573 345 1573 345 1621 345 c 1,118,119
1607 87 m 1,146,-1
 1622 78 l 1,147,-1
 1622 277 l 1,148,-1
 1588 277 l 2,149,150
 1505 277 1505 277 1465.5 262.5 c 128,-1,151
 1426 248 1426 248 1410 222 c 128,-1,152
 1394 196 1394 196 1394 157 c 0,153,154
 1394 59 1394 59 1483 59 c 0,155,156
 1510 59 1510 59 1527 65 c 128,-1,157
 1544 71 1544 71 1565 87 c 1,158,-1
 1607 87 l 1,146,-1
EndSplineSet
EndChar

StartChar: uni0D8F
Encoding: 3471 3471 286
Width: 1246
GlyphClass: 2
Flags: W
LayerCount: 2
Back
Fore
SplineSet
132 254 m 0,0,1
 132 166.454545455 132 166.454545455 160 85 c 1,2,-1
 68 71 l 1,3,4
 36 153 36 153 36 236.5 c 128,-1,5
 36 320 36 320 59 394 c 128,-1,6
 82 468 82 468 127.5 526.5 c 128,-1,7
 173 585 173 585 241.5 620.5 c 128,-1,8
 310 656 310 656 401 656 c 0,9,10
 490.620689655 656 490.620689655 656 539.5 593 c 0,11,12
 585 534.355555556 585 534.355555556 585 439 c 2,13,-1
 585 392 l 1,14,-1
 485 392 l 1,15,16
 420.833333333 386.166666667 420.833333333 386.166666667 389.916666667 364.083333333 c 128,-1,17
 359 342 359 342 342.5 310 c 128,-1,18
 326 278 326 278 326 231.5 c 128,-1,19
 326 185 326 185 340.5 157.5 c 128,-1,20
 355 130 355 130 376.5 112.5 c 0,21,22
 416.428571429 80 416.428571429 80 468 80 c 2,23,-1
 775 80 l 2,24,25
 827 80 827 80 866 112.5 c 0,26,27
 916 154.166666667 916 154.166666667 916 225 c 0,28,29
 916 318.428571429 916 318.428571429 858.5 359.5 c 0,30,31
 817.2 389 817.2 389 757 389 c 2,32,-1
 657 389 l 1,33,-1
 657 439 l 2,34,35
 657 534.355555556 657 534.355555556 702.5 593 c 0,36,37
 751.379310345 656 751.379310345 656 839.189655172 656 c 128,-1,38
 927 656 927 656 995 625.5 c 128,-1,39
 1063 595 1063 595 1109.5 541 c 0,40,41
 1205 430.096774194 1205 430.096774194 1205 256 c 0,42,43
 1205 167.9 1205 167.9 1181 93.5 c 0,44,45
 1176 78 1176 78 1174 71 c 1,46,-1
 1082 85 l 1,47,48
 1110 166.454545455 1110 166.454545455 1110 255.727272727 c 0,49,50
 1110 423.555555556 1110 423.555555556 1015 489 c 1,51,52
 1015 473 1015 473 1012 461 c 1,53,-1
 916 477 l 1,54,-1
 916 487 l 2,55,56
 916 514 916 514 900.5 536 c 128,-1,57
 885 558 885 558 849 558 c 128,-1,58
 813 558 813 558 790.5 540 c 128,-1,59
 768 522 768 522 766 477 c 1,60,61
 946.113402062 477 946.113402062 477 999 334.5 c 0,62,63
 1017 286 1017 286 1017 225 c 128,-1,64
 1017 164 1017 164 999 121 c 128,-1,65
 981 78 981 78 949 48 c 0,66,67
 883.933333333 -13 883.933333333 -13 776 -13 c 2,68,-1
 468 -13 l 2,69,70
 359.133333333 -13 359.133333333 -13 293 49 c 0,71,72
 225 112.75 225 112.75 225 221 c 0,73,74
 225 349.636363636 225 349.636363636 294 415.5 c 0,75,76
 358.428571429 477 358.428571429 477 476 477 c 1,77,78
 474 522 474 522 451.5 540 c 128,-1,79
 429 558 429 558 392.5 558 c 128,-1,80
 356 558 356 558 340.5 536 c 128,-1,81
 325 514 325 514 325 487 c 1,82,-1
 326 477 l 1,83,-1
 230 461 l 1,84,85
 227 473 227 473 227 489 c 1,86,87
 132 424.97826087 132 424.97826087 132 254 c 0,0,1
EndSplineSet
EndChar

StartChar: uni0D91
Encoding: 3473 3473 288
Width: 1198
GlyphClass: 2
Flags: W
LayerCount: 2
Back
Fore
SplineSet
983 485 m 128,-1,1
 995 470 995 470 1015.5 470 c 128,-1,2
 1036 470 1036 470 1049 483 c 1,3,4
 1052 495 1052 495 1052 543 c 2,5,-1
 1052 603 l 1,6,7
 1048 599 1048 599 1044 596 c 128,-1,8
 1040 593 1040 593 1033.5 588 c 128,-1,9
 1027 583 1027 583 1020.5 577.5 c 128,-1,10
 1014 572 1014 572 1008 567 c 0,11,12
 977.777777778 536.777777778 977.777777778 536.777777778 974.388888889 518.388888889 c 128,-1,0
 971 500 971 500 983 485 c 128,-1,1
352.581521739 209.614130435 m 128,-1,14
 350 247 350 247 324 274 c 0,15,16
 296 302 296 302 263.5 301.5 c 128,-1,17
 231 301 231 301 213 293.5 c 128,-1,18
 195 286 195 286 182 274 c 0,19,20
 155.264150943 249.320754717 155.264150943 249.320754717 151.132075472 227.160377358 c 128,-1,21
 147 205 147 205 147 192 c 128,-1,22
 147 179 147 179 152 167 c 0,23,24
 168.083333333 114.729166667 168.083333333 114.729166667 227 100 c 0,25,26
 253.084210526 94.4105263158 253.084210526 94.4105263158 284.042105263 104.205263158 c 128,-1,27
 315 114 315 114 335.081521739 143.114130435 c 128,-1,13
 355.163043478 172.22826087 355.163043478 172.22826087 352.581521739 209.614130435 c 128,-1,14
1151 536 m 2,28,29
 1151 462 1151 462 1143 389 c 128,-1,30
 1135 316 1135 316 1102.5 245 c 128,-1,31
 1070 174 1070 174 1007.5 116 c 128,-1,32
 945 58 945 58 860 24 c 128,-1,33
 775 -10 775 -10 678 -10 c 0,34,35
 642 -10 642 -10 606 -6 c 1,36,-1
 562 2 l 1,37,-1
 563 322 l 1,38,39
 526.764705882 317.470588235 526.764705882 317.470588235 478.882352941 320.735294118 c 128,-1,40
 431 324 431 324 411 328 c 1,41,42
 454.317673378 269.393736018 454.317673378 269.393736018 458.658836689 206.696868009 c 128,-1,43
 463 144 463 144 422 85 c 0,44,45
 358.06779661 -7 358.06779661 -7 248 -7 c 0,46,47
 171 -7 171 -7 111 44 c 0,48,49
 48.2568093385 100.468871595 48.2568093385 100.468871595 42 186.5 c 0,50,51
 37.6183326748 246.747925721 37.6183326748 246.747925721 75.5 310.5 c 0,52,53
 113.214446953 373.970654628 113.214446953 373.970654628 191 406 c 0,54,55
 261.187134503 434.900584795 261.187134503 434.900584795 380 429.5 c 0,56,57
 556.76744186 421.465116279 556.76744186 421.465116279 587.38372093 429.23255814 c 128,-1,58
 618 437 618 437 639.5 450.5 c 128,-1,59
 661 464 661 464 677 482.5 c 0,60,61
 710.970080552 521.777905639 710.970080552 521.777905639 709 573 c 1,62,-1
 809 589 l 1,63,64
 813 534 813 534 792.5 482 c 0,65,66
 757.071303331 392.132086499 757.071303331 392.132086499 659 348 c 1,67,-1
 659 87 l 1,68,69
 745.234042553 82.8936170213 745.234042553 82.8936170213 818.117021277 112.446808511 c 0,70,71
 1010.59477004 190.494274001 1010.59477004 190.494274001 1042 375 c 1,72,73
 1034 373 1034 373 1026.5 373 c 2,74,-1
 1011 373 l 2,75,76
 952.636363636 373 952.636363636 373 909 421 c 0,77,78
 867.636913767 468.894099849 867.636913767 468.894099849 878 529 c 0,79,80
 886.449039882 584.76366322 886.449039882 584.76366322 942 638 c 0,81,82
 950 646 950 646 958 652 c 128,-1,83
 966 658 966 658 975 665.5 c 0,84,85
 1017 700.5 1017 700.5 1027 721.75 c 128,-1,86
 1037 743 1037 743 1041.5 760.5 c 0,87,88
 1051 797.444444444 1051 797.444444444 1051 816 c 1,89,-1
 1149 816 l 1,90,-1
 1151 536 l 2,28,29
EndSplineSet
EndChar

StartChar: uni0D94
Encoding: 3476 3476 291
Width: 907
GlyphClass: 2
Flags: W
LayerCount: 2
Back
Fore
SplineSet
680 485 m 1,0,1
 667 472 667 472 667 460.5 c 0,2,3
 667 438.25 667 438.25 694 427 c 1,4,5
 724.357142857 419.994505495 724.357142857 419.994505495 749.178571429 441.497252747 c 128,-1,6
 774 463 774 463 777 501.5 c 128,-1,7
 780 540 780 540 763 573.5 c 0,8,9
 731.684210526 635.210526316 731.684210526 635.210526316 678 671 c 0,10,11
 623.048648649 706.92972973 623.048648649 706.92972973 552.024324324 722.964864865 c 128,-1,12
 481 739 481 739 405.5 728 c 0,13,14
 278.20546331 709.453776111 278.20546331 709.453776111 197.5 618.5 c 0,15,16
 166 583 166 583 146 541 c 1,17,-1
 56 583 l 1,18,19
 109.251900659 695.648251394 109.251900659 695.648251394 215 762 c 0,20,21
 293 812 293 812 389 826.5 c 128,-1,22
 485 841 485 841 576 820 c 128,-1,23
 667 799 667 799 739 749.5 c 128,-1,24
 811 700 811 700 849 625 c 0,25,26
 876 568.545454545 876 568.545454545 876 493 c 1,27,28
 869.721774194 413.475806452 869.721774194 413.475806452 812 364 c 0,29,30
 765.795620438 323.95620438 765.795620438 323.95620438 702.5 325.5 c 0,31,32
 671.226277372 326.262773723 671.226277372 326.262773723 656.613138686 334.131386861 c 128,-1,33
 642 342 642 342 635 346 c 1,34,35
 644.906458797 274.178173719 644.906458797 274.178173719 707 234 c 0,36,37
 741 212 741 212 780 209 c 1,38,-1
 778 110 l 1,39,40
 755.014084507 107.126760563 755.014084507 107.126760563 718 66 c 0,41,42
 704 52 704 52 688 36.5 c 0,43,44
 640 -10 640 -10 566.258064516 -10 c 128,-1,45
 492.516129032 -10 492.516129032 -10 430 47 c 1,46,47
 342.25 -27.25 342.25 -27.25 236 -6 c 0,48,49
 188 4 188 4 146.5 33.5 c 128,-1,50
 105 63 105 63 80 105.5 c 0,51,52
 28.8993710692 192.371069182 28.8993710692 192.371069182 45 293 c 0,53,54
 60.1517509728 388.961089494 60.1517509728 388.961089494 123 450.5 c 0,55,56
 147 474 147 474 175 490 c 0,57,58
 242 527 242 527 312 515 c 0,59,60
 392.944237918 500.089219331 392.944237918 500.089219331 433 436 c 0,61,62
 455 403 455 403 459 363 c 128,-1,63
 463 323 463 323 446 287 c 0,64,65
 430 246 430 246 389 219 c 0,66,67
 334.623188406 180.15942029 334.623188406 180.15942029 264 193 c 0,68,69
 215.927113703 201.740524781 215.927113703 201.740524781 185 237.5 c 0,70,71
 169 256 169 256 160 284 c 1,72,-1
 240 321 l 1,73,74
 251.844758065 278.358870968 251.844758065 278.358870968 301 282 c 0,75,76
 324.8 282 324.8 282 344 306 c 0,77,78
 361.20754717 327.509433962 361.20754717 327.509433962 359.103773585 353.254716981 c 0,79,80
 355.273910956 400.123304932 355.273910956 400.123304932 295 417 c 0,81,82
 259 423 259 423 225.5 404 c 0,83,84
 157.115466553 365.214742224 157.115466553 365.214742224 142 281 c 0,85,86
 131.778688525 215.583606557 131.778688525 215.583606557 165 158 c 256,87,88
 196.269592476 103.799373041 196.269592476 103.799373041 256 91 c 0,89,90
 293 84 293 84 329 99.5 c 128,-1,91
 365 115 365 115 387 150 c 1,92,-1
 473 151 l 1,93,94
 493.68 117.16 493.68 117.16 538 95 c 0,95,96
 585.195071869 75.5667351129 585.195071869 75.5667351129 624.5 113 c 0,97,98
 635 123 635 123 642 130.5 c 128,-1,99
 649 138 649 138 652 141 c 128,-1,100
 655 144 655 144 658 148 c 1,101,102
 599 184 599 184 567 241.5 c 128,-1,103
 535 299 535 299 533.5 364 c 0,104,105
 531.699721965 442.012048193 531.699721965 442.012048193 576 514 c 0,106,107
 588.8 534.8 588.8 534.8 612 558 c 1,108,-1
 680 485 l 1,0,1
EndSplineSet
EndChar

StartChar: uni0D9A
Encoding: 3482 3482 294
Width: 1076
GlyphClass: 2
Flags: W
LayerCount: 2
Back
Fore
SplineSet
427 122 m 0,0,1
 441.333333333 79 441.333333333 79 486 79 c 0,2,3
 529.733333333 79 529.733333333 79 547 116 c 0,4,5
 554 131 554 131 554 157 c 2,6,-1
 554 339 l 1,7,8
 542.25 339 542.25 339 530.5 339 c 2,9,-1
 416 338 l 2,10,11
 367 337 367 337 319.5 336 c 128,-1,12
 272 335 272 335 224 320 c 128,-1,13
 176 305 176 305 147 272.5 c 128,-1,14
 118 240 118 240 118 207.5 c 128,-1,15
 118 175 118 175 130.5 152.5 c 128,-1,16
 143 130 143 130 163.5 114 c 0,17,18
 207.0625 80 207.0625 80 267 80 c 0,19,20
 305.0625 80 305.0625 80 328.5 105 c 0,21,22
 336 113 336 113 336 124 c 2,23,-1
 336 129 l 1,24,-1
 426 129 l 1,25,26
 427 128 427 128 427 122 c 0,0,1
361 545 m 0,27,28
 394.058823529 545 394.058823529 545 405 576 c 1,29,-1
 487 538 l 1,30,31
 472 495 472 495 443 475 c 128,-1,32
 414 455 414 455 357 455 c 0,33,34
 302 455 302 455 264 493 c 0,35,36
 225 532 225 532 225 587 c 0,37,38
 225 657.84 225 657.84 278 696 c 0,39,40
 326.611111111 731 326.611111111 731 408 731 c 2,41,-1
 739 731 l 1,42,-1
 713 672 l 1,43,44
 703 644 703 644 691.5 617 c 128,-1,45
 680 590 680 590 670.5 563.5 c 0,46,47
 648 500.736842105 648 500.736842105 648 458 c 2,48,-1
 648 433 l 1,49,-1
 759 433 l 2,50,51
 875.928571429 433 875.928571429 433 956 374 c 128,-1,52
 1035.88123515 315.140142518 1035.88123515 315.140142518 1046 218 c 1,53,-1
 1047 197 l 1,54,55
 1047 108.793103448 1047 108.793103448 983 47 c 0,56,57
 920.857142857 -13 920.857142857 -13 837 -13 c 0,58,59
 789 -13 789 -13 746 8.5 c 128,-1,60
 703 30 703 30 674 67 c 1,61,-1
 747 124 l 1,62,63
 782.619047619 80 782.619047619 80 838 80 c 0,64,65
 887.212121212 80 887.212121212 80 921.5 116.5 c 0,66,67
 954 151.096774194 954 151.096774194 954 194.548387097 c 128,-1,68
 954 238 954 238 930.5 268 c 128,-1,69
 907 298 907 298 881 311 c 128,-1,70
 855 324 855 324 823.5 330 c 0,71,72
 781.5 338 781.5 338 686 338 c 2,73,-1
 649 338 l 1,74,-1
 646 157 l 1,75,76
 646 75.1333333333 646 75.1333333333 595.5 28 c 0,77,78
 551.571428571 -13 551.571428571 -13 486.785714286 -13 c 128,-1,79
 422 -13 422 -13 381 28 c 1,80,81
 334.409090909 -13 334.409090909 -13 275.704545455 -13 c 128,-1,82
 217 -13 217 -13 172.5 4.5 c 128,-1,83
 128 22 128 22 95.5 51 c 0,84,85
 26 113.015384615 26 113.015384615 26 202 c 0,86,87
 26 291.484848485 26 291.484848485 96 353 c 0,88,89
 179.380782918 423.747330961 179.380782918 423.747330961 333.5 431 c 0,90,91
 376 433 376 433 415 433 c 2,92,-1
 554 433 l 1,93,94
 554 533.272727273 554 533.272727273 600 642 c 1,95,96
 565 641 565 641 530.5 641 c 2,97,-1
 425 641 l 2,98,99
 374.181818182 641 374.181818182 641 355.090909091 634 c 0,100,101
 317 620.033333333 317 620.033333333 317 587 c 0,102,103
 317 570 317 570 329.5 557.5 c 128,-1,104
 342 545 342 545 361 545 c 0,27,28
EndSplineSet
EndChar

StartChar: uni0D9C
Encoding: 3484 3484 296
Width: 1071
GlyphClass: 2
Flags: W
LayerCount: 2
Back
Fore
SplineSet
332 -4 m 0,0,1
 277 -4 277 -4 226 8 c 128,-1,2
 175 20 175 20 136 53.5 c 0,3,4
 49 128.230769231 49 128.230769231 49 303 c 0,5,6
 49 559.211538462 49 559.211538462 242 652 c 1,7,-1
 340 606 l 1,8,9
 307 590 307 590 273 569 c 128,-1,10
 239 548 239 548 211 513 c 0,11,12
 147 433 147 433 147 291 c 0,13,14
 147 212.456521739 147 212.456521739 197 150.5 c 0,15,16
 247.448654038 87.9875373878 247.448654038 87.9875373878 319 86 c 256,17,18
 410.869527897 83.4480686695 410.869527897 83.4480686695 457 197 c 0,19,20
 478.518518519 249.968660969 478.518518519 249.968660969 489.759259259 300.984330484 c 128,-1,21
 501 352 501 352 509 375.5 c 128,-1,22
 517 399 517 399 535 442.5 c 128,-1,23
 553 486 553 486 585 528 c 128,-1,24
 617 570 617 570 666 600 c 128,-1,25
 715 630 715 630 784 628 c 0,26,27
 892 625 892 625 939 550 c 128,-1,28
 986 475 986 475 986 328 c 0,29,30
 986 188.405405405 986 188.405405405 942.5 92 c 0,31,32
 908.626760563 16.9295774648 908.626760563 16.9295774648 858 -12 c 1,33,-1
 778 46 l 1,34,35
 836 85 836 85 861 154.5 c 128,-1,36
 886 224 886 224 886 340 c 0,37,38
 886 417.142857143 886 417.142857143 857 471 c 0,39,40
 826.307692308 528 826.307692308 528 780 528 c 0,41,42
 738.428571429 528 738.428571429 528 694.5 475.5 c 0,43,44
 642.827715356 413.745318352 642.827715356 413.745318352 605 270 c 0,45,46
 565.496453901 119.886524823 565.496453901 119.886524823 497.5 56.5 c 0,47,48
 432.6 -4 432.6 -4 332 -4 c 0,0,1
EndSplineSet
EndChar

StartChar: uni0D9E
Encoding: 3486 3486 298
Width: 912
GlyphClass: 2
Flags: W
LayerCount: 2
Back
Fore
SplineSet
86 769 m 1,0,1
 242.6 856 242.6 856 435 856 c 0,2,3
 647 856 647 856 758.5 729 c 128,-1,4
 870 602 870 602 870 356 c 0,5,6
 870 -11 870 -11 620 -11 c 0,7,8
 569 -11 569 -11 529 10 c 128,-1,9
 489 31 489 31 454 79 c 1,10,11
 421 29 421 29 379.5 9 c 128,-1,12
 338 -11 338 -11 281 -11 c 0,13,14
 186 -11 186 -11 131 41 c 0,15,16
 76 96 76 96 76 183 c 128,-1,17
 76 270 76 270 127.5 321 c 128,-1,18
 179 372 179 372 297 406 c 1,19,-1
 332 417 l 2,20,21
 373 429 373 429 392 436.5 c 0,22,23
 430 451.5 430 451.5 430 488.75 c 128,-1,24
 430 526 430 526 386.5 542.5 c 128,-1,25
 343 559 343 559 254 559 c 2,26,-1
 251 559 l 1,27,28
 273 525 273 525 273 477.5 c 128,-1,29
 273 430 273 430 237 400 c 0,30,31
 200 371 200 371 144.5 371 c 128,-1,32
 89 371 89 371 57.5 401.5 c 128,-1,33
 26 432 26 432 26 482 c 0,34,35
 26 550 26 550 86 588.5 c 128,-1,36
 146 627 146 627 262 627 c 0,37,38
 504 627 504 627 504 489 c 0,39,40
 504 430.5 504 430.5 460 399.5 c 0,41,42
 426.826245443 376.127582017 426.826245443 376.127582017 326 347 c 0,43,44
 232 323 232 323 191.5 285 c 128,-1,45
 151 247 151 247 151 187 c 0,46,47
 151 62 151 62 284 62 c 0,48,49
 353 62 353 62 387 97 c 128,-1,50
 421 132 421 132 421 212 c 2,51,-1
 421 219 l 1,52,-1
 490 219 l 1,53,-1
 490 212 l 2,54,55
 490 62 490 62 619 62 c 0,56,57
 793 62 793 62 793 353 c 0,58,59
 793 784 793 784 430 784 c 0,60,61
 256.045454545 784 256.045454545 784 120 702 c 1,62,-1
 86 769 l 1,0,1
98 488 m 256,63,64
 98 437 98 437 150.5 437 c 128,-1,65
 203 437 203 437 203 489 c 0,66,67
 203 530 203 530 183 554 c 1,68,69
 139 548 139 548 118.5 530 c 128,-1,70
 98 512 98 512 98 488 c 256,63,64
EndSplineSet
EndChar

StartChar: uni0DA0
Encoding: 3488 3488 300
Width: 834
GlyphClass: 2
Flags: W
LayerCount: 2
Back
Fore
SplineSet
155 485 m 1,0,1
 153 497 153 497 153 508 c 0,2,3
 153 565 153 565 192 596 c 128,-1,4
 231 627 231 627 308 627 c 128,-1,5
 385 627 385 627 429 579 c 128,-1,6
 473 531 473 531 473 440 c 2,7,-1
 473 398 l 1,8,-1
 385 398 l 2,9,10
 298 398 298 398 258 391 c 128,-1,11
 218 384 218 384 186 364 c 0,12,13
 124 323 124 323 124 238.5 c 128,-1,14
 124 154 124 154 187 108 c 128,-1,15
 250 62 250 62 365 62 c 0,16,17
 592.481927711 62 592.481927711 62 678 231 c 0,18,19
 720 315 720 315 720 428.5 c 128,-1,20
 720 542 720 542 678 622.5 c 128,-1,21
 636 703 636 703 557 743 c 0,22,23
 481 784 481 784 389 784 c 128,-1,24
 297 784 297 784 227 765 c 256,25,26
 157 746 157 746 82 702 c 1,27,-1
 49 769 l 1,28,29
 202 856 202 856 383 856 c 0,30,31
 506 856 506 856 601.5 805 c 128,-1,32
 697 754 697 754 747 658 c 128,-1,33
 797 562 797 562 797 428 c 256,34,35
 797 294 797 294 747 194 c 128,-1,36
 697 94 697 94 601.5 41.5 c 128,-1,37
 506 -11 506 -11 369 -11 c 0,38,39
 215.181818182 -11 215.181818182 -11 130.5 58 c 0,40,41
 47.9474053296 125.265077139 47.9474053296 125.265077139 50 232 c 0,42,43
 50 348.893617021 50 348.893617021 146 402 c 1,44,45
 112 398 112 398 56 398 c 2,46,-1
 31 398 l 1,47,-1
 31 466 l 1,48,-1
 401 466 l 1,49,50
 398 511 398 511 373 535 c 128,-1,51
 348 559 348 559 306 559 c 0,52,53
 227 559 227 559 227 502 c 2,54,-1
 227 496 l 2,55,56
 227 491 227 491 228 489 c 1,57,-1
 155 485 l 1,0,1
EndSplineSet
EndChar

StartChar: uni0DA1
Encoding: 3489 3489 301
Width: 819
GlyphClass: 2
Flags: W
LayerCount: 2
Back
Fore
SplineSet
74 457 m 1,0,1
 67 485 67 485 67 508 c 0,2,3
 67 565 67 565 105.5 596 c 128,-1,4
 144 627 144 627 221.5 627 c 128,-1,5
 299 627 299 627 343.5 579 c 128,-1,6
 388 531 388 531 388 440 c 2,7,-1
 388 398 l 1,8,-1
 300 398 l 2,9,10
 200 398 200 398 156 363 c 128,-1,11
 112 328 112 328 112 253 c 0,12,13
 112 164 112 164 187.5 113 c 128,-1,14
 263 62 263 62 407 62 c 128,-1,15
 551 62 551 62 629 113.5 c 128,-1,16
 707 165 707 165 707 258 c 0,17,18
 707 291 707 291 701 312 c 1,19,20
 657 241 657 241 564 241 c 0,21,22
 465.333333333 241 465.333333333 241 432 341 c 0,23,24
 420 377 420 377 420 430 c 0,25,26
 420 557 420 557 511 663 c 0,27,28
 604 769 604 769 762 829 c 1,29,-1
 792 765 l 1,30,31
 634 707 634 707 548 612 c 1,32,33
 575 627 575 627 603 627 c 0,34,35
 670 627 670 627 705 582.5 c 128,-1,36
 740 538 740 538 740 460 c 0,37,38
 740 422 740 422 734 394 c 1,39,40
 782 343 782 343 782 257 c 0,41,42
 782 126 782 126 686 57.5 c 128,-1,43
 590 -11 590 -11 404 -11 c 128,-1,44
 218 -11 218 -11 127.5 60.5 c 128,-1,45
 37 132 37 132 37 257 c 0,46,47
 37 466 37 466 299 466 c 2,48,-1
 315 466 l 1,49,50
 312 511 312 511 287.5 535 c 128,-1,51
 263 559 263 559 220 559 c 0,52,53
 142 559 142 559 142 499 c 0,54,55
 142 485 142 485 146 468 c 1,56,-1
 74 457 l 1,0,1
518 466 m 2,57,58
 607 466 607 466 668 440 c 1,59,60
 668 446 668 446 669 448 c 1,61,-1
 669 457 l 2,62,63
 669 564 669 564 585 564 c 0,64,65
 546 564 546 564 520.5 538 c 128,-1,66
 495 512 495 512 489 466 c 1,67,-1
 518 466 l 2,57,58
489 398 m 1,68,69
 492 360 492 360 508.5 334.5 c 128,-1,70
 525 309 525 309 572 309 c 0,71,72
 635 309 635 309 656 368 c 1,73,74
 611 398 611 398 509 398 c 2,75,-1
 489 398 l 1,68,69
EndSplineSet
EndChar

StartChar: uni0DA2
Encoding: 3490 3490 302
Width: 869
GlyphClass: 2
Flags: W
LayerCount: 2
Back
Fore
SplineSet
613.5 527.5 m 128,-1,1
 627 514 627 514 646.5 514 c 128,-1,2
 666 514 666 514 679 527.5 c 128,-1,3
 692 541 692 541 692 560 c 128,-1,4
 692 579 692 579 679 592.5 c 128,-1,5
 666 606 666 606 646.5 606 c 128,-1,6
 627 606 627 606 613.5 592.5 c 128,-1,7
 600 579 600 579 600 560 c 128,-1,0
 600 541 600 541 613.5 527.5 c 128,-1,1
690 134 m 0,8,9
 649.565217391 160.282608696 649.565217391 160.282608696 583 127 c 1,10,11
 601.989189189 82.6918918919 601.989189189 82.6918918919 644 74 c 0,12,13
 673.772222222 66.2333333333 673.772222222 66.2333333333 694.5 84 c 0,14,15
 701.733333333 90.2 701.733333333 90.2 703.366666667 95.1 c 128,-1,16
 705 100 705 100 705.5 103.5 c 0,17,18
 706.744186047 112.209302326 706.744186047 112.209302326 700.872093023 121.604651163 c 128,-1,19
 695 131 695 131 690 134 c 0,8,9
392 368 m 2,20,-1
 432 367 l 1,21,22
 504.2 367 504.2 367 535.6 373.5 c 0,23,24
 600.856673241 387.008547009 600.856673241 387.008547009 647 424.5 c 0,25,26
 655 431 655 431 662 439 c 1,27,28
 657 438 657 438 650 438 c 2,29,-1
 640 438 l 1,30,31
 592.739336493 441.938388626 592.739336493 441.938388626 556 483 c 0,32,33
 531.715846995 511.699453552 531.715846995 511.699453552 528.357923497 541.349726776 c 128,-1,34
 525 571 525 571 528 599 c 1,35,36
 489.506849315 579.753424658 489.506849315 579.753424658 469.5 538 c 0,37,38
 458 514 458 514 456 488 c 1,39,-1
 456 473 l 1,40,-1
 358 475 l 1,41,-1
 358 489 l 1,42,43
 356 538 356 538 322 574 c 0,44,45
 284.83984375 613.224609375 284.83984375 613.224609375 227 611 c 0,46,47
 197 609 197 609 175 595 c 1,48,49
 138.12 558.12 138.12 558.12 165 529 c 1,50,51
 203.006134969 501.852760736 203.006134969 501.852760736 231 532 c 1,52,-1
 304 469 l 1,53,54
 262.328358209 421.07761194 262.328358209 421.07761194 200 419 c 256,55,56
 138.938461538 416.964615385 138.938461538 416.964615385 97 461 c 0,57,58
 52.6702619414 503.218798151 52.6702619414 503.218798151 57 566 c 0,59,60
 59 596 59 596 75 624.5 c 128,-1,61
 91 653 91 653 115.5 671 c 0,62,63
 164.614807873 707.084348641 164.614807873 707.084348641 217.307403936 709.042174321 c 0,64,65
 320.137124434 712.862875566 320.137124434 712.862875566 391 642 c 2,66,-1
 400 633 l 2,67,68
 404 629 404 629 408 624 c 1,69,70
 420 641 420 641 433 651 c 0,71,72
 500.428571429 710 500.428571429 710 586 710 c 1,73,74
 652.227586207 783.586206897 652.227586207 783.586206897 775 805 c 0,75,76
 840.532663317 817.135678392 840.532663317 817.135678392 886 814 c 1,77,-1
 884 716 l 1,78,79
 842.6 717.8 842.6 717.8 791.3 708.4 c 128,-1,80
 740 699 740 699 701 678 c 1,81,82
 705 676 705 676 708 674 c 0,83,84
 751 646 751 646 770.5 606 c 0,85,86
 808.705611068 527.629515757 808.705611068 527.629515757 779 447 c 0,87,88
 741.906299629 347.132345156 741.906299629 347.132345156 629 299.5 c 0,89,90
 556.703703704 269 556.703703704 269 431 269 c 2,91,-1
 410.5 269 l 2,92,93
 401 269 401 269 390 271 c 0,94,95
 285.475308642 273.549382716 285.475308642 273.549382716 241.237654321 259.774691358 c 128,-1,96
 197 246 197 246 170 219 c 1,97,98
 145.111731844 187.324022346 145.111731844 187.324022346 147 159 c 0,99,100
 147 120.941176471 147 120.941176471 184 97 c 1,101,102
 244.465983225 47.87138863 244.465983225 47.87138863 364 102 c 0,103,104
 421.142857143 131.714285714 421.142857143 131.714285714 464 166 c 1,105,106
 506.5 196 506.5 196 535 211 c 0,107,108
 621.686705202 259.344508671 621.686705202 259.344508671 697.5 237.5 c 0,109,110
 764.279373368 218.25848564 764.279373368 218.25848564 791 161 c 0,111,112
 822.992071358 94.8830525273 822.992071358 94.8830525273 781 33 c 0,113,114
 750.212598425 -7.02362204724 750.212598425 -7.02362204724 698.5 -21 c 0,115,116
 680 -26 680 -26 665 -26 c 0,117,118
 611.272727273 -26 611.272727273 -26 565.5 2.5 c 0,119,120
 539 19 539 19 527 34 c 0,121,122
 505.666666667 60.6666666667 505.666666667 60.6666666667 500 72 c 1,123,124
 457 41 457 41 407 14 c 0,125,126
 338 -18 338 -18 264 -23 c 0,127,128
 166.595800525 -29.5813648294 166.595800525 -29.5813648294 97 42.5 c 0,129,130
 71.7346938776 68.667638484 71.7346938776 68.667638484 60.3673469388 100.333819242 c 128,-1,131
 49 132 49 132 48 160.5 c 128,-1,132
 47 189 47 189 59.5 223 c 128,-1,133
 72 257 72 257 98 284 c 0,134,135
 139 331 139 331 209 352 c 0,136,137
 255 367 255 367 301 368 c 128,-1,138
 347 369 347 369 392 368 c 2,20,-1
EndSplineSet
EndChar

StartChar: uni0DA3
Encoding: 3491 3491 303
Width: 1468
GlyphClass: 2
Flags: W
LayerCount: 2
Back
Fore
SplineSet
663 769 m 1,0,1
 812.413043478 856 812.413043478 856 1010.70652174 856 c 128,-1,2
 1209 856 1209 856 1318 729 c 128,-1,3
 1427 602 1427 602 1427 356 c 0,4,5
 1427 -11 1427 -11 1183 -11 c 0,6,7
 1133 -11 1133 -11 1094 10 c 128,-1,8
 1055 31 1055 31 1022 79 c 1,9,10
 986 28 986 28 948 8.5 c 128,-1,11
 910 -11 910 -11 853 -11 c 0,12,13
 741.489361702 -11 741.489361702 -11 695 84 c 1,14,15
 654 -11 654 -11 558 -11 c 256,16,17
 462 -11 462 -11 408 79 c 1,18,19
 382 31 382 31 348.5 10 c 128,-1,20
 315 -11 315 -11 264 -11 c 0,21,22
 190 -11 190 -11 145 36 c 128,-1,23
 100 83 100 83 100 170 c 1,24,-1
 87 147 l 1,25,-1
 22 184 l 1,26,27
 155 373 155 373 249 460 c 1,28,29
 228 538 228 538 172 538 c 0,30,31
 143 538 143 538 125.5 521.5 c 128,-1,32
 108 505 108 505 108 475 c 128,-1,33
 108 445 108 445 119 413 c 1,34,-1
 47 398 l 1,35,36
 34 438 34 438 34 478 c 0,37,38
 34 539 34 539 70.5 572.5 c 128,-1,39
 107 606 107 606 171 606 c 0,40,41
 268.291666667 606 268.291666667 606 303 508 c 1,42,43
 378 567 378 567 454.5 597 c 128,-1,44
 531 627 531 627 641 627 c 0,45,46
 814 627 814 627 953 502 c 1,47,-1
 927 427 l 1,48,49
 833 422 833 422 781 367.5 c 128,-1,50
 729 313 729 313 729 229.5 c 128,-1,51
 729 146 729 146 763 104 c 128,-1,52
 797 62 797 62 860 62 c 256,53,54
 988 62 988 62 988 212 c 2,55,-1
 988 219 l 1,56,-1
 1056 219 l 1,57,-1
 1056 212 l 2,58,59
 1056 62 1056 62 1181 62 c 0,60,61
 1349 62 1349 62 1349 353 c 0,62,63
 1349 784 1349 784 998 784 c 0,64,65
 868.129032258 784 868.129032258 784 768.5 740.5 c 0,66,67
 733 725 733 725 696 702 c 1,68,-1
 663 769 l 1,0,1
864 485 m 1,69,70
 759.789473684 557 759.789473684 557 637 557 c 0,71,72
 543 557 543 557 468.5 529 c 128,-1,73
 394 501 394 501 325 441 c 1,74,75
 374 459 374 459 444 459 c 0,76,77
 619 459 619 459 683 339 c 1,78,79
 730 461 730 461 864 485 c 1,69,70
168 219 m 1,80,81
 166 209 166 209 166 191 c 0,82,83
 166 122 166 122 191.5 92 c 128,-1,84
 217 62 217 62 269.5 62 c 128,-1,85
 322 62 322 62 348 98 c 128,-1,86
 374 134 374 134 374 212 c 2,87,-1
 374 219 l 1,88,-1
 442 219 l 1,89,-1
 442 208 l 2,90,91
 442 140 442 140 470.5 101 c 128,-1,92
 499 62 499 62 550 62 c 256,93,94
 601 62 601 62 628.5 95 c 128,-1,95
 656 128 656 128 656 195 c 0,96,97
 656 290 656 290 598 339.5 c 128,-1,98
 540 389 540 389 430 389 c 0,99,100
 360 389 360 389 332.5 384 c 0,101,102
 278.205128205 374.128205128 278.205128205 374.128205128 248 363 c 1,103,104
 193.142857143 300.662337662 193.142857143 300.662337662 137 219 c 1,105,-1
 168 219 l 1,80,81
EndSplineSet
EndChar

